<?xml version="1.0" standalone="no"?>
<!DOCTYPE svg PUBLIC "-//W3C//DTD SVG 1.0//EN" "http://www.w3.org/TR/2001/REC-SVG-20010904/DTD/svg10.dtd">
<svg xmlns="http://www.w3.org/2000/svg" xmlns:xlink="http://www.w3.org/1999/xlink" id="body_1" width="13" height="13">

<g transform="matrix(0.02584493 0 0 0.02584493 0.28429422 -0)">
	<g transform="matrix(0.1 0 -0 -0.1 0 503)">
        <path d="M1040 4869C 980 4845 970 4799 905 4285C 891 4170 869 3999 855 3905C 842 3812 829 3706 825 3670C 822 3634 813 3567 805 3520C 798 3473 787 3392 780 3340C 774 3288 755 3153 740 3040C 724 2927 704 2779 695 2710C 686 2641 673 2545 665 2495C 651 2406 621 2195 580 1890C 569 1805 555 1708 550 1675C 545 1642 529 1523 514 1410C 500 1297 484 1180 480 1150C 431 793 418 657 429 621C 449 554 473 546 735 515C 812 506 909 492 950 485C 1015 473 1292 437 1415 424C 1449 421 1726 384 1970 350C 2093 333 2195 319 2310 305C 2373 297 2470 284 2525 275C 2580 266 2658 255 2698 250C 3024 206 3043 204 3160 186C 3218 178 3283 169 3305 166C 3327 163 3377 157 3415 152C 3738 107 3739 107 3769 120C 3816 139 3848 195 3860 280C 3873 370 3891 557 3896 660C 3898 701 3902 744 3905 755C 3912 779 3938 947 3951 1050C 3956 1091 3976 1238 3995 1375C 4036 1673 4038 1684 4056 1825C 4063 1886 4074 1964 4080 2000C 4098 2114 4099 2122 4119 2280C 4131 2365 4144 2469 4150 2510C 4156 2551 4167 2641 4176 2710C 4184 2779 4193 2846 4194 2860C 4219 3039 4230 3123 4235 3165C 4238 3193 4245 3238 4250 3265C 4255 3293 4264 3358 4270 3410C 4287 3565 4299 3657 4319 3810C 4330 3890 4342 3982 4345 4015C 4349 4048 4358 4121 4366 4176C 4389 4338 4386 4372 4348 4413C 4318 4444 4306 4448 4230 4460C 4183 4467 4129 4474 4110 4476C 4091 4478 4030 4487 3975 4495C 3920 4503 3862 4512 3845 4515C 3829 4517 3777 4524 3730 4530C 3683 4536 3618 4545 3585 4550C 3515 4560 3380 4579 3330 4585C 3236 4595 2895 4642 2710 4669C 2636 4680 2467 4703 2335 4720C 2203 4737 2068 4755 2035 4761C 2002 4766 1856 4786 1710 4805C 1564 4824 1396 4846 1335 4854C 1174 4875 1069 4881 1040 4869zM1355 4600C 1469 4584 1655 4561 1707 4556C 1735 4553 1787 4546 1822 4540C 1856 4534 1962 4520 2055 4509C 2292 4481 2435 4462 2505 4451C 2538 4445 2585 4440 2610 4439C 2635 4438 2659 4435 2664 4432C 2668 4430 2691 4426 2714 4423C 2736 4421 2769 4418 2785 4415C 2802 4413 2851 4406 2895 4400C 2939 4394 2989 4386 3005 4384C 3077 4373 3108 4369 3160 4364C 3239 4357 3254 4355 3265 4348C 3271 4345 3307 4339 3345 4336C 3384 4332 3429 4327 3445 4325C 3462 4322 3495 4318 3520 4315C 3545 4312 3610 4303 3665 4295C 3720 4286 3785 4277 3810 4274C 3835 4272 3880 4265 3910 4259C 3940 4253 3974 4247 3985 4245C 4063 4235 4106 4226 4112 4216C 4117 4210 4118 4187 4115 4165C 4099 4029 4088 3937 4070 3798C 4017 3382 4009 3323 4005 3295C 4002 3279 3991 3191 3980 3100C 3958 2919 3916 2602 3900 2500C 3895 2464 3886 2399 3880 2355C 3870 2266 3845 2089 3830 1990C 3825 1954 3813 1869 3805 1800C 3796 1731 3780 1612 3769 1535C 3751 1401 3743 1342 3720 1157C 3714 1112 3705 1044 3699 1005C 3690 937 3661 717 3639 555C 3616 375 3619 385 3580 387C 3561 388 3460 401 3355 415C 3251 430 3050 456 2910 475C 2770 493 2601 516 2535 525C 2469 534 2395 543 2370 545C 2345 548 2314 552 2300 555C 2286 558 2255 562 2230 565C 2205 568 2127 579 2055 589C 1984 600 1851 618 1760 630C 1669 642 1521 662 1430 675C 1339 688 1236 702 1201 705C 1166 708 1134 712 1131 715C 1127 717 1095 721 1060 725C 1024 729 928 741 845 753L845 753L695 775L692 820C 690 845 694 899 700 940C 707 981 714 1033 717 1055C 719 1077 723 1106 725 1120C 727 1134 740 1228 753 1330C 767 1432 797 1643 819 1800C 858 2072 880 2228 935 2620C 949 2716 965 2824 970 2860C 976 2896 985 2961 990 3005C 995 3049 1002 3101 1005 3120C 1008 3139 1015 3193 1021 3240C 1026 3287 1039 3384 1050 3455C 1060 3527 1076 3650 1085 3730C 1094 3810 1108 3913 1115 3960C 1123 4007 1138 4126 1150 4225C 1161 4324 1175 4441 1182 4485C 1188 4529 1195 4576 1196 4590C 1197 4604 1198 4617 1199 4619C 1199 4621 1221 4620 1248 4616C 1274 4612 1322 4605 1355 4600z" stroke="none" fill="#000000" fill-rule="nonzero" />
        <path d="M1284 4264C 1267 4239 1267 4238 1303 4205C 1334 4176 1340 4164 1340 4130C 1340 4048 1281 3709 1260 3669C 1254 3659 1236 3643 1220 3635C 1186 3617 1181 3591 1208 3567C 1225 3551 1256 3545 1465 3519C 1515 3513 1596 3502 1645 3496C 1718 3486 1745 3487 1790 3498C 1820 3506 1850 3516 1857 3522C 1864 3527 1874 3528 1881 3524C 1888 3520 1891 3522 1888 3531C 1885 3539 1892 3549 1903 3555C 1927 3567 1974 3654 1978 3693C 1983 3733 1946 3802 1900 3839C 1878 3857 1860 3878 1860 3887C 1860 3896 1880 3925 1905 3951C 1930 3977 1951 4007 1951 4017C 1952 4027 1954 4046 1956 4060C 1961 4102 1940 4148 1907 4172C 1889 4184 1869 4200 1862 4206C 1846 4222 1771 4237 1645 4250C 1590 4255 1507 4266 1460 4275C 1335 4297 1304 4295 1284 4264zM1675 4137C 1707 4110 1718 4049 1700 3996C 1684 3947 1665 3930 1626 3930C 1568 3930 1565 3944 1586 4100C 1595 4165 1627 4179 1675 4137zM1639 3826C 1672 3808 1690 3772 1690 3720C 1690 3643 1660 3601 1604 3600C 1550 3600 1537 3626 1543 3722C 1545 3768 1551 3813 1555 3823C 1564 3844 1601 3845 1639 3826z" stroke="none" fill="#000000" fill-rule="nonzero" />
        <path d="M2180 4169C 2150 4166 2117 4160 2108 4156C 2085 4146 2084 4092 2105 4083C 2114 4080 2128 4064 2136 4047C 2153 4015 2151 3901 2130 3780C 2125 3750 2119 3705 2116 3680C 2106 3600 2078 3538 2048 3528C 2026 3520 2020 3512 2020 3489C 2020 3464 2026 3456 2055 3445C 2131 3412 2336 3398 2388 3420C 2429 3439 2429 3462 2388 3503C 2349 3542 2349 3563 2379 3800C 2385 3847 2394 3903 2399 3925C 2404 3947 2411 3980 2415 3997C 2421 4025 2450 4065 2450 4046C 2450 4042 2463 4046 2479 4055C 2514 4073 2511 4099 2471 4123C 2416 4155 2269 4179 2180 4169z" stroke="none" fill="#000000" fill-rule="nonzero" />
        <path d="M2588 4099C 2542 4082 2541 4037 2587 4019C 2631 4003 2637 3966 2624 3811C 2608 3638 2583 3488 2567 3477C 2560 3472 2540 3462 2523 3454C 2499 3444 2490 3433 2490 3416C 2490 3386 2494 3384 2655 3365C 2858 3342 3028 3313 3046 3299C 3062 3287 3135 3352 3150 3392C 3156 3410 3167 3435 3172 3446C 3183 3470 3175 3506 3152 3533C 3128 3560 3115 3554 3086 3500C 3055 3443 3036 3430 2971 3423C 2914 3418 2854 3441 2844 3472C 2837 3495 2837 3576 2844 3620C 2846 3634 2851 3674 2854 3710C 2865 3816 2891 3964 2901 3975C 2907 3980 2916 3985 2923 3986C 2956 3989 2980 4004 2980 4022C 2980 4075 2683 4133 2588 4099z" stroke="none" fill="#000000" fill-rule="nonzero" />
        <path d="M3298 3997C 3258 3981 3261 3947 3305 3922C 3324 3910 3342 3890 3346 3875C 3349 3861 3345 3777 3336 3687C 3306 3403 3296 3367 3241 3355C 3209 3348 3190 3316 3208 3298C 3218 3288 3350 3269 3361 3276C 3365 3278 3371 3276 3375 3270C 3378 3265 3406 3260 3436 3260C 3466 3260 3490 3256 3490 3250C 3490 3245 3510 3240 3535 3240C 3560 3240 3621 3231 3671 3220C 3721 3209 3772 3202 3783 3206C 3827 3220 3890 3321 3890 3378C 3890 3409 3861 3450 3840 3450C 3834 3450 3818 3428 3802 3400C 3769 3339 3743 3325 3670 3326C 3605 3327 3565 3348 3555 3387C 3548 3418 3557 3529 3579 3675C 3585 3714 3591 3768 3593 3796C 3596 3853 3609 3871 3663 3891C 3713 3909 3712 3934 3659 3960C 3579 4001 3364 4023 3298 3997z" stroke="none" fill="#000000" fill-rule="nonzero" />
        <path d="M1371 3092C 1352 3057 1390 3038 1425 3064C 1441 3076 1442 3080 1431 3094C 1413 3115 1383 3114 1371 3092z" stroke="none" fill="#000000" fill-rule="nonzero" />
        <path d="M1521 3077C 1506 3059 1517 3030 1539 3030C 1565 3030 1582 3046 1578 3066C 1574 3089 1538 3096 1521 3077z" stroke="none" fill="#000000" fill-rule="nonzero" />
        <path d="M1667 3056C 1658 3033 1669 3010 1689 3010C 1715 3010 1732 3026 1728 3046C 1724 3070 1675 3078 1667 3056z" stroke="none" fill="#000000" fill-rule="nonzero" />
        <path d="M1814 3028C 1805 2998 1834 2976 1861 2993C 1883 3007 1885 3021 1868 3038C 1849 3057 1822 3052 1814 3028z" stroke="none" fill="#000000" fill-rule="nonzero" />
        <path d="M1964 3015C 1955 2992 1967 2970 1989 2970C 2015 2970 2034 3002 2018 3018C 2001 3035 1970 3033 1964 3015z" stroke="none" fill="#000000" fill-rule="nonzero" />
        <path d="M2117 3003C 2113 3000 2110 2986 2110 2973C 2110 2955 2116 2950 2134 2950C 2159 2950 2177 2980 2165 3000C 2158 3011 2127 3013 2117 3003z" stroke="none" fill="#000000" fill-rule="nonzero" />
        <path d="M2262 2977C 2244 2955 2273 2921 2297 2936C 2322 2951 2320 2984 2294 2988C 2283 2990 2268 2985 2262 2977z" stroke="none" fill="#000000" fill-rule="nonzero" />
        <path d="M2410 2955C 2395 2937 2404 2910 2423 2910C 2443 2910 2463 2937 2456 2955C 2449 2974 2426 2974 2410 2955z" stroke="none" fill="#000000" fill-rule="nonzero" />
        <path d="M2550 2920C 2550 2897 2555 2890 2569 2890C 2593 2890 2614 2915 2606 2935C 2603 2943 2589 2950 2575 2950C 2554 2950 2550 2945 2550 2920z" stroke="none" fill="#000000" fill-rule="nonzero" />
        <path d="M2704 2915C 2696 2894 2706 2870 2723 2870C 2731 2870 2743 2877 2750 2885C 2760 2897 2760 2903 2750 2915C 2743 2923 2731 2930 2723 2930C 2716 2930 2707 2923 2704 2915z" stroke="none" fill="#000000" fill-rule="nonzero" />
        <path d="M2845 2890C 2837 2865 2846 2850 2868 2850C 2901 2850 2913 2865 2901 2889C 2886 2916 2853 2916 2845 2890z" stroke="none" fill="#000000" fill-rule="nonzero" />
        <path d="M2995 2869C 2990 2855 2993 2844 3001 2839C 3025 2824 3045 2834 3045 2860C 3045 2894 3005 2901 2995 2869z" stroke="none" fill="#000000" fill-rule="nonzero" />
        <path d="M3141 2852C 3128 2828 3144 2810 3178 2810C 3198 2810 3201 2814 3198 2838C 3194 2872 3157 2881 3141 2852z" stroke="none" fill="#000000" fill-rule="nonzero" />
        <path d="M3286 2834C 3279 2815 3296 2790 3315 2790C 3334 2790 3351 2815 3344 2834C 3341 2843 3328 2850 3315 2850C 3302 2850 3289 2843 3286 2834z" stroke="none" fill="#000000" fill-rule="nonzero" />
        <path d="M3437 2824C 3427 2813 3428 2782 3440 2775C 3460 2763 3491 2781 3488 2803C 3485 2825 3452 2838 3437 2824z" stroke="none" fill="#000000" fill-rule="nonzero" />
        <path d="M1344 2806C 1334 2780 1348 2760 1375 2760C 1398 2760 1401 2764 1398 2788C 1395 2819 1354 2833 1344 2806z" stroke="none" fill="#000000" fill-rule="nonzero" />
        <path d="M1496 2787C 1471 2768 1486 2738 1519 2742C 1548 2745 1561 2777 1538 2791C 1521 2803 1517 2802 1496 2787z" stroke="none" fill="#000000" fill-rule="nonzero" />
        <path d="M1641 2766C 1635 2759 1632 2745 1636 2736C 1645 2713 1692 2720 1696 2745C 1701 2777 1662 2792 1641 2766z" stroke="none" fill="#000000" fill-rule="nonzero" />
        <path d="M1784 2745C 1775 2722 1787 2700 1808 2700C 1837 2700 1856 2726 1840 2745C 1833 2753 1819 2760 1808 2760C 1798 2760 1787 2753 1784 2745z" stroke="none" fill="#000000" fill-rule="nonzero" />
        <path d="M1934 2725C 1930 2717 1931 2703 1934 2694C 1942 2673 1984 2680 1988 2704C 1994 2735 1945 2754 1934 2725z" stroke="none" fill="#000000" fill-rule="nonzero" />
        <path d="M2092 2711C 2072 2699 2082 2665 2104 2665C 2131 2665 2150 2698 2130 2710C 2112 2722 2109 2722 2092 2711z" stroke="none" fill="#000000" fill-rule="nonzero" />
        <path d="M2231 2678C 2220 2650 2225 2640 2249 2640C 2277 2640 2295 2666 2280 2685C 2262 2707 2241 2703 2231 2678z" stroke="none" fill="#000000" fill-rule="nonzero" />
        <path d="M2382 2671C 2362 2659 2372 2626 2396 2622C 2425 2618 2447 2645 2430 2665C 2416 2682 2401 2684 2382 2671z" stroke="none" fill="#000000" fill-rule="nonzero" />
        <path d="M2525 2640C 2517 2614 2531 2597 2556 2602C 2569 2604 2575 2614 2575 2630C 2575 2664 2535 2671 2525 2640z" stroke="none" fill="#000000" fill-rule="nonzero" />
        <path d="M2671 2622C 2657 2595 2673 2576 2704 2584C 2732 2591 2737 2609 2718 2628C 2701 2645 2682 2643 2671 2622z" stroke="none" fill="#000000" fill-rule="nonzero" />
        <path d="M2820 2605C 2813 2597 2810 2583 2814 2575C 2821 2555 2854 2556 2871 2576C 2882 2590 2881 2594 2865 2606C 2841 2624 2835 2624 2820 2605z" stroke="none" fill="#000000" fill-rule="nonzero" />
        <path d="M2972 2591C 2951 2578 2962 2545 2988 2544C 3000 2543 3010 2549 3010 2556C 3010 2564 3015 2570 3021 2570C 3029 2570 3029 2575 3020 2585C 3006 2602 2991 2604 2972 2591z" stroke="none" fill="#000000" fill-rule="nonzero" />
        <path d="M3117 2573C 3113 2570 3110 2556 3110 2543C 3110 2525 3115 2520 3135 2520C 3168 2520 3180 2548 3155 2566C 3134 2582 3126 2583 3117 2573z" stroke="none" fill="#000000" fill-rule="nonzero" />
        <path d="M3260 2545C 3245 2527 3254 2500 3274 2500C 3319 2500 3335 2531 3301 2550C 3276 2563 3275 2563 3260 2545z" stroke="none" fill="#000000" fill-rule="nonzero" />
        <path d="M3410 2530C 3403 2526 3400 2514 3402 2504C 3407 2476 3454 2478 3458 2506C 3461 2529 3432 2544 3410 2530z" stroke="none" fill="#000000" fill-rule="nonzero" />
        <path d="M1312 2513C 1299 2487 1308 2470 1335 2470C 1367 2470 1387 2495 1370 2515C 1353 2535 1323 2534 1312 2513z" stroke="none" fill="#000000" fill-rule="nonzero" />
        <path d="M1461 2497C 1446 2479 1457 2450 1479 2450C 1505 2450 1522 2466 1518 2486C 1514 2509 1478 2516 1461 2497z" stroke="none" fill="#000000" fill-rule="nonzero" />
        <path d="M1612 2478C 1591 2457 1598 2430 1624 2430C 1653 2430 1673 2452 1664 2474C 1657 2493 1629 2495 1612 2478z" stroke="none" fill="#000000" fill-rule="nonzero" />
        <path d="M1754 2455C 1745 2432 1757 2410 1778 2410C 1807 2410 1826 2436 1810 2455C 1803 2463 1789 2470 1778 2470C 1768 2470 1757 2463 1754 2455z" stroke="none" fill="#000000" fill-rule="nonzero" />
        <path d="M1912 2441C 1889 2427 1902 2395 1930 2395C 1950 2395 1955 2400 1955 2420C 1955 2446 1935 2456 1912 2441z" stroke="none" fill="#000000" fill-rule="nonzero" />
        <path d="M2052 2413C 2040 2389 2048 2370 2070 2370C 2093 2370 2114 2396 2106 2415C 2099 2436 2063 2434 2052 2413z" stroke="none" fill="#000000" fill-rule="nonzero" />
        <path d="M2200 2395C 2184 2376 2194 2350 2218 2350C 2247 2350 2266 2376 2250 2395C 2234 2414 2216 2414 2200 2395z" stroke="none" fill="#000000" fill-rule="nonzero" />
        <path d="M2352 2381C 2329 2367 2342 2335 2370 2335C 2390 2335 2395 2340 2395 2360C 2395 2386 2375 2396 2352 2381z" stroke="none" fill="#000000" fill-rule="nonzero" />
        <path d="M2497 2363C 2487 2353 2489 2322 2500 2315C 2517 2304 2550 2320 2550 2340C 2550 2363 2513 2380 2497 2363z" stroke="none" fill="#000000" fill-rule="nonzero" />
        <path d="M2636 2334C 2629 2315 2646 2290 2665 2290C 2672 2290 2683 2297 2690 2305C 2700 2317 2700 2323 2690 2335C 2674 2355 2644 2354 2636 2334z" stroke="none" fill="#000000" fill-rule="nonzero" />
        <path d="M2790 2315C 2775 2297 2784 2270 2804 2270C 2812 2270 2826 2277 2835 2286C 2847 2298 2848 2305 2839 2316C 2824 2334 2806 2334 2790 2315z" stroke="none" fill="#000000" fill-rule="nonzero" />
        <path d="M2936 2294C 2924 2263 2929 2249 2951 2252C 2982 2256 3000 2287 2980 2300C 2958 2314 2943 2312 2936 2294z" stroke="none" fill="#000000" fill-rule="nonzero" />
        <path d="M3084 2275C 3077 2258 3086 2230 3097 2230C 3101 2230 3114 2237 3124 2245C 3140 2257 3141 2262 3130 2275C 3114 2294 3091 2294 3084 2275z" stroke="none" fill="#000000" fill-rule="nonzero" />
        <path d="M3226 2255C 3217 2230 3231 2209 3254 2212C 3269 2214 3276 2223 3278 2243C 3281 2266 3278 2270 3257 2270C 3243 2270 3230 2263 3226 2255z" stroke="none" fill="#000000" fill-rule="nonzero" />
        <path d="M3375 2230C 3367 2205 3376 2190 3400 2190C 3410 2190 3422 2195 3425 2200C 3436 2217 3419 2250 3400 2250C 3390 2250 3379 2241 3375 2230z" stroke="none" fill="#000000" fill-rule="nonzero" />
        <path d="M1277 2226C 1266 2198 1281 2179 1309 2182C 1329 2184 1335 2190 1335 2210C 1335 2230 1329 2236 1309 2238C 1292 2240 1280 2235 1277 2226z" stroke="none" fill="#000000" fill-rule="nonzero" />
        <path d="M1427 2214C 1414 2201 1420 2171 1438 2161C 1464 2147 1498 2174 1484 2198C 1472 2216 1439 2226 1427 2214z" stroke="none" fill="#000000" fill-rule="nonzero" />
        <path d="M1574 2185C 1565 2162 1577 2140 1598 2140C 1627 2140 1646 2166 1630 2185C 1623 2193 1609 2200 1598 2200C 1588 2200 1577 2193 1574 2185z" stroke="none" fill="#000000" fill-rule="nonzero" />
        <path d="M1724 2166C 1714 2140 1728 2118 1752 2122C 1769 2124 1775 2132 1775 2150C 1775 2168 1769 2176 1752 2178C 1739 2180 1727 2175 1724 2166z" stroke="none" fill="#000000" fill-rule="nonzero" />
        <path d="M1871 2142C 1859 2120 1874 2100 1901 2100C 1924 2100 1933 2115 1925 2140C 1917 2165 1884 2166 1871 2142z" stroke="none" fill="#000000" fill-rule="nonzero" />
        <path d="M2022 2131C 2002 2119 2012 2086 2036 2082C 2065 2078 2087 2105 2070 2125C 2056 2142 2041 2144 2022 2131z" stroke="none" fill="#000000" fill-rule="nonzero" />
        <path d="M2165 2100C 2157 2074 2166 2060 2191 2063C 2222 2068 2235 2086 2220 2105C 2202 2126 2173 2124 2165 2100z" stroke="none" fill="#000000" fill-rule="nonzero" />
        <path d="M2314 2086C 2304 2060 2318 2038 2342 2042C 2359 2044 2365 2052 2365 2070C 2365 2088 2359 2096 2342 2098C 2329 2100 2317 2095 2314 2086z" stroke="none" fill="#000000" fill-rule="nonzero" />
        <path d="M2461 2061C 2448 2038 2471 2014 2495 2024C 2517 2032 2525 2060 2509 2071C 2487 2085 2472 2082 2461 2061z" stroke="none" fill="#000000" fill-rule="nonzero" />
        <path d="M2606 2045C 2598 2023 2610 2000 2630 2000C 2640 2000 2653 2007 2660 2015C 2675 2033 2658 2060 2630 2060C 2620 2060 2610 2053 2606 2045z" stroke="none" fill="#000000" fill-rule="nonzero" />
        <path d="M2755 2020C 2747 1995 2756 1980 2779 1980C 2807 1980 2825 2006 2810 2025C 2792 2046 2762 2044 2755 2020z" stroke="none" fill="#000000" fill-rule="nonzero" />
        <path d="M2904 2005C 2896 1984 2906 1960 2923 1960C 2943 1960 2963 1987 2956 2005C 2949 2024 2911 2025 2904 2005z" stroke="none" fill="#000000" fill-rule="nonzero" />
        <path d="M3057 1987C 3020 1961 3061 1925 3100 1950C 3111 1957 3112 1964 3104 1977C 3090 2000 3077 2003 3057 1987z" stroke="none" fill="#000000" fill-rule="nonzero" />
        <path d="M3200 1965C 3172 1931 3215 1904 3247 1935C 3259 1947 3260 1954 3250 1965C 3234 1984 3216 1984 3200 1965z" stroke="none" fill="#000000" fill-rule="nonzero" />
        <path d="M3344 1945C 3335 1922 3347 1900 3369 1900C 3393 1900 3408 1939 3389 1951C 3368 1964 3350 1962 3344 1945z" stroke="none" fill="#000000" fill-rule="nonzero" />
        <path d="M1247 1944C 1236 1932 1239 1903 1253 1892C 1260 1886 1274 1886 1288 1891C 1321 1903 1315 1944 1280 1948C 1266 1950 1251 1948 1247 1944z" stroke="none" fill="#000000" fill-rule="nonzero" />
        <path d="M1395 1910C 1386 1883 1396 1870 1425 1870C 1455 1870 1464 1884 1450 1910C 1436 1936 1403 1936 1395 1910z" stroke="none" fill="#000000" fill-rule="nonzero" />
        <path d="M1544 1895C 1535 1872 1547 1850 1568 1850C 1596 1850 1611 1870 1599 1892C 1587 1914 1552 1916 1544 1895z" stroke="none" fill="#000000" fill-rule="nonzero" />
        <path d="M1687 1876C 1678 1853 1689 1830 1709 1830C 1735 1830 1752 1846 1748 1866C 1744 1890 1695 1898 1687 1876z" stroke="none" fill="#000000" fill-rule="nonzero" />
        <path d="M1836 1855C 1829 1835 1839 1810 1855 1810C 1881 1810 1900 1823 1900 1840C 1900 1869 1847 1882 1836 1855z" stroke="none" fill="#000000" fill-rule="nonzero" />
        <path d="M1987 1843C 1974 1830 1980 1801 1999 1791C 2024 1777 2053 1807 2039 1833C 2029 1850 1999 1856 1987 1843z" stroke="none" fill="#000000" fill-rule="nonzero" />
        <path d="M2137 1823C 2124 1811 2130 1779 2145 1773C 2168 1765 2203 1799 2189 1817C 2177 1831 2148 1835 2137 1823z" stroke="none" fill="#000000" fill-rule="nonzero" />
        <path d="M2280 1785C 2280 1754 2306 1742 2327 1763C 2348 1784 2336 1810 2305 1810C 2285 1810 2280 1805 2280 1785z" stroke="none" fill="#000000" fill-rule="nonzero" />
        <path d="M2430 1775C 2420 1763 2420 1757 2430 1745C 2437 1737 2447 1730 2452 1730C 2470 1730 2490 1758 2484 1774C 2476 1794 2446 1795 2430 1775z" stroke="none" fill="#000000" fill-rule="nonzero" />
        <path d="M2575 1750C 2567 1725 2576 1710 2599 1710C 2627 1710 2645 1736 2630 1755C 2612 1776 2582 1774 2575 1750z" stroke="none" fill="#000000" fill-rule="nonzero" />
        <path d="M2727 1744C 2717 1734 2718 1702 2728 1696C 2733 1693 2747 1694 2759 1697C 2774 1701 2780 1709 2778 1724C 2775 1745 2741 1758 2727 1744z" stroke="none" fill="#000000" fill-rule="nonzero" />
        <path d="M2872 1713C 2859 1687 2868 1670 2895 1670C 2919 1670 2937 1700 2925 1720C 2915 1736 2881 1732 2872 1713z" stroke="none" fill="#000000" fill-rule="nonzero" />
        <path d="M3020 1695C 3004 1676 3014 1650 3038 1650C 3067 1650 3086 1676 3070 1695C 3054 1714 3036 1714 3020 1695z" stroke="none" fill="#000000" fill-rule="nonzero" />
        <path d="M3164 1675C 3154 1650 3168 1630 3194 1630C 3220 1630 3230 1644 3222 1673C 3217 1694 3172 1696 3164 1675z" stroke="none" fill="#000000" fill-rule="nonzero" />
        <path d="M3312 1658C 3298 1644 3314 1610 3334 1610C 3354 1610 3371 1635 3364 1654C 3357 1673 3329 1675 3312 1658z" stroke="none" fill="#000000" fill-rule="nonzero" />
        <path d="M2294 1236C 2291 1228 2271 1219 2251 1215C 2211 1208 2179 1176 2167 1131C 2159 1099 2183 1044 2212 1030C 2224 1023 2245 1008 2258 997C 2270 986 2280 980 2280 984C 2280 988 2289 986 2300 980C 2325 967 2328 912 2304 903C 2285 896 2268 918 2274 942C 2276 952 2275 962 2271 964C 2267 967 2263 957 2262 942C 2259 906 2243 899 2197 917C 2163 931 2157 931 2144 918C 2136 910 2132 896 2136 887C 2143 867 2224 835 2240 845C 2249 850 2250 846 2246 829L2246 829L2240 805L2251 828C 2258 840 2268 850 2274 851C 2318 854 2333 859 2354 879C 2383 907 2395 963 2380 1000C 2374 1015 2353 1036 2334 1046C 2315 1056 2297 1073 2294 1083C 2290 1097 2285 1098 2275 1090C 2264 1081 2258 1084 2245 1104C 2220 1141 2233 1150 2303 1146C 2401 1140 2428 1171 2354 1206C 2335 1215 2320 1229 2320 1236C 2320 1254 2301 1254 2294 1236z" stroke="none" fill="#000000" fill-rule="nonzero" />
        <path d="M2485 1171C 2481 1159 2488 1136 2502 1113C 2515 1092 2533 1058 2543 1037L2543 1037L2560 1000L2523 957C 2502 934 2470 900 2452 883C 2431 863 2420 844 2424 835C 2430 818 2450 814 2450 830C 2450 835 2454 839 2459 837C 2464 836 2489 856 2514 883C 2539 909 2568 930 2579 930C 2592 930 2611 908 2639 860C 2678 795 2683 790 2708 796C 2745 805 2745 805 2721 836C 2710 851 2700 866 2700 871C 2700 875 2687 901 2672 927C 2639 983 2627 1020 2643 1017C 2649 1016 2659 1025 2665 1038C 2670 1050 2678 1060 2681 1060C 2685 1060 2703 1075 2722 1094C 2747 1119 2754 1133 2748 1144C 2733 1170 2714 1163 2669 1115C 2646 1090 2622 1070 2616 1070C 2606 1070 2590 1091 2546 1163C 2527 1194 2494 1199 2485 1171z" stroke="none" fill="#000000" fill-rule="nonzero" />
        <path d="M2837 1139C 2815 1126 2823 1093 2862 1029C 2898 970 2897 947 2860 907C 2844 889 2830 868 2830 860C 2830 847 2829 847 2820 860C 2812 872 2808 869 2798 843C 2792 826 2778 809 2767 806C 2744 800 2754 780 2779 780C 2800 780 2853 833 2843 845C 2838 849 2842 851 2852 847C 2863 843 2870 848 2874 863C 2882 898 2924 896 2949 861C 2961 845 2970 828 2970 823C 2970 819 2981 798 2995 777C 3015 749 3027 740 3050 740C 3079 740 3098 754 3081 764C 3071 771 3012 870 2992 914C 2975 954 2986 997 3018 1018C 3068 1049 3093 1078 3087 1094C 3075 1125 3037 1111 3001 1064C 2982 1039 2960 1020 2952 1022C 2943 1024 2925 1046 2910 1073C 2875 1137 2859 1151 2837 1139z" stroke="none" fill="#000000" fill-rule="nonzero" />
        <path d="M3164 1083C 3156 1070 3162 1051 3192 994C 3213 955 3230 915 3230 907C 3230 899 3212 873 3190 851C 3168 829 3150 807 3150 803C 3150 798 3140 790 3128 785C 3102 774 3092 741 3111 730C 3127 720 3159 740 3153 756C 3151 763 3167 781 3189 796C 3212 811 3230 829 3230 837C 3230 847 3236 850 3247 846C 3256 842 3267 845 3271 852C 3276 860 3281 854 3286 834C 3291 812 3339 715 3356 692C 3357 690 3367 691 3377 694C 3406 703 3399 743 3357 816C 3350 828 3339 845 3332 853C 3314 874 3309 962 3326 956C 3333 953 3341 958 3344 966C 3347 974 3355 980 3361 980C 3379 980 3420 1029 3420 1051C 3420 1085 3388 1072 3338 1018C 3297 971 3289 967 3277 980C 3266 991 3217 1076 3215 1086C 3215 1087 3206 1090 3195 1094C 3182 1098 3171 1094 3164 1083z" stroke="none" fill="#000000" fill-rule="nonzero" />
	</g>
</g>
</svg>