<?xml version="1.0" standalone="no"?>
<!DOCTYPE svg PUBLIC "-//W3C//DTD SVG 1.0//EN" "http://www.w3.org/TR/2001/REC-SVG-20010904/DTD/svg10.dtd">
<svg xmlns="http://www.w3.org/2000/svg" xmlns:xlink="http://www.w3.org/1999/xlink" id="body_1" width="20" height="15">

<g transform="matrix(0.049668875 0 0 0.049668875 2.4999998 -0)">
	<g transform="matrix(1 0 0 1 -0 -750.36)">
        <path transform="matrix(0.77206 0 0 0.76642 -56.353 476.92)"  d="M462.86 553.79C 463.35992 624.04285 426.43912 689.1757 366.1217 724.44836C 305.80432 759.72095 231.34561 759.72095 171.0282 724.44836C 110.7108 689.1757 73.790054 624.04285 74.28998 553.79C 73.790054 483.53708 110.710846 418.40424 171.02824 383.1316C 231.34564 347.85898 305.80435 347.85898 366.12177 383.1316C 426.43915 418.40424 463.35992 483.53708 462.86 553.79z" stroke="none" fill="#37C837" fill-rule="nonzero" />
        <path transform="matrix(0.77206 0 0 0.76642 -56.353 476.92)"  d="M462.86 553.79C 463.35992 624.04285 426.43912 689.1757 366.1217 724.44836C 305.80432 759.72095 231.34561 759.72095 171.0282 724.44836C 110.7108 689.1757 73.790054 624.04285 74.28998 553.79C 73.790054 483.53708 110.710846 418.40424 171.02824 383.1316C 231.34564 347.85898 305.80435 347.85898 366.12177 383.1316C 426.43915 418.40424 463.35992 483.53708 462.86 553.79z" stroke="none" fill="#AFE9AF" fill-rule="nonzero" />
        <path transform="matrix(0.77206 0 0 0.76642 -56.353 476.92)"  d="M462.86 553.79C 463.35992 624.04285 426.43912 689.1757 366.1217 724.44836C 305.80432 759.72095 231.34561 759.72095 171.0282 724.44836C 110.7108 689.1757 73.790054 624.04285 74.28998 553.79C 73.790054 483.53708 110.710846 418.40424 171.02824 383.1316C 231.34564 347.85898 305.80435 347.85898 366.12177 383.1316C 426.43915 418.40424 463.35992 483.53708 462.86 553.79z" stroke="none" fill="#005500" fill-rule="nonzero" />
        <path d="M193.79 997.18C 202.2826 994.5334 211.553 990.9405 214.674 989.0861C 216.7708 987.8402 217.0663 987.4201 216.34079 986.71735C 211.08429 981.62573 174.10579 949.2263 173.77979 949.42834C 173.54123 949.57574 172.93759 951.88525 172.43828 954.5604C 171.4528 959.8411 170.52438 961.04944 167.45348 961.04803C 164.92508 961.04803 163.25757 959.63025 160.83388 955.42426C 159.77737 953.59076 158.06918 951.0098 157.03787 949.68884C 156.00667 948.3679 153.92267 945.0676 152.40677 942.35474C 150.89087 939.6419 148.22678 935.17224 146.48647 932.42206C 142.49716 926.11725 137.85497 918.431 136.09846 915.2231C 135.35495 913.86487 133.52066 911.0965 132.02217 909.07117C 130.52357 907.0458 128.61307 904.0456 127.776474 902.4039C 126.93988 900.76215 124.54167 896.86865 122.44727 893.7521C 120.352776 890.6351 117.835976 886.4997 116.85448 884.56256C 115.872894 882.6252 114.07037 879.47485 112.84888 877.5619C 110.04018 873.16327 106.77008 866.6259 106.20508 864.2809C 105.86061 862.8511 106.15068 862.1214 107.609276 860.7489C 109.57597 858.8981 109.70528 858.8987 115.96217 860.7838C 118.078476 861.4214 119.947174 861.806 120.114876 861.63837C 120.41637 861.33685 106.09788 805.8384 105.58588 805.3274C 105.210625 804.9521 88.44588 819.0324 88.44588 819.7234C 88.44588 820.03644 86.98668 821.7445 85.20328 823.51917C 83.41978 825.29376 80.88878 828.4468 79.578674 830.52576C 77.51347 833.80316 77.09867 835.17737 76.459274 840.8608C 74.42977 858.89777 79.18748 885.56177 88.21728 906.7538C 93.07808 918.1618 95.998375 923.8818 99.45028 928.7518C 101.01118 930.95386 103.11148 934.40576 104.117676 936.42267C 109.52387 947.25867 126.561676 967.0137 138.45168 976.23267C 146.65598 982.59406 164.06668 993.97064 168.09067 995.60065C 179.85867 1000.36584 182.96066 1000.55676 193.79066 997.18176L193.79066 997.18176L193.79 997.18zM223.803 976.734C 226.35399 970.4644 226.4254 970.0983 225.3037 969.04004C 224.35583 968.14575 194.48169 942.13306 190.3587 938.61206C 189.39525 937.7892 188.4266 938.0934 182.4335 941.1008C 176.6839 943.98615 175.7519 944.6676 176.5305 945.4176C 179.3746 948.1572 220.7695 983.67163 220.9315 983.5106C 221.03775 983.4044 222.33 980.3552 223.8031 976.7346zM131.993 856.834C 134.81999 854.68097 137.1248 852.8808 137.1146 852.83356C 136.348 849.2596 125.17559 805.56555 124.97859 805.36755C 124.595314 804.98425 110.334595 802.9844 110.04459 803.27344C 109.8637 803.4543 113.778694 818.59045 124.526596 859.26447C 125.288055 862.14606 124.81469 862.3003 131.9925 856.83374z" stroke="none" fill="#FFFFFF" fill-rule="nonzero" />
	</g>
</g>
</svg>