<?xml version="1.0" standalone="no"?>
<!DOCTYPE svg PUBLIC "-//W3C//DTD SVG 1.0//EN" "http://www.w3.org/TR/2001/REC-SVG-20010904/DTD/svg10.dtd">
<svg xmlns="http://www.w3.org/2000/svg" xmlns:xlink="http://www.w3.org/1999/xlink" id="body_1" width="41" height="41">

<g transform="matrix(0.020019531 0 0 0.020019531 0 0)">
	<g transform="matrix(1 0 0 1 -256.4375 1567.0625)">
		<g transform="matrix(1 0 0 1 0 69.535706)">
            <path d="M1423.7288 -1367.0669C 1199.8406 -1367.0669 1205.5432 -1128.937 1008.55975 -1123.9725L1008.55975 -1123.9725L860.5757 -1123.9725L833.6695 -1123.9725L760.77246 -1123.9725L461.36276 -1123.9725L410.05325 -1123.9725L406.61176 -1123.9725C 323.41528 -1123.9725 256.43762 -1056.9949 256.43762 -973.79834L256.43762 -973.79834L256.43762 -8.30365C 256.43762 74.89283 323.41528 141.8705 406.61176 141.8705L406.61176 141.8705L2154.2634 141.8705C 2237.46 141.8705 2304.4375 74.89283 2304.4375 -8.30365L2304.4375 -8.30365L2304.4375 -973.79834C 2304.4375 -1056.9949 2237.4597 -1123.9725 2154.2632 -1123.9725L2154.2632 -1123.9725L1983.7529 -1123.9725C 1786.7694 -1128.937 1792.4722 -1367.0669 1568.584 -1367.0669L1568.584 -1367.0669L1423.7285 -1367.0669L1423.7288 -1367.0669zM532.38257 -1212.5126C 493.0834 -1212.5126 461.36273 -1182.2267 461.36273 -1144.3086L461.36273 -1144.3086L760.77246 -1144.3086C 760.77246 -1182.2267 729.36456 -1212.5126 690.0654 -1212.5126L690.0654 -1212.5126L532.38257 -1212.5126z" stroke="none" fill="#1A1A1A" fill-rule="nonzero" />
            <path transform="matrix(12.831782 0 0 12.831782 -2995.2375 -5982.927)"  d="M385.87827 428.593C 385.87827 448.39813 369.823 464.4534 350.01785 464.4534C 330.2127 464.4534 314.15744 448.39816 314.15744 428.593C 314.15744 408.78784 330.21268 392.73257 350.01785 392.73257C 369.823 392.73257 385.87827 408.78784 385.87827 428.593z" stroke="#FFFFFF" stroke-width="3.901099" stroke-linecap="square" fill="none" />
            <path transform="matrix(22.957436 0 0 22.957436 -6952.44 -9762.303)"  d="M360.1194 393.49017C 360.1194 395.8612 358.19727 397.78333 355.82623 397.78333C 353.4552 397.78333 351.53308 395.8612 351.53308 393.49017C 351.53308 391.11914 353.4552 389.19702 355.82623 389.19702C 358.19727 389.19702 360.1194 391.11914 360.1194 393.49017z" stroke="none" fill="#FFFFFF" fill-rule="nonzero" />
            <path d="M1902.3325 -543.0625C 1879.625 -296.08398 1683.175 -99.887665 1436.167 -77.20978C 1446.9218 -76.416855 1457.7461 -75.95833 1468.7047 -75.95833C 1709.3137 -75.95833 1903.897 -270.22882 1903.897 -510.83765C 1903.897 -521.643 1903.1041 -532.4567 1902.3326 -543.0625L1902.3326 -543.0625L1902.3325 -543.0625z" stroke="none" fill="#FFFFFF" fill-rule="nonzero" />
            <path transform="matrix(8.804746 0 0 8.804746 -1734.5927 -4029.7717)"  d="M360.1194 393.49017C 360.1194 395.8612 358.19727 397.78333 355.82623 397.78333C 353.4552 397.78333 351.53308 395.8612 351.53308 393.49017C 351.53308 391.11914 353.4552 389.19702 355.82623 389.19702C 358.19727 389.19702 360.1194 391.11914 360.1194 393.49017z" stroke="none" fill="#FFFFFF" fill-rule="nonzero" />
            <path d="M1366.8821 -1245.5195C 1366.8821 -1285.3154 1399.1431 -1317.5764 1438.939 -1317.5764L1438.939 -1317.5764L1553.3738 -1317.5764C 1593.1697 -1317.5764 1625.4307 -1285.3154 1625.4307 -1245.5195C 1625.4307 -1205.7235 1593.1697 -1173.4625 1553.3738 -1173.4625L1553.3738 -1173.4625L1438.939 -1173.4625C 1399.1431 -1173.4625 1366.8821 -1205.7235 1366.8821 -1245.5195z" stroke="none" fill="#FFFFFF" fill-rule="nonzero" />
		</g>
	</g>
</g>
</svg>