<?xml version="1.0" standalone="no"?>
<!DOCTYPE svg PUBLIC "-//W3C//DTD SVG 1.0//EN" "http://www.w3.org/TR/2001/REC-SVG-20010904/DTD/svg10.dtd">
<svg xmlns="http://www.w3.org/2000/svg" xmlns:xlink="http://www.w3.org/1999/xlink" id="body_1" width="20" height="15">

<defs>
    <linearGradient transform="matrix(0.97711 0 0 0.91617 -11.838 21.518)"  id="1" x1="-244.41" y1="273.16" x2="-246.62" y2="296.02">
        <stop stop-color="#E6E6E6" offset="0%"/>
        <stop stop-color="#E6E6E6" offset="100%"/>
    </linearGradient>
    <linearGradient transform="matrix(0.94214 0.083985 -0.081419 0.99645 26.414 146.55)"  id="257" x1="-244.41" y1="273.16" x2="-246.62" y2="296.02">
        <stop stop-color="#E6E6E6" offset="0%"/>
        <stop stop-color="#E6E6E6" offset="100%"/>
    </linearGradient>
    <linearGradient transform="matrix(0.91333 0.17241 -0.17938 0.94455 69.651 361.18)"  id="529" x1="-244.41" y1="273.16" x2="-246.62" y2="296.02">
        <stop stop-color="#E6E6E6" offset="0%"/>
        <stop stop-color="#E6E6E6" offset="100%"/>
    </linearGradient>
    <linearGradient transform="matrix(0.90455 0.17432 -0.17765 0.95503 70.363 358.05)"  id="799" x1="-244.41" y1="273.16" x2="-246.62" y2="296.02">
        <stop stop-color="#E6E6E6" offset="0%"/>
        <stop stop-color="#E6E6E6" offset="100%"/>
    </linearGradient>
    <linearGradient transform="matrix(0.97406 0 0 0.94012 -13.417 15.37)"  id="1069" x1="-244.41" y1="273.16" x2="-246.62" y2="296.02">
        <stop stop-color="#E6E6E6" offset="0%"/>
        <stop stop-color="#E6E6E6" offset="100%"/>
    </linearGradient>
    <linearGradient transform="matrix(0.90984 0.25859 -0.26622 0.96367 107.84 490.34)"  id="1327" x1="-244.41" y1="273.16" x2="-246.62" y2="296.02">
        <stop stop-color="#E6E6E6" offset="0%"/>
        <stop stop-color="#E6E6E6" offset="100%"/>
    </linearGradient>
    <linearGradient transform="matrix(0.45694 -0.25439 0.28548 0.45865 298.22 67.822)"  id="1598" x1="-244.41" y1="273.16" x2="-246.62" y2="296.02">
        <stop stop-color="#E6E6E6" offset="0%"/>
        <stop stop-color="#E6E6E6" offset="100%"/>
    </linearGradient>
    <linearGradient transform="matrix(0.97406 0 0 0.92815 -13.417 18.444)"  id="1869" x1="-244.41" y1="273.16" x2="-246.62" y2="296.02">
        <stop stop-color="#E6E6E6" offset="0%"/>
        <stop stop-color="#E6E6E6" offset="100%"/>
    </linearGradient>
    <linearGradient transform="matrix(0.73753 -0.14118 0.34662 0.53919 -162.06 37.265)"  id="2128" x1="-244.41" y1="273.16" x2="-246.62" y2="296.02">
        <stop stop-color="#E6E6E6" offset="0%"/>
        <stop stop-color="#E6E6E6" offset="100%"/>
    </linearGradient>
    <linearGradient transform="matrix(0.37621 -0.3001 0.32524 0.38397 263.79 220.63)"  id="2400" x1="-244.41" y1="273.16" x2="-246.62" y2="296.02">
        <stop stop-color="#E6E6E6" offset="0%"/>
        <stop stop-color="#E6E6E6" offset="100%"/>
    </linearGradient>
    <linearGradient transform="matrix(0.35079 -0.42385 0.30326 0.5423 260.66 331.53)"  id="2670" x1="-244.41" y1="273.16" x2="-246.62" y2="296.02">
        <stop stop-color="#E6E6E6" offset="0%"/>
        <stop stop-color="#E6E6E6" offset="100%"/>
    </linearGradient>
    <linearGradient transform="matrix(0.33319 -0.50392 0.28805 0.64476 256.95 398.5)"  id="2940" x1="-244.41" y1="273.16" x2="-246.62" y2="296.02">
        <stop stop-color="#E6E6E6" offset="0%"/>
        <stop stop-color="#E6E6E6" offset="100%"/>
    </linearGradient>
    <linearGradient transform="matrix(-0.14123 -0.77789 1.1497 -0.12491 -219.13 482.86)"  id="3210" x1="-244.41" y1="273.16" x2="-246.62" y2="296.02">
        <stop stop-color="#E6E6E6" offset="0%"/>
        <stop stop-color="#E6E6E6" offset="100%"/>
    </linearGradient>
    <linearGradient transform="matrix(1 0 0 1 0 0)"  id="3483" x1="136.64" y1="300.93" x2="144.07" y2="375.93">
        <stop stop-color="#FFFFFF" offset="0%"/>
        <stop stop-color="#FFFFFF" offset="100%"/>
    </linearGradient>
    <linearGradient transform="matrix(1 0 0 1 0 0)"  id="3717" x1="292.44" y1="104.33" x2="293.44" y2="134.64">
        <stop stop-color="#FFFFFF" offset="0%"/>
        <stop stop-color="#0000FF" offset="100%"/>
    </linearGradient>
    <linearGradient transform="matrix(1 0 0 1 0 0)"  id="3951" x1="-499.79" y1="250.58" x2="-502.36" y2="277.72">
        <stop stop-color="#FFFFFF" offset="0%"/>
        <stop stop-color="#0000FF" offset="100%"/>
    </linearGradient>
</defs>

<g transform="matrix(0.014784153 0 0 0.014784153 2.2043176 -0)">
	<g transform="matrix(1 0 0 1 526.79 -99.288)">
        <path d="M-311.42 789.53C -269.557 709.81506 -197.64001 605.97003 -156.61002 575.75L-156.61002 575.75L-98.71402 526.079C -53.47302 489.731 3.4259796 504.40097 17.21598 525.03906L17.21598 525.03906L59.92998 515.3437" stroke="#6C6C6C" stroke-width="30" fill="none" />
        <path d="M-296.3 752.04C -231.57999 635.18 -176.79999 591.33997 -101.48999 523.97L-101.48999 523.97L-35.022987 497.15598C 10.218014 460.80798 29.975014 458.33496 43.769012 478.97296L43.769012 478.97296L57.91101 509.27795" stroke="#000000" stroke-width="10" fill="none" stroke-opacity="0" />
		<g transform="matrix(0.54573 0 0 0.63734 -136.44 -93.276)">
            <path transform="matrix(1.3179 0 0 0.98167 -18.222 -43.621)"  d="M303.05 1074.6C 303.05 1114.768 283.603 1147.3309 259.61298 1147.3309C 235.62398 1147.3309 216.17598 1114.768 216.17598 1074.6C 216.17598 1034.432 235.62299 1001.86896 259.61298 1001.86896C 283.602 1001.86896 303.05 1034.432 303.05 1074.6z" stroke="#000000" stroke-width="10" fill="none" />
            <path transform="matrix(1 0 0 1 76.772 -60.609)"  d="M303.05 1074.6C 303.05 1114.768 283.603 1147.3309 259.61298 1147.3309C 235.62398 1147.3309 216.17598 1114.768 216.17598 1074.6C 216.17598 1034.432 235.62299 1001.86896 259.61298 1001.86896C 283.602 1001.86896 303.05 1034.432 303.05 1074.6z" stroke="#000000" stroke-width="10" fill="#000000" fill-rule="nonzero" />
            <path transform="matrix(0.8706 0 0 1 -68.508 56.569)"  d="M501.04 954.38C 501.04 978.369 487.924 997.817 471.746 997.817C 455.56702 997.817 442.452 978.37 442.452 954.38C 442.452 930.391 455.568 910.943 471.746 910.943C 487.925 910.943 501.04 930.39 501.04 954.38z" stroke="#000000" stroke-width="1" fill="#808080" fill-rule="nonzero" />
            <path d="M354.06 980.64C 337.277 960.18604 323.51898 989.8933 320.725 1018.016" stroke="#000000" stroke-width="1" fill="none" stroke-opacity="0" />
		</g>
        <path d="M-2.0203 525.57L12.1217 523.5497L20.2029 510.4177L16.6674 503.85168L37.3754 501.3263L59.5984 545.2683L62.1238 557.8953L56.062897 569.0073L41.415897 566.48193C 41.415897 566.48193 34.344795 553.3499 33.334698 551.32996C 32.324497 549.30963 22.222698 528.6019 22.222698 528.6019L22.222698 528.6019L0.5046978 533.6527L6.565598 543.7547L6.565598 562.9477L-16.162403 527.5927L-10.606604 524.0572L-2.0203 525.57z" stroke="#000000" stroke-width="1" fill="#000080" fill-rule="nonzero" />
        <path d="M200.01 969.53C 210.444 881.24304 253.79199 763.11005 309.11 678.61L309.11 678.61L355.577 626.082C 400.818 589.73395 420.575 587.261 434.369 607.899L434.369 607.899L448.511 638.204" stroke="#6C6C6C" stroke-width="30" fill="none" />
        <path d="M197.99 963.47C 208.42401 875.183 251.772 757.05 307.09 672.5499L307.09 672.5499L353.557 620.0219C 398.798 583.6739 418.555 581.2009 432.349 601.8389L432.349 601.8389L446.491 632.1439" stroke="#000000" stroke-width="10" fill="none" stroke-opacity="0" />
        <path d="M208.09 965.49C 218.53 877.2 261.87 759.07 317.19 674.56995L317.19 674.56995L363.657 622.04193C 408.898 599.83594 412.493 597.3629 426.286 607.8999L426.286 607.8999L446.489 642.2449" stroke="#000000" stroke-width="10" fill="none" stroke-opacity="0.101960786" />
        <path d="M62.857 455.22L-431.433 609.51L157.137 843.79004L408.567 540.93005L62.857 455.22z" stroke="#000000" stroke-width="1" fill="none" />
        <path d="M71.429 195.22C -105.190994 218.22 -243.81099 232.36 -514.29095 263.79L-514.29095 263.79L134.28906 329.51L444.66907 195.57L434.42908 189.92001L71.429 195.22z" stroke="#6C6C6C" stroke-width="25" fill="none" />
        <path d="M71.429 195.22L62.8576 455.22L-428.5724 612.36L-502.8584 266.65L71.429 195.22z" stroke="#6C6C6C" stroke-width="20" fill="none" />
        <path d="M451.43 186.65L402.86 540.93" stroke="#000000" stroke-width="1" fill="none" />
        <path d="M62.857 449.51L-414.293 615.22003L154.28702 843.79004L405.70703 540.93005L62.857 449.51z" stroke="#000000" stroke-width="1" fill="#00FFFF" fill-rule="nonzero" stroke-opacity="0.32941177" fill-opacity="0.1254902" />
        <path d="M158.57 833.79L140 320.93L451.43 186.65L402.859 546.65L158.57 833.79z" stroke="#6C6C6C" stroke-width="20" fill="none" />
        <path d="M57.143 449.51L400.003 540.93L152.86299 848.07996L-409.997 623.79L57.143 449.51z" stroke="#6C6C6C" stroke-width="20" fill="none" />
        <path d="M60 380.93L-434.29 519.51L151.42996 700.93L417.13995 443.78998L60 380.93z" stroke="#6C6C6C" stroke-width="15" fill="none" />
        <path d="M62.857 280.93L-480.003 363.78998L142.857 486.64996L424.287 306.64996L62.857 280.93z" stroke="#6C6C6C" stroke-width="15" fill="none" />
        <path d="M111.43 195.22L102.8586 458.08L-351.4314 643.79L-414.2884 269.49997" stroke="#6C6C6C" stroke-width="8" fill="none" />
        <path d="M388.57 186.65L348.57 523.79004L60 806.65L22.856998 318.08002" stroke="#6C6C6C" stroke-width="12" fill="none" />
        <path d="M160 192.36L142.857 472.36L-260.003 680.93L-302.86 280.93L-302.86 275.2157L-304.28857 288.0727" stroke="#6C6C6C" stroke-width="10" fill="none" />
        <path d="M294.29 192.36L277.14 509.51L-82.859985 746.65L-111.429985 300.93002" stroke="#6C6C6C" stroke-width="12" fill="none" />
        <path d="M222.86 195.22L194.29001 483.79L-177.13998 712.36L-214.28998 295.21997" stroke="#6C6C6C" stroke-width="11" fill="none" />
        <path d="M-28.571 198.08L-17.141998 478.08002L357.148 598.08L382.862 229.51001" stroke="#6C6C6C" stroke-width="11" fill="none" />
        <path d="M-137.14 215.22L-108.569 512.36L308.571 655.22L325.71402 252.35999L319.99973 243.78859L325.71402 238.0743L331.4283 249.5033L325.71402 249.5033L320.00403 246.6433L328.57544 238.0719L322.86115 246.6433L325.71835 243.7861L337.14734 238.07181L334.29013 238.07181" stroke="#6C6C6C" stroke-width="12" fill="none" />
        <path d="M-254.29 235.22L-208.57599 535.22L265.71402 705.22L274.28543 275.21997" stroke="#6C6C6C" stroke-width="12" fill="none" />
        <path d="M-382.86 243.79L-314.289 569.5L215.711 772.36L214.2824 298.06998L222.85379 300.92706L214.2824 309.49847L217.13959 303.78418L211.4253 303.78418" stroke="#6C6C6C" stroke-width="13" fill="none" />
        <path d="M-513.97 256.7L129.66003 318.40402L128.69621 333.98203L-517.2638 265.89203L-513.97 256.7z" stroke="none" fill="url(#1)" />
        <path d="M-478.64 359.18L136.45996 481.61L134.14626 498.46997L-482.64374 368.88995L-478.64 359.18z" stroke="none" fill="url(#257)" />
        <path d="M-478.64 359.18L136.45996 481.61L134.14626 498.46997L-482.64374 368.88995L-478.64 359.18z" stroke="none" fill="none" />
        <path d="M-445.75 515.05L143.78003 692.23L139.82913 708.12L-450.64084 523.94L-445.75 515.05z" stroke="none" fill="url(#529)" />
        <path d="M-440.08 513.62L143.79001 692.77L139.8771 708.836L-444.91287 522.61597L-440.08 513.62z" stroke="none" fill="url(#799)" />
        <path d="M-513.98 256.7L127.640015 320.01703L126.67919 336.002L-517.2708 266.13202L-513.98 256.7z" stroke="none" fill="url(#1069)" />
        <path d="M-428.06 604.83L153.33002 840.06L147.90002 856.19L-433.8 613.62L-428.06 604.83z" stroke="none" fill="url(#1327)" />
        <path d="M-428.06 604.83L153.33002 840.06L147.90002 856.19L-433.8 613.62L-428.06 604.83z" stroke="none" fill="none" />
        <path d="M-428.06 604.83L153.33002 840.06L147.90002 856.19L-433.8 613.62L-428.06 604.83z" stroke="none" fill="none" />
        <path d="M136.68 316.28L456.88998 179.6L461.29318 187.6493L137.9932 321.73932L136.68 316.28z" stroke="none" fill="url(#1598)" />
        <path d="M-513.98 256.7L127.640015 319.211L126.67919 334.992L-517.2708 266.012L-513.98 256.7z" stroke="none" fill="url(#1869)" />
        <path d="M-452.09 248.22L57.070007 191.541L62.236008 200.8481L-451.104 254.1061L-452.09 248.22z" stroke="none" fill="url(#2128)" />
        <path d="M153.95 473.41L423.65997 301.59L428.81888 308.4146L155.93887 478.2746L153.95 473.41z" stroke="none" fill="url(#2400)" />
        <path d="M158.24 688.55L409.73 445.88L414.5403 455.5189L160.10031 695.4189L158.24 688.55z" stroke="none" fill="url(#2670)" />
        <path d="M159.67 822.96L398.53998 534.45L403.10898 545.91003L161.42899 831.13L159.67 822.96z" stroke="none" fill="url(#2940)" />
        <path d="M148.57 850.54L132.975 329.72998L152.662 328.37347L160.5805 851.91345L148.57 850.54z" stroke="none" fill="url(#3210)" />
        <path d="M86.873 195.75L119.198 144.896L143.194 129.32199L463.124 118.22399L477.629 131.59099L452.549 193.72998L454.5693 195.75027L442.4473 197.77057" stroke="#6C6C6C" stroke-width="30" fill="none" />
		<g transform="matrix(1 0 0 1 -129.3 22.223)">
            <path transform="matrix(1.3179 0 0 0.98167 -18.222 -43.621)"  d="M303.05 1074.6C 303.05 1114.768 283.603 1147.3309 259.61298 1147.3309C 235.62398 1147.3309 216.17598 1114.768 216.17598 1074.6C 216.17598 1034.432 235.62299 1001.86896 259.61298 1001.86896C 283.602 1001.86896 303.05 1034.432 303.05 1074.6z" stroke="#000000" stroke-width="10" fill="none" />
            <path transform="matrix(1 0 0 1 76.772 -60.609)"  d="M303.05 1074.6C 303.05 1114.768 283.603 1147.3309 259.61298 1147.3309C 235.62398 1147.3309 216.17598 1114.768 216.17598 1074.6C 216.17598 1034.432 235.62299 1001.86896 259.61298 1001.86896C 283.602 1001.86896 303.05 1034.432 303.05 1074.6z" stroke="#000000" stroke-width="10" fill="#000000" fill-rule="nonzero" />
            <path transform="matrix(0.8706 0 0 1 -68.508 56.569)"  d="M501.04 954.38C 501.04 978.369 487.924 997.817 471.746 997.817C 455.56702 997.817 442.452 978.37 442.452 954.38C 442.452 930.391 455.568 910.943 471.746 910.943C 487.925 910.943 501.04 930.39 501.04 954.38z" stroke="#000000" stroke-width="1" fill="#808080" fill-rule="nonzero" />
            <path d="M354.06 980.64C 337.277 960.18604 323.51898 989.8933 320.725 1018.016" stroke="#000000" stroke-width="1" fill="none" stroke-opacity="0" />
		</g>
		<g transform="matrix(0.75031 0 0 0.72793 227.3 -57.901)">
            <path transform="matrix(1.3179 0 0 0.98167 -18.222 -43.621)"  d="M303.05 1074.6C 303.05 1114.768 283.603 1147.3309 259.61298 1147.3309C 235.62398 1147.3309 216.17598 1114.768 216.17598 1074.6C 216.17598 1034.432 235.62299 1001.86896 259.61298 1001.86896C 283.602 1001.86896 303.05 1034.432 303.05 1074.6z" stroke="#000000" stroke-width="10" fill="none" />
            <path transform="matrix(1 0 0 1 76.772 -60.609)"  d="M303.05 1074.6C 303.05 1114.768 283.603 1147.3309 259.61298 1147.3309C 235.62398 1147.3309 216.17598 1114.768 216.17598 1074.6C 216.17598 1034.432 235.62299 1001.86896 259.61298 1001.86896C 283.602 1001.86896 303.05 1034.432 303.05 1074.6z" stroke="#000000" stroke-width="10" fill="#000000" fill-rule="nonzero" />
            <path transform="matrix(0.8706 0 0 1 -68.508 56.569)"  d="M501.04 954.38C 501.04 978.369 487.924 997.817 471.746 997.817C 455.56702 997.817 442.452 978.37 442.452 954.38C 442.452 930.391 455.568 910.943 471.746 910.943C 487.925 910.943 501.04 930.39 501.04 954.38z" stroke="#000000" stroke-width="1" fill="#808080" fill-rule="nonzero" />
            <path d="M354.06 980.64C 337.277 960.18604 323.51898 989.8933 320.725 1018.016" stroke="#000000" stroke-width="1" fill="none" stroke-opacity="0" />
		</g>
        <path d="M-309.05 776.92C -255.75899 680.062 -189.54999 670.5 -134.23999 586L-134.23999 586L-24.91999 499.186C 20.32101 476.98 23.916008 474.50702 37.70901 485.044L37.70901 485.044L57.91201 519.38904" stroke="#000000" stroke-width="10" fill="none" stroke-opacity="0.101960786" />
		<g transform="matrix(1 0 0 1 -649.3 -192.06)">
            <path transform="matrix(1.3179 0 0 0.98167 -18.222 -43.621)"  d="M303.05 1074.6C 303.05 1114.768 283.603 1147.3309 259.61298 1147.3309C 235.62398 1147.3309 216.17598 1114.768 216.17598 1074.6C 216.17598 1034.432 235.62299 1001.86896 259.61298 1001.86896C 283.602 1001.86896 303.05 1034.432 303.05 1074.6z" stroke="#000000" stroke-width="10" fill="none" />
            <path transform="matrix(1 0 0 1 76.772 -60.609)"  d="M303.05 1074.6C 303.05 1114.768 283.603 1147.3309 259.61298 1147.3309C 235.62398 1147.3309 216.17598 1114.768 216.17598 1074.6C 216.17598 1034.432 235.62299 1001.86896 259.61298 1001.86896C 283.602 1001.86896 303.05 1034.432 303.05 1074.6z" stroke="#000000" stroke-width="10" fill="#000000" fill-rule="nonzero" />
            <path transform="matrix(0.8706 0 0 1 -68.508 56.569)"  d="M501.04 954.38C 501.04 978.369 487.924 997.817 471.746 997.817C 455.56702 997.817 442.452 978.37 442.452 954.38C 442.452 930.391 455.568 910.943 471.746 910.943C 487.925 910.943 501.04 930.39 501.04 954.38z" stroke="#000000" stroke-width="1" fill="#808080" fill-rule="nonzero" />
            <path d="M354.06 980.64C 337.277 960.18604 323.51898 989.8933 320.725 1018.016" stroke="#000000" stroke-width="1" fill="none" stroke-opacity="0" />
		</g>
        <path d="M-335.89 740.32L-293.29303 740.32L-307.49203 824.803L-286.19403 846.605L-268.44504 843.8797L-240.04704 743.0497L-286.19305 726.6977L-364.28705 729.4229L-371.38644 767.5769L-335.89 740.32z" stroke="#000000" stroke-width="1.0886" fill="#0000FF" fill-rule="nonzero" />
        <path d="M102.14 306.65L92.6805 311.5011L87.0331 324.2871L87.08256 334.08472L89.997154 342.36432L122.85416 346.65002L122.85416 386.65002L134.28316 391.65002L152.65416 390.90717L159.99696 380.22116L159.99696 335.22116L182.85396 323.79218L185.71115 312.3632L176.50565 297.9492L162.85364 295.2205L138.66963 309.5065L102.14 306.65z" stroke="#000000" stroke-width="1" fill="#0000FF" fill-rule="nonzero" stroke-opacity="0.3372549" />
        <path d="M102.14 310.93L142.14 313.78708L164.283 300.21606L172.8544 300.21606L178.5687 305.21606L142.1397 326.64508L140.71109 367.35907L136.42538 367.35907L137.13968 326.64508L93.56868 321.64508L95.71158 315.2165L102.14 310.93z" stroke="none" fill="url(#3483)" />
        <path d="M175.27 959.47L224.302 959.47L207.95801 1055.919L232.47401 1080.809L252.90402 1077.6978L285.592 962.57776L232.47401 943.91077L142.58301 947.022L134.4111 990.579L175.27 959.47z" stroke="#000000" stroke-width="1.2479" fill="#0000FF" fill-rule="nonzero" />
        <path d="M156.57 146.26L144.44801 140.1991L142.42772 131.1077L141.41753 124.0366L144.44792 114.9452L152.52911 109.8944L162.63112 108.8842L461.6411 99.7928L470.7325 104.8436L458.6105 104.8436L447.4985 109.894394L444.46802 118.985794L443.45782 127.06699L447.4984 133.1279L457.6004 133.1279L454.57 139.1888L156.57 146.26z" stroke="#000000" stroke-width="1" fill="#0000FF" fill-rule="nonzero" stroke-opacity="0.42352942" />
        <path d="M158.59 113.93L150.50879 117.9706L149.4986 126.051796L437.3886 122.0112L437.3886 111.9092L445.46982 104.838104L158.59 113.93z" stroke="none" fill="url(#3717)" />
        <path d="M240 958.08L228.571 1046.651" stroke="#FFFFFF" stroke-width="4" fill="#FFFFFF" fill-rule="nonzero" fill-opacity="0.49411765" />
        <path d="M-280 743.79L-294.286 823.79" stroke="#FFFFFF" stroke-width="1" fill="none" />
        <path d="M-482.86 294.51L-486.4314 300.2243L-497.1454 300.9386L-508.57437 300.2243L-514.2887 279.5103L-521.4316 275.9389L-525.003 269.5103L-525.003 262.3674L-523.5744 255.2245L-518.5744 248.7959L-476.4314 245.2245L-464.2884 250.9388L-462.1456 260.93878L-472.8596 259.5102L-477.8596 265.93878L-477.1453 273.0817L-472.8596 276.6531L-465.7168 280.9388L-471.4311 285.9388L-486.4311 284.51022L-482.86 294.51z" stroke="#000000" stroke-width="1" fill="#0000FF" fill-rule="nonzero" stroke-opacity="0.45490196" />
        <path d="M-520.71 259.51L-515.71 252.36711L-475.71002 255.9385L-484.99573 262.3671L-487.13864 268.7957L-520.71 259.51z" stroke="none" fill="url(#3951)" />
        <path d="M527.3 314.95L490.935 135.14001L462.651 201.81001L456.5901 238.17502L424.26508 470.515L515.1791 422.028L527.3 314.95z" stroke="none" fill="#FFFFFF" fill-rule="nonzero" />
        <path d="M425.36 624.86L433.2172 629.1457L443.5742 628.4314L451.0742 623.7885L454.28848 617.7171L454.28848 614.1457L452.50278 610.5743L479.64578 607.36L495.00278 660.93097L498.93137 675.217L497.14566 689.146L491.78857 695.5746L485.00287 700.2174L479.28857 698.0746L473.93137 695.5746L469.28857 655.5746L465.36 639.5036L432.146 645.2179L426.4317 656.6469L424.2888 666.28973L410.7088 633.4097L422.4988 619.1297L425.36 624.86z" stroke="#000000" stroke-width="1" fill="#0000FF" fill-rule="nonzero" stroke-opacity="0.5372549" />
        <path d="M479.64 607.01L464.64 626.653L477.14 664.867L481.0686 696.653L484.9972 699.51013L493.92578 692.36725L497.14008 688.43866L499.283 674.50964L479.64 607.01z" stroke="#000000" stroke-width="1" fill="#003F00" fill-rule="nonzero" stroke-opacity="0.23137255" fill-opacity="0.27450982" />
        <path d="M431.79 644.51L421.433 646.2957L426.7901 659.8667L431.79 644.51z" stroke="#000000" stroke-width="1" fill="#000030" fill-rule="nonzero" stroke-opacity="0.16078432" fill-opacity="0.7294118" />
        <path d="M416.43 634.15L458.573 628.4357L416.787 636.65L413.5727 635.9357L416.43 634.15z" stroke="none" fill="#FFFFFF" fill-rule="nonzero" fill-opacity="0.58431375" />
	</g>
</g>
</svg>