<?xml version="1.0" standalone="no"?>
<!DOCTYPE svg PUBLIC "-//W3C//DTD SVG 1.0//EN" "http://www.w3.org/TR/2001/REC-SVG-20010904/DTD/svg10.dtd">
<svg xmlns="http://www.w3.org/2000/svg" xmlns:xlink="http://www.w3.org/1999/xlink" id="body_1" width="16" height="16">

<g transform="matrix(0.07425916 0 0 0.07425916 -0 0.07248585)">
	<g transform="matrix(1 0 0 1 -14.353408 -5.7314916)">
		<g>
			<g transform="matrix(0.09067338 0.03279326 -0.03367499 0.08829923 116.16868 -387.32773)">
                <path d="M1632.0381 3964.5227L2203.5205 3964.5227L2203.5205 4852.536L1632.0381 4852.536z" stroke="#1D1F51" stroke-width="12" stroke-linecap="square" fill="#EEF4D7" fill-rule="nonzero" />
                <path d="M1670.372 4006.0544L2165.1865 4006.0544L2165.1865 4813.9937L1670.372 4813.9937z" stroke="none" fill="#EEF4D7" fill-rule="nonzero" />
                <path d="M1670.372 4006.0552L1670.372 4175.438L1670.372 4644.6104L1670.372 4813.993L2165.1875 4813.993L2165.1875 4644.6104L2165.1875 4175.4375L2165.1875 4006.0547L1995.8292 4006.0547L1670.372 4006.0552zM1828.4625 4039.7964L2007.0968 4039.7964C 2025.4734 4087.94 2079.3503 4125.2495 2128.2932 4141.377L2128.2932 4141.377L2128.2932 4681.661C 2079.3506 4697.789 2025.4735 4735.0986 2007.0969 4783.2417L2007.0969 4783.2417L1828.4626 4783.2417C 1810.0859 4735.0986 1758.3232 4697.789 1709.3806 4681.661L1709.3806 4681.661L1709.3806 4141.377C 1758.3232 4125.249 1810.0859 4087.9397 1828.4626 4039.7961z" stroke="none" fill="#71C837" fill-rule="nonzero" />
                <path d="M2029.8529 4410.0244C 2029.853 4440.9727 2018.9111 4467.3887 1997.0275 4489.272C 1975.1438 4511.1562 1948.728 4522.0977 1917.7798 4522.0977C 1886.8318 4522.0977 1860.4158 4511.1562 1838.5321 4489.272C 1816.6484 4467.3887 1805.7067 4440.9727 1805.7067 4410.0244C 1805.7067 4379.076 1816.6484 4352.66 1838.5321 4330.777C 1860.4158 4308.893 1886.8318 4297.951 1917.7798 4297.951C 1948.728 4297.951 1975.1438 4308.893 1997.0275 4330.777C 2018.9111 4352.66 2029.853 4379.076 2029.8529 4410.0244C 2029.853 4411.3286 2029.8302 4412.6323 2029.7845 4413.9355" stroke="none" fill="#71C837" fill-rule="nonzero" />
			</g>
			<g transform="matrix(0.07084785 0.06412596 -0.06585015 0.06899281 329.3157 -337.583)">
                <path d="M1632.0381 3964.5227L2203.5205 3964.5227L2203.5205 4852.536L1632.0381 4852.536z" stroke="#1D1F51" stroke-width="12" stroke-linecap="square" fill="#EEF4D7" fill-rule="nonzero" />
                <path d="M1670.372 4006.0544L2165.1865 4006.0544L2165.1865 4813.9937L1670.372 4813.9937z" stroke="none" fill="#EEF4D7" fill-rule="nonzero" />
                <path d="M1670.372 4006.0552L1670.372 4175.438L1670.372 4644.6104L1670.372 4813.993L2165.1875 4813.993L2165.1875 4644.6104L2165.1875 4175.4375L2165.1875 4006.0547L1995.8292 4006.0547L1670.372 4006.0552zM1828.4625 4039.7964L2007.0968 4039.7964C 2025.4734 4087.94 2079.3503 4125.2495 2128.2932 4141.377L2128.2932 4141.377L2128.2932 4681.661C 2079.3506 4697.789 2025.4735 4735.0986 2007.0969 4783.2417L2007.0969 4783.2417L1828.4626 4783.2417C 1810.0859 4735.0986 1758.3232 4697.789 1709.3806 4681.661L1709.3806 4681.661L1709.3806 4141.377C 1758.3232 4125.249 1810.0859 4087.9397 1828.4626 4039.7961z" stroke="none" fill="#71C837" fill-rule="nonzero" />
                <path d="M2029.8529 4410.0244C 2029.853 4440.9727 2018.9111 4467.3887 1997.0275 4489.272C 1975.1438 4511.1562 1948.728 4522.0977 1917.7798 4522.0977C 1886.8318 4522.0977 1860.4158 4511.1562 1838.5321 4489.272C 1816.6484 4467.3887 1805.7067 4440.9727 1805.7067 4410.0244C 1805.7067 4379.076 1816.6484 4352.66 1838.5321 4330.777C 1860.4158 4308.893 1886.8318 4297.951 1917.7798 4297.951C 1948.728 4297.951 1975.1438 4308.893 1997.0275 4330.777C 2018.9111 4352.66 2029.853 4379.076 2029.8529 4410.0244C 2029.853 4411.3286 2029.8302 4412.6323 2029.7845 4413.9355" stroke="none" fill="#71C837" fill-rule="nonzero" />
			</g>
			<g transform="matrix(0.0630685 0 0 0.06141714 154.7687 -230.66565)">
                <path d="M1138.0542 5346.572C 1138.0542 5420.1865 1112.0277 5483.02 1059.9746 5535.0728C 1007.9216 5587.126 945.08795 5613.1523 871.4738 5613.1523C 797.8597 5613.1523 735.0261 5587.126 682.973 5535.0728C 630.92 5483.02 604.89343 5420.1865 604.89343 5346.572C 604.89343 5272.958 630.92 5210.124 682.973 5158.071C 735.0261 5106.0176 797.8597 5079.991 871.4738 5079.991C 945.08795 5079.991 1007.9216 5106.0176 1059.9746 5158.071C 1112.0277 5210.124 1138.0542 5272.958 1138.0542 5346.572C 1138.0542 5349.674 1138.0001 5352.7754 1137.8918 5355.8755" stroke="#1D1F51" stroke-width="11.868722" stroke-linecap="square" fill="#FEBD01" fill-rule="nonzero" />
                <path d="M661.7105 5301.726C 654.2733 5323.6973 650.4473 5346.729 650.3814 5369.925C 650.3813 5426.8413 672.9914 5481.4272 713.2378 5521.674C 753.48413 5561.92 808.0699 5584.5303 864.9869 5584.531C 966.1887 5584.481 1053.6025 5513.738 1074.7502 5414.7705C 1045.4609 5502.161 963.6417 5561.091 871.47375 5561.178C 814.55676 5561.1777 759.971 5538.5674 719.7246 5498.3213C 679.4783 5458.0747 656.86816 5403.489 656.8683 5346.5723C 656.9026 5331.495 658.52563 5316.464 661.7105 5301.7266L661.7105 5301.7266L661.7105 5301.726z" stroke="none" fill="#936D01" fill-rule="nonzero" fill-opacity="0.36862746" />
                <path d="M1086.0793 5346.572C 1086.0793 5405.834 1065.1272 5456.417 1023.22284 5498.321C 981.31854 5540.2256 930.73553 5561.1777 871.4738 5561.1772C 812.21216 5561.1777 761.62915 5540.2256 719.7248 5498.321C 677.82043 5456.417 656.8683 5405.834 656.8683 5346.572C 656.8683 5287.3105 677.82043 5236.7275 719.7248 5194.8228C 761.62915 5152.919 812.21216 5131.967 871.4738 5131.9663C 930.73553 5131.967 981.31854 5152.919 1023.22284 5194.8228C 1065.1272 5236.7275 1086.0793 5287.3105 1086.0793 5346.572C 1086.0793 5349.0693 1086.0358 5351.566 1085.9486 5354.0615" stroke="#1D1F51" stroke-width="11.86855" stroke-linecap="square" fill="#FEBD01" fill-rule="nonzero" />
				<text x="755.8003" y="5443.979" style="fill:#E2A801;font-family:ABeeZee;" font-size="327.55618">

				</text>
				<text x="755.8003" y="5443.979" style="fill:#E2A801;font-family:ABeeZee;" font-size="327.55618">
$
				</text>
				<text x="764.97424" y="5434.805" style="fill:#FFF6D5;font-family:ABeeZee;" font-size="327.55618">

				</text>
				<text x="764.97424" y="5434.805" style="fill:#FFF6D5;font-family:ABeeZee;" font-size="327.55618">
$
				</text>
                <path d="M871.4737 5131.9663C 770.6478 5132.032 683.464 5202.278 661.9512 5300.782C 694.46906 5219.2725 773.33777 5165.7734 861.0946 5165.6978C 979.61786 5165.6978 1075.7 5261.78 1075.7 5380.303C 1075.6534 5395.704 1073.9493 5411.055 1070.6171 5426.092C 1080.7728 5400.8066 1086.0203 5373.819 1086.0791 5346.571C 1086.0791 5228.0474 989.99695 5131.9653 871.4737 5131.9653L871.4737 5131.9653L871.4737 5131.9663z" stroke="none" fill="#FFF6D5" fill-rule="nonzero" fill-opacity="0.32941177" />
                <path d="M1086.0793 5346.572C 1086.0793 5405.834 1065.1272 5456.417 1023.22284 5498.321C 981.31854 5540.2256 930.73553 5561.1777 871.4738 5561.1772C 812.21216 5561.1777 761.62915 5540.2256 719.7248 5498.321C 677.82043 5456.417 656.8683 5405.834 656.8683 5346.572C 656.8683 5287.3105 677.82043 5236.7275 719.7248 5194.8228C 761.62915 5152.919 812.21216 5131.967 871.4738 5131.9663C 930.73553 5131.967 981.31854 5152.919 1023.22284 5194.8228C 1065.1272 5236.7275 1086.0793 5287.3105 1086.0793 5346.572C 1086.0793 5349.0693 1086.0358 5351.566 1085.9486 5354.0615" stroke="#1D1F51" stroke-width="6.2764263" stroke-linecap="square" fill="none" />
                <path d="M871.47375 5079.9917C 749.51086 5080.1484 643.20844 5163.0557 613.34924 5281.307C 650.7309 5174.4976 751.4729 5102.928 864.63477 5102.7886C 935.33636 5102.7886 1003.14215 5130.8745 1053.1357 5180.868C 1103.1294 5230.862 1131.2155 5298.6675 1131.2155 5369.369C 1131.1034 5391.39 1128.2633 5413.312 1122.76 5434.634C 1132.7778 5406.3496 1137.9487 5376.577 1138.0544 5346.572C 1138.0542 5199.3438 1018.70197 5079.9917 871.47375 5079.9917z" stroke="none" fill="#FED048" fill-rule="nonzero" />
                <path d="M1138.0542 5346.572C 1138.0542 5420.1865 1112.0277 5483.02 1059.9746 5535.0728C 1007.9216 5587.126 945.08795 5613.1523 871.4738 5613.1523C 797.8597 5613.1523 735.0261 5587.126 682.973 5535.0728C 630.92 5483.02 604.89343 5420.1865 604.89343 5346.572C 604.89343 5272.958 630.92 5210.124 682.973 5158.071C 735.0261 5106.0176 797.8597 5079.991 871.4738 5079.991C 945.08795 5079.991 1007.9216 5106.0176 1059.9746 5158.071C 1112.0277 5210.124 1138.0542 5272.958 1138.0542 5346.572C 1138.0542 5349.674 1138.0001 5352.7754 1137.8918 5355.8755" stroke="#1D1F51" stroke-width="11.868722" stroke-linecap="square" fill="none" />
			</g>
			<g transform="matrix(0.0947366 -0.01899933 0.01951018 0.09225605 -157.00443 -317.58917)">
                <path d="M1632.0381 3964.5227L2203.5205 3964.5227L2203.5205 4852.536L1632.0381 4852.536z" stroke="#1D1F51" stroke-width="12" stroke-linecap="square" fill="#EEF4D7" fill-rule="nonzero" />
                <path d="M1670.372 4006.0544L2165.1865 4006.0544L2165.1865 4813.9937L1670.372 4813.9937z" stroke="none" fill="#EEF4D7" fill-rule="nonzero" />
                <path d="M1670.372 4006.0552L1670.372 4175.438L1670.372 4644.6104L1670.372 4813.993L2165.1875 4813.993L2165.1875 4644.6104L2165.1875 4175.4375L2165.1875 4006.0547L1995.8292 4006.0547L1670.372 4006.0552zM1828.4625 4039.7964L2007.0968 4039.7964C 2025.4734 4087.94 2079.3503 4125.2495 2128.2932 4141.377L2128.2932 4141.377L2128.2932 4681.661C 2079.3506 4697.789 2025.4735 4735.0986 2007.0969 4783.2417L2007.0969 4783.2417L1828.4626 4783.2417C 1810.0859 4735.0986 1758.3232 4697.789 1709.3806 4681.661L1709.3806 4681.661L1709.3806 4141.377C 1758.3232 4125.249 1810.0859 4087.9397 1828.4626 4039.7961z" stroke="none" fill="#71C837" fill-rule="nonzero" />
                <path d="M2029.8529 4410.0244C 2029.853 4440.9727 2018.9111 4467.3887 1997.0275 4489.272C 1975.1438 4511.1562 1948.728 4522.0977 1917.7798 4522.0977C 1886.8318 4522.0977 1860.4158 4511.1562 1838.5321 4489.272C 1816.6484 4467.3887 1805.7067 4440.9727 1805.7067 4410.0244C 1805.7067 4379.076 1816.6484 4352.66 1838.5321 4330.777C 1860.4158 4308.893 1886.8318 4297.951 1917.7798 4297.951C 1948.728 4297.951 1975.1438 4308.893 1997.0275 4330.777C 2018.9111 4352.66 2029.853 4379.076 2029.8529 4410.0244C 2029.853 4411.3286 2029.8302 4412.6323 2029.7845 4413.9355" stroke="none" fill="#71C837" fill-rule="nonzero" />
			</g>
			<g transform="matrix(0.04218694 -0.0115171 0.01182676 0.04108234 153.43114 -373.08777)">
                <path transform="matrix(0.9059442 -0.42339706 0.42339706 0.9059442 0 0)"  d="M-9884.027 6687.3716C -9884.027 6631.95 -9839.1 6587.0225 -9783.678 6587.0225L-9783.678 6587.0225L-7250.607 6587.0225C -7195.1855 6587.0225 -7150.258 6631.95 -7150.258 6687.3716L-7150.258 6687.3716L-7150.258 9738.421C -7150.258 9793.842 -7195.1855 9838.77 -7250.607 9838.77L-7250.607 9838.77L-9783.678 9838.77C -9839.1 9838.77 -9884.027 9793.842 -9884.027 9738.421L-9884.027 9738.421L-9884.027 6687.3716z" stroke="#1D1F51" stroke-width="38.898563" stroke-linecap="square" fill="#3796C8" fill-rule="nonzero" />
                <path transform="matrix(0.9059442 -0.42339706 0.42339706 0.9059442 0 0)"  d="M-9747.654 6839.572C -9747.654 6789.6797 -9707.209 6749.2344 -9657.316 6749.2344L-9657.316 6749.2344L-7376.967 6749.2344C -7327.0747 6749.2344 -7286.6294 6789.6797 -7286.6294 6839.572L-7286.6294 6839.572L-7286.6294 9586.222C -7286.6294 9636.113 -7327.0747 9676.559 -7376.967 9676.559L-7376.967 9676.559L-9657.316 9676.559C -9707.209 9676.559 -9747.654 9636.113 -9747.654 9586.222L-9747.654 9586.222L-9747.654 6839.572z" stroke="#1D1F51" stroke-width="25.932377" stroke-linecap="square" stroke-dasharray="77.79713,77.79713" fill="none" />
                <path d="M-4066.7773 10582C -4263.3687 10673.879 -4347.669 10906.11 -4255.791 11102.703C -4163.913 11299.293 -3931.6812 11383.589 -3735.0896 11291.714L-3735.0896 11291.714L-3245.898 11063.088L-3016.1545 10955.715L-2802.3604 10855.797L-3134.0483 10146.083L-3347.8423 10246.001L-3577.586 10353.374L-4066.7773 10582z" stroke="#241C1C" stroke-width="30.475979" stroke-linecap="square" fill="#241F1C" fill-rule="nonzero" fill-opacity="0.23921569" />
                <path transform="matrix(0.9059442 -0.42339706 0.42339706 0.9059442 0 0)"  d="M-9747.654 6866.661C -9747.654 6816.769 -9707.209 6776.3237 -9657.316 6776.3237L-9657.316 6776.3237L-7376.967 6776.3237C -7327.0747 6776.3237 -7286.6294 6816.769 -7286.6294 6866.661L-7286.6294 6866.661L-7286.6294 9613.311C -7286.6294 9663.203 -7327.0747 9703.648 -7376.967 9703.648L-7376.967 9703.648L-9657.316 9703.648C -9707.209 9703.648 -9747.654 9663.203 -9747.654 9613.311L-9747.654 9613.311L-9747.654 6866.661z" stroke="#241C1C" stroke-width="31.439383" stroke-linecap="square" stroke-dasharray="94.31815,94.31815" fill="none" />
                <path d="M-3123.7942 10036.629C -3059.9666 10006.801 -2984.5647 10034.169 -2954.734 10097.998L-2954.734 10097.998L-2842.736 10337.639L-2730.7383 10577.283C -2700.9075 10641.112 -2728.2788 10716.515 -2792.1067 10746.342L-2792.1067 10746.342L-3031.758 10858.344L-3261.5005 10965.717L-3750.6936 11194.344C -3947.2852 11286.219 -4179.515 11201.919 -4271.3936 11005.329C -4363.2715 10808.736 -4278.9727 10576.508 -4082.3813 10484.63L-4082.3813 10484.63L-3593.188 10256.003L-3363.4458 10148.63L-3123.7942 10036.629z" stroke="#1D1F51" stroke-width="38.898563" stroke-linecap="square" fill="#5AA8D2" fill-rule="nonzero" />
                <path transform="matrix(0.9059442 -0.42339706 0.42339706 0.9059442 0 0)"  d="M-8315.341 8188.5605C -8315.341 8079.923 -8226.262 7991.855 -8116.3774 7991.855C -8006.493 7991.855 -7917.414 8079.923 -7917.414 8188.5605C -7917.414 8297.198 -8006.493 8385.267 -8116.3774 8385.267C -8226.262 8385.267 -8315.341 8297.198 -8315.341 8188.5605" stroke="#241C1C" stroke-width="18.04814" stroke-linecap="square" fill="#241F1C" fill-rule="nonzero" fill-opacity="0.34117648" />
                <path transform="matrix(0.9059442 -0.42339706 0.42339706 0.9059442 0 0)"  d="M-7897.5894 8144.5366C -7897.5894 8202.148 -7917.958 8251.323 -7958.696 8292.061C -7999.4336 8332.798 -8048.608 8353.166 -8106.219 8353.166C -8163.831 8353.166 -8213.006 8332.798 -8253.743 8292.061C -8294.48 8251.323 -8314.849 8202.148 -8314.849 8144.5366C -8314.849 8086.9253 -8294.48 8037.751 -8253.743 7997.013C -8213.006 7956.2754 -8163.831 7935.9067 -8106.219 7935.9067C -8048.608 7935.9067 -7999.4336 7956.2754 -7958.696 7997.013C -7917.958 8037.751 -7897.5894 8086.9253 -7897.5894 8144.5366C -7897.5894 8146.965 -7897.632 8149.3916 -7897.717 8151.818" stroke="#1D1F51" stroke-width="19.03329" stroke-linecap="square" fill="#C8C4B7" fill-rule="nonzero" />
                <path transform="matrix(0.9059442 -0.42339706 0.42339706 0.9059442 0 0)"  d="M-7952.759 8144.5366C -7952.759 8186.9136 -7967.7417 8223.084 -7997.7065 8253.05C -8027.672 8283.015 -8063.843 8297.997 -8106.219 8297.997C -8148.5967 8297.997 -8184.7676 8283.015 -8214.732 8253.05C -8244.697 8223.084 -8259.68 8186.9136 -8259.68 8144.5366C -8259.68 8102.16 -8244.697 8065.9893 -8214.732 8036.024C -8184.7676 8006.059 -8148.5967 7991.076 -8106.219 7991.076C -8063.843 7991.076 -8027.672 8006.059 -7997.7065 8036.024C -7967.7417 8065.9893 -7952.759 8102.16 -7952.759 8144.5366C -7952.759 8146.3228 -7952.79 8148.108 -7952.8525 8149.892" stroke="#1D1F51" stroke-width="14.0001745" stroke-linecap="square" fill="#E3E2DB" fill-rule="nonzero" />
                <path d="M-3145.6057 10139.788C -3088.8848 10113.279 -3024.212 10132.608 -3000.6013 10183.131L-3000.6013 10183.131L-2911.9558 10372.804L-2823.3103 10562.4795C -2799.6995 10612.998 -2826.3564 10675.013 -2883.0776 10701.522L-2883.0776 10701.522L-3096.0447 10801.054L-3300.2068 10896.469L-3734.9304 11099.64C -3909.6326 11181.288 -4108.819 11121.75 -4181.5396 10966.148C -4254.2603 10810.549 -4172.1606 10619.554 -3997.459 10537.904L-3997.459 10537.904L-3562.735 10334.734L-3358.5735 10239.319L-3145.6057 10139.788z" stroke="#1D1F51" stroke-width="25.55924" stroke-linecap="square" stroke-dasharray="102.237,102.237" fill="none" />
                <path d="M-6122.903 10157.954C -6135.1626 10183.971 -6136.1484 10215.044 -6122.964 10243.255L-6122.964 10243.255L-4831.16 13007.332C -4807.622 13057.696 -4748.126 13079.291 -4697.761 13055.754L-4697.761 13055.754L-2402.9392 11983.259C -2352.575 11959.723 -2330.9778 11900.224 -2354.516 11849.859L-2354.516 11849.859L-2358.9307 11840.413C -2368.5352 11852.926 -2381.2205 11863.405 -2396.5735 11870.582L-2396.5735 11870.582L-4706.473 12950.124C -4757.1685 12973.817 -4816.9297 12952.348 -4840.4673 12901.984L-4840.4673 12901.984L-6122.903 10157.954z" stroke="#241C1C" stroke-width="30.475979" stroke-linecap="square" fill="#241F1C" fill-rule="nonzero" fill-opacity="0.3019608" />
                <path d="M-6041.717 10164.372L-3709.2344 9097.972C -3745.532 9082.633 -3779.3513 9053.219 -3824.2188 9086.552L-3824.2188 9086.552L-6013.534 10086.043C -6041.381 10116.896 -6053.676 10143.753 -6041.7163 10164.372L-6041.7163 10164.372L-6041.717 10164.372z" stroke="none" fill="#F4D7D7" fill-rule="nonzero" fill-opacity="0.26666668" />
                <path d="M-3766.613 10727.536C -3743.841 10800.743 -3778.5923 10879.525 -3848.0105 10912.067C -3917.5046 10944.447 -4000.2341 10920.571 -4041.788 10856.142C -4039.7815 10862.794 -4037.3254 10869.302 -4034.437 10875.62C -3998.5513 10952.4 -3907.218 10985.553 -3830.437 10949.669C -3753.6545 10913.785 -3720.4995 10822.451 -3756.3828 10745.669C -3759.3784 10739.4 -3762.7961 10733.342 -3766.6128 10727.536L-3766.6128 10727.536L-3766.613 10727.536z" stroke="#241C1C" stroke-width="14.0001745" stroke-linecap="square" fill="#241C1C" fill-rule="nonzero" fill-opacity="0.18039216" />
                <path d="M-3765.962 10768.778C -3803.208 10711.025 -3877.3623 10689.624 -3939.6528 10718.648C -4001.8748 10747.816 -4033.0237 10818.431 -4012.6133 10884.049C -4016.033 10878.845 -4019.0955 10873.414 -4021.779 10867.795C -4053.9407 10798.974 -4024.224 10717.11 -3955.404 10684.946C -3922.3545 10669.5 -3884.5225 10667.815 -3850.2305 10680.263C -3815.9385 10692.71 -3787.996 10718.2705 -3772.5498 10751.32C -3769.9612 10756.984 -3767.7603 10762.817 -3765.962 10768.779L-3765.962 10768.779L-3765.962 10768.778z" stroke="none" fill="#FFFFFF" fill-rule="nonzero" fill-opacity="0.58431375" />
                <path transform="matrix(0.9920413 -0.12591295 0.12591295 0.9920413 0 0)"  d="M-5269.772 10051.982C -5269.772 10044.488 -5260.0337 10038.413 -5248.0215 10038.413C -5236.0093 10038.413 -5226.271 10044.488 -5226.271 10051.982C -5226.271 10059.477 -5236.0093 10065.552 -5248.0215 10065.552C -5260.0337 10065.552 -5269.772 10059.477 -5269.772 10051.982" stroke="none" fill="#FFFFFF" fill-rule="nonzero" fill-opacity="0.58431375" />
			</g>
			<g transform="matrix(0.0630685 0 0 0.06141714 134.66547 -261.19897)">
                <path d="M1138.0542 5346.572C 1138.0542 5420.1865 1112.0277 5483.02 1059.9746 5535.0728C 1007.9216 5587.126 945.08795 5613.1523 871.4738 5613.1523C 797.8597 5613.1523 735.0261 5587.126 682.973 5535.0728C 630.92 5483.02 604.89343 5420.1865 604.89343 5346.572C 604.89343 5272.958 630.92 5210.124 682.973 5158.071C 735.0261 5106.0176 797.8597 5079.991 871.4738 5079.991C 945.08795 5079.991 1007.9216 5106.0176 1059.9746 5158.071C 1112.0277 5210.124 1138.0542 5272.958 1138.0542 5346.572C 1138.0542 5349.674 1138.0001 5352.7754 1137.8918 5355.8755" stroke="#1D1F51" stroke-width="11.868722" stroke-linecap="square" fill="#FEBD01" fill-rule="nonzero" />
                <path d="M661.7105 5301.726C 654.2733 5323.6973 650.4473 5346.729 650.3814 5369.925C 650.3813 5426.8413 672.9914 5481.4272 713.2378 5521.674C 753.48413 5561.92 808.0699 5584.5303 864.9869 5584.531C 966.1887 5584.481 1053.6025 5513.738 1074.7502 5414.7705C 1045.4609 5502.161 963.6417 5561.091 871.47375 5561.178C 814.55676 5561.1777 759.971 5538.5674 719.7246 5498.3213C 679.4783 5458.0747 656.86816 5403.489 656.8683 5346.5723C 656.9026 5331.495 658.52563 5316.464 661.7105 5301.7266L661.7105 5301.7266L661.7105 5301.726z" stroke="none" fill="#936D01" fill-rule="nonzero" fill-opacity="0.36862746" />
                <path d="M1086.0793 5346.572C 1086.0793 5405.834 1065.1272 5456.417 1023.22284 5498.321C 981.31854 5540.2256 930.73553 5561.1777 871.4738 5561.1772C 812.21216 5561.1777 761.62915 5540.2256 719.7248 5498.321C 677.82043 5456.417 656.8683 5405.834 656.8683 5346.572C 656.8683 5287.3105 677.82043 5236.7275 719.7248 5194.8228C 761.62915 5152.919 812.21216 5131.967 871.4738 5131.9663C 930.73553 5131.967 981.31854 5152.919 1023.22284 5194.8228C 1065.1272 5236.7275 1086.0793 5287.3105 1086.0793 5346.572C 1086.0793 5349.0693 1086.0358 5351.566 1085.9486 5354.0615" stroke="#1D1F51" stroke-width="11.86855" stroke-linecap="square" fill="#FEBD01" fill-rule="nonzero" />
				<text x="755.8003" y="5443.979" style="fill:#E2A801;font-family:ABeeZee;" font-size="327.55618">

				</text>
				<text x="755.8003" y="5443.979" style="fill:#E2A801;font-family:ABeeZee;" font-size="327.55618">
$
				</text>
				<text x="764.97424" y="5434.805" style="fill:#FFF6D5;font-family:ABeeZee;" font-size="327.55618">

				</text>
				<text x="764.97424" y="5434.805" style="fill:#FFF6D5;font-family:ABeeZee;" font-size="327.55618">
$
				</text>
                <path d="M871.4737 5131.9663C 770.6478 5132.032 683.464 5202.278 661.9512 5300.782C 694.46906 5219.2725 773.33777 5165.7734 861.0946 5165.6978C 979.61786 5165.6978 1075.7 5261.78 1075.7 5380.303C 1075.6534 5395.704 1073.9493 5411.055 1070.6171 5426.092C 1080.7728 5400.8066 1086.0203 5373.819 1086.0791 5346.571C 1086.0791 5228.0474 989.99695 5131.9653 871.4737 5131.9653L871.4737 5131.9653L871.4737 5131.9663z" stroke="none" fill="#FFF6D5" fill-rule="nonzero" fill-opacity="0.32941177" />
                <path d="M1086.0793 5346.572C 1086.0793 5405.834 1065.1272 5456.417 1023.22284 5498.321C 981.31854 5540.2256 930.73553 5561.1777 871.4738 5561.1772C 812.21216 5561.1777 761.62915 5540.2256 719.7248 5498.321C 677.82043 5456.417 656.8683 5405.834 656.8683 5346.572C 656.8683 5287.3105 677.82043 5236.7275 719.7248 5194.8228C 761.62915 5152.919 812.21216 5131.967 871.4738 5131.9663C 930.73553 5131.967 981.31854 5152.919 1023.22284 5194.8228C 1065.1272 5236.7275 1086.0793 5287.3105 1086.0793 5346.572C 1086.0793 5349.0693 1086.0358 5351.566 1085.9486 5354.0615" stroke="#1D1F51" stroke-width="6.2764263" stroke-linecap="square" fill="none" />
                <path d="M871.47375 5079.9917C 749.51086 5080.1484 643.20844 5163.0557 613.34924 5281.307C 650.7309 5174.4976 751.4729 5102.928 864.63477 5102.7886C 935.33636 5102.7886 1003.14215 5130.8745 1053.1357 5180.868C 1103.1294 5230.862 1131.2155 5298.6675 1131.2155 5369.369C 1131.1034 5391.39 1128.2633 5413.312 1122.76 5434.634C 1132.7778 5406.3496 1137.9487 5376.577 1138.0544 5346.572C 1138.0542 5199.3438 1018.70197 5079.9917 871.47375 5079.9917z" stroke="none" fill="#FED048" fill-rule="nonzero" />
                <path d="M1138.0542 5346.572C 1138.0542 5420.1865 1112.0277 5483.02 1059.9746 5535.0728C 1007.9216 5587.126 945.08795 5613.1523 871.4738 5613.1523C 797.8597 5613.1523 735.0261 5587.126 682.973 5535.0728C 630.92 5483.02 604.89343 5420.1865 604.89343 5346.572C 604.89343 5272.958 630.92 5210.124 682.973 5158.071C 735.0261 5106.0176 797.8597 5079.991 871.4738 5079.991C 945.08795 5079.991 1007.9216 5106.0176 1059.9746 5158.071C 1112.0277 5210.124 1138.0542 5272.958 1138.0542 5346.572C 1138.0542 5349.674 1138.0001 5352.7754 1137.8918 5355.8755" stroke="#1D1F51" stroke-width="11.868722" stroke-linecap="square" fill="none" />
			</g>
			<g transform="matrix(0.0630685 0 0 0.06141714 157.6654 -258.72736)">
                <path d="M1138.0542 5346.572C 1138.0542 5420.1865 1112.0277 5483.02 1059.9746 5535.0728C 1007.9216 5587.126 945.08795 5613.1523 871.4738 5613.1523C 797.8597 5613.1523 735.0261 5587.126 682.973 5535.0728C 630.92 5483.02 604.89343 5420.1865 604.89343 5346.572C 604.89343 5272.958 630.92 5210.124 682.973 5158.071C 735.0261 5106.0176 797.8597 5079.991 871.4738 5079.991C 945.08795 5079.991 1007.9216 5106.0176 1059.9746 5158.071C 1112.0277 5210.124 1138.0542 5272.958 1138.0542 5346.572C 1138.0542 5349.674 1138.0001 5352.7754 1137.8918 5355.8755" stroke="#1D1F51" stroke-width="11.868722" stroke-linecap="square" fill="#FEBD01" fill-rule="nonzero" />
                <path d="M661.7105 5301.726C 654.2733 5323.6973 650.4473 5346.729 650.3814 5369.925C 650.3813 5426.8413 672.9914 5481.4272 713.2378 5521.674C 753.48413 5561.92 808.0699 5584.5303 864.9869 5584.531C 966.1887 5584.481 1053.6025 5513.738 1074.7502 5414.7705C 1045.4609 5502.161 963.6417 5561.091 871.47375 5561.178C 814.55676 5561.1777 759.971 5538.5674 719.7246 5498.3213C 679.4783 5458.0747 656.86816 5403.489 656.8683 5346.5723C 656.9026 5331.495 658.52563 5316.464 661.7105 5301.7266L661.7105 5301.7266L661.7105 5301.726z" stroke="none" fill="#936D01" fill-rule="nonzero" fill-opacity="0.36862746" />
                <path d="M1086.0793 5346.572C 1086.0793 5405.834 1065.1272 5456.417 1023.22284 5498.321C 981.31854 5540.2256 930.73553 5561.1777 871.4738 5561.1772C 812.21216 5561.1777 761.62915 5540.2256 719.7248 5498.321C 677.82043 5456.417 656.8683 5405.834 656.8683 5346.572C 656.8683 5287.3105 677.82043 5236.7275 719.7248 5194.8228C 761.62915 5152.919 812.21216 5131.967 871.4738 5131.9663C 930.73553 5131.967 981.31854 5152.919 1023.22284 5194.8228C 1065.1272 5236.7275 1086.0793 5287.3105 1086.0793 5346.572C 1086.0793 5349.0693 1086.0358 5351.566 1085.9486 5354.0615" stroke="#1D1F51" stroke-width="11.86855" stroke-linecap="square" fill="#FEBD01" fill-rule="nonzero" />
				<text x="755.8003" y="5443.979" style="fill:#E2A801;font-family:ABeeZee;" font-size="327.55618">

				</text>
				<text x="755.8003" y="5443.979" style="fill:#E2A801;font-family:ABeeZee;" font-size="327.55618">
$
				</text>
				<text x="764.97424" y="5434.805" style="fill:#FFF6D5;font-family:ABeeZee;" font-size="327.55618">

				</text>
				<text x="764.97424" y="5434.805" style="fill:#FFF6D5;font-family:ABeeZee;" font-size="327.55618">
$
				</text>
                <path d="M871.4737 5131.9663C 770.6478 5132.032 683.464 5202.278 661.9512 5300.782C 694.46906 5219.2725 773.33777 5165.7734 861.0946 5165.6978C 979.61786 5165.6978 1075.7 5261.78 1075.7 5380.303C 1075.6534 5395.704 1073.9493 5411.055 1070.6171 5426.092C 1080.7728 5400.8066 1086.0203 5373.819 1086.0791 5346.571C 1086.0791 5228.0474 989.99695 5131.9653 871.4737 5131.9653L871.4737 5131.9653L871.4737 5131.9663z" stroke="none" fill="#FFF6D5" fill-rule="nonzero" fill-opacity="0.32941177" />
                <path d="M1086.0793 5346.572C 1086.0793 5405.834 1065.1272 5456.417 1023.22284 5498.321C 981.31854 5540.2256 930.73553 5561.1777 871.4738 5561.1772C 812.21216 5561.1777 761.62915 5540.2256 719.7248 5498.321C 677.82043 5456.417 656.8683 5405.834 656.8683 5346.572C 656.8683 5287.3105 677.82043 5236.7275 719.7248 5194.8228C 761.62915 5152.919 812.21216 5131.967 871.4738 5131.9663C 930.73553 5131.967 981.31854 5152.919 1023.22284 5194.8228C 1065.1272 5236.7275 1086.0793 5287.3105 1086.0793 5346.572C 1086.0793 5349.0693 1086.0358 5351.566 1085.9486 5354.0615" stroke="#1D1F51" stroke-width="6.2764263" stroke-linecap="square" fill="none" />
                <path d="M871.47375 5079.9917C 749.51086 5080.1484 643.20844 5163.0557 613.34924 5281.307C 650.7309 5174.4976 751.4729 5102.928 864.63477 5102.7886C 935.33636 5102.7886 1003.14215 5130.8745 1053.1357 5180.868C 1103.1294 5230.862 1131.2155 5298.6675 1131.2155 5369.369C 1131.1034 5391.39 1128.2633 5413.312 1122.76 5434.634C 1132.7778 5406.3496 1137.9487 5376.577 1138.0544 5346.572C 1138.0542 5199.3438 1018.70197 5079.9917 871.47375 5079.9917z" stroke="none" fill="#FED048" fill-rule="nonzero" />
                <path d="M1138.0542 5346.572C 1138.0542 5420.1865 1112.0277 5483.02 1059.9746 5535.0728C 1007.9216 5587.126 945.08795 5613.1523 871.4738 5613.1523C 797.8597 5613.1523 735.0261 5587.126 682.973 5535.0728C 630.92 5483.02 604.89343 5420.1865 604.89343 5346.572C 604.89343 5272.958 630.92 5210.124 682.973 5158.071C 735.0261 5106.0176 797.8597 5079.991 871.4738 5079.991C 945.08795 5079.991 1007.9216 5106.0176 1059.9746 5158.071C 1112.0277 5210.124 1138.0542 5272.958 1138.0542 5346.572C 1138.0542 5349.674 1138.0001 5352.7754 1137.8918 5355.8755" stroke="#1D1F51" stroke-width="11.868722" stroke-linecap="square" fill="none" />
			</g>
		</g>
	</g>
</g>
</svg>