<?xml version="1.0" standalone="no"?>
<!DOCTYPE svg PUBLIC "-//W3C//DTD SVG 1.0//EN" "http://www.w3.org/TR/2001/REC-SVG-20010904/DTD/svg10.dtd">
<svg xmlns="http://www.w3.org/2000/svg" xmlns:xlink="http://www.w3.org/1999/xlink" id="body_1" width="82" height="61">

<defs>
        <clipPath  id="1">

            <path clip-rule="evenodd" d="M0 0L179 0L179 175L0 175L0 0z" />        </clipPath>
</defs>

<g transform="matrix(0.34857142 0 0 0.34857142 9.8028555 -0)">
	<g clip-path="url(#1)" >
        <path d="M0 0L179.16 0L179.16 175.5L0 175.5L0 0z" stroke="none" fill="none" />
        <path d="M10.388 24.926C 10.388 15.825601 17.765299 8.448 26.866001 8.448L26.866001 8.448L92.77701 8.448C 97.14721 8.448 101.33831 10.184 104.42801 13.2742C 107.51821 16.3644 109.25421 20.5555 109.25421 24.925201L109.25421 24.925201L109.25421 124.127205C 109.25421 133.2276 101.876915 140.60521 92.776215 140.60521L92.776215 140.60521L51.582214 140.60521L19.776215 165.77621L26.865614 140.60521C 17.765213 140.60521 10.387613 133.2279 10.387613 124.12721L10.387613 124.12721L10.387613 85.539215L10.388 24.926z" stroke="none" fill="#E69138" fill-rule="nonzero" />
        <path d="M10.388 24.926C 10.388 15.825601 17.765299 8.448 26.866001 8.448L26.866001 8.448L92.77701 8.448C 97.14721 8.448 101.33831 10.184 104.42801 13.2742C 107.51821 16.3644 109.25421 20.5555 109.25421 24.925201L109.25421 24.925201L109.25421 124.127205C 109.25421 133.2276 101.876915 140.60521 92.776215 140.60521L92.776215 140.60521L51.582214 140.60521L19.776215 165.77621L26.865614 140.60521C 17.765213 140.60521 10.387613 133.2279 10.387613 124.12721L10.387613 124.12721L10.387613 85.539215L10.388 24.926z" stroke="#000000" stroke-width="8" fill="none" />
        <path d="M170.42 167.52L143.183 148.192C 118.606995 159.961 89.022995 151.3172 74.836 128.222C 60.649002 105.1268 66.5034 75.139 88.36 58.943C 110.2166 42.747 140.923 45.642002 159.29901 65.6326C 177.67502 85.6226 177.70801 116.1656 159.37347 136.1936L159.37347 136.1936L170.42 167.52z" stroke="none" fill="#3C78D8" fill-rule="nonzero" />
        <path d="M170.42 167.52L143.183 148.192C 118.606995 159.961 89.022995 151.3172 74.836 128.222C 60.649002 105.1268 66.5034 75.139 88.36 58.943C 110.2166 42.747 140.923 45.642002 159.29901 65.6326C 177.67502 85.6226 177.70801 116.1656 159.37347 136.1936L159.37347 136.1936L170.42 167.52z" stroke="#000000" stroke-width="8" fill="none" />
	</g>
</g>
</svg>