<?xml version="1.0" standalone="no"?>
<!DOCTYPE svg PUBLIC "-//W3C//DTD SVG 1.0//EN" "http://www.w3.org/TR/2001/REC-SVG-20010904/DTD/svg10.dtd">
<svg xmlns="http://www.w3.org/2000/svg" xmlns:xlink="http://www.w3.org/1999/xlink" id="body_1" width="20" height="15">

<defs>
    <linearGradient transform="matrix(1 0 -0 -1 -285 -332)"  id="1" x1="306" y1="-333" x2="306" y2="-373">
        <stop stop-color="#5DF24F" offset="0%"/>
        <stop stop-color="#2A9C06" offset="100%"/>
    </linearGradient>
</defs>

<g transform="matrix(0.35714287 0 0 0.35714287 2.5 -0)">
	<g>
        <path d="M41 21C 41 26.522848 39.04738 31.236893 35.142136 35.142136C 31.236893 39.04738 26.522848 41 21 41C 15.477153 41 10.763107 39.04738 6.8578644 35.142136C 2.9526217 31.236893 1 26.522848 1 21C 1 15.477153 2.9526217 10.763107 6.8578644 6.8578644C 10.763107 2.9526217 15.477153 1 21 1C 26.522848 1 31.236893 2.9526217 35.142136 6.8578644C 39.04738 10.763107 41 15.477153 41 21C 41 21.232735 40.99594 21.465399 40.987816 21.69799" stroke="none" fill="#FFFFFF" fill-rule="nonzero" />
        <path d="M21 5C 30.378 5 37 11.632999 37 21C 37 30.366001 30.378 37 21 37C 11.623 37 5 30.366001 5 21C 5 11.633 11.623 5 21 5zM21 1C 9.954 1 1 9.954 1 21C 1 32.045 9.954 41 21 41C 32.045 41 41 32.045 41 21C 41 9.954 32.045 1 21 1z" stroke="none" fill="url(#1)" />
        <path d="M12.593 22.904C 12.593 22.904 13.438001 22 14.625 21C 15.811999 20 17.5 18.437 17.5 18.437L17.5 18.437L22.188 25.5C 22.188 25.5 25.018 19.045 28.751 14.25C 32.484 9.455 34.376 7.562 34.376 7.562C 34.376 7.562 34.656998 10.592999 34.721 12.968C 34.784 15.343 34.376 18.333 34.376 18.333C 34.376 18.333 31.288 19.524 28.251 23.416C 24.354 28.41 22.563 32.124 22.563 32.124C 22.563 32.124 21 30.625 18.25 27.75C 15.5 24.875 12.593 22.904 12.593 22.904z" stroke="none" fill="#018700" fill-rule="nonzero" />
	</g>
</g>
</svg>