<?xml version="1.0" standalone="no"?>
<!DOCTYPE svg PUBLIC "-//W3C//DTD SVG 1.0//EN" "http://www.w3.org/TR/2001/REC-SVG-20010904/DTD/svg10.dtd">
<svg xmlns="http://www.w3.org/2000/svg" xmlns:xlink="http://www.w3.org/1999/xlink" id="body_1" width="20" height="15">

<g transform="matrix(0.10000001 0 0 0.10000001 2.5 -0)">
	<g transform="matrix(1 0 0 1 -0 -902.36)">
        <path d="M80.444 988.84C 76.116104 984.51215 71.7883 980.1842 67.46 975.856C 63.1245 984.5194 58.789 993.18304 54.454 1001.846C 63.1173 997.5105 71.781 993.175 80.444 988.84zM87.3969 989.38513L107.8529 948.4741L66.941895 968.9301L46.485893 1009.8411zM71.8629 923.8261C 38.3239 924.9426 12.363899 964.1311 25.7109 995.2321C 35.0763 1021.24414 67.1139 1037.4581 93.0849 1027.0502C 117.5619 1018.6722 134.3009 990.83215 127.492905 965.29816C 122.2284 941.0002 98.616905 921.8102 73.422905 923.79614L73.422905 923.79614L72.48119 923.81396L71.862915 923.8257zM143.76291 976.8241C 143.76291 1014.4501 113.26091 1044.9531 75.63391 1044.9531C 38.00791 1044.9531 7.5049133 1014.4511 7.5049133 976.8241C 7.5049133 939.1981 38.006912 908.69507 75.63391 908.69507C 113.25991 908.69507 143.76291 939.1971 143.76291 976.8241z" stroke="none" fill="#000000" fill-rule="nonzero" />
	</g>
</g>
</svg>