<?xml version="1.0" standalone="no"?>
<!DOCTYPE svg PUBLIC "-//W3C//DTD SVG 1.0//EN" "http://www.w3.org/TR/2001/REC-SVG-20010904/DTD/svg10.dtd">
<svg xmlns="http://www.w3.org/2000/svg" xmlns:xlink="http://www.w3.org/1999/xlink" id="body_1" width="20" height="15">

<defs>
    <linearGradient transform="matrix(0.45813 0 0 0.45751 0.67536 926.27)"  id="1" x1="19.107" y1="127.34" x2="260.11" y2="127.34">
        <stop stop-color="#999999" offset="0%"/>
        <stop stop-color="#999999" offset="100%"/>
    </linearGradient>
    <linearGradient transform="matrix(-0.22907 0.39622 -0.39675 -0.22876 160.44 982.35)"  id="255" x1="2.3979" y1="121.4" x2="260.11" y2="127.34">
        <stop stop-color="#999999" offset="0%"/>
        <stop stop-color="#999999" offset="100%"/>
    </linearGradient>
    <linearGradient transform="matrix(0.22907 0.39622 0.39675 -0.22876 -31.745 985.75)"  id="524" x1="19.107" y1="127.34" x2="260.11" y2="127.34">
        <stop stop-color="#999999" offset="0%"/>
        <stop stop-color="#999999" offset="100%"/>
    </linearGradient>
    <linearGradient transform="matrix(0.45813 0 0 0.45751 0.67536 926.27)"  id="793" x1="112.5" y1="275.41" x2="112.5" y2="-4.22">
        <stop stop-color="#986601" offset="0%"/>
        <stop stop-color="#FFFF99" offset="100%"/>
    </linearGradient>
    <linearGradient transform="matrix(1 0 0 1 0 0)"  id="1046" x1="63.993" y1="8.8525" x2="63.993" y2="91.242">
        <stop stop-color="#EEEEEE" offset="0%"/>
        <stop stop-color="#EEEEEE" offset="100%"/>
    </linearGradient>
</defs>

<g transform="matrix(0.1171875 0 0 0.1171875 2.5000005 -0)">
	<g transform="matrix(1 0 0 1 -0 -924.36)">
		<g transform="matrix(1 0 0 1 -3 -2)">
            <path d="M15.562 1034C 51.083 1033.9999 86.604004 1034 122.121994 1034C 104.36199 1003.292 86.601 972.583 68.840996 941.875C 51.080994 972.583 33.319996 1003.292 15.559998 1034L15.559998 1034L15.562 1034z" stroke="none" fill="#000000" fill-rule="nonzero" fill-opacity="0.02745098" />
            <path d="M15.031 1034.3C 50.906 1034.3 86.781 1034.3002 122.651 1034.3C 104.713 1003.26904 86.776 972.23804 68.839005 941.20605C 50.901005 972.23706 32.964005 1003.26807 15.027004 1034.3L15.027004 1034.3L15.031 1034.3z" stroke="none" fill="#000000" fill-rule="nonzero" fill-opacity="0.02745098" />
            <path d="M68.781 940.66C 50.913998 971.92 32.088997 1003.5 14.75 1034.6C 50.841 1034.516 87.203 1034.767 123.13 1034.475C 105.006996 1003.24695 86.95 971.761 68.785995 940.694L68.785995 940.694L68.781 940.66z" stroke="none" fill="#000000" fill-rule="nonzero" fill-opacity="0.02745098" />
            <path d="M68.719 940.34C 50.503002 971.663 32.203003 1003.19904 14.25 1034.621C 17.9917 1035.3059 22.6506 1034.631 26.687 1034.871C 58.886 1034.7662 91.32201 1035.0801 123.375 1034.7147C 121.3566 1030.1785 118.0489 1025.465 115.594 1020.86774C 99.988 994.05975 84.558 966.89575 68.844 940.30774C 68.802216 940.3167 68.74114 940.28326 68.719 940.3389L68.719 940.3389L68.719 940.34z" stroke="none" fill="#000000" fill-rule="nonzero" fill-opacity="0.02745098" />
            <path d="M68.625 940.06C 66.7266 942.5581 65.343 945.6753 63.628 948.3934C 47.093998 977.0774 30.407997 1005.7314 13.968998 1034.4354C 14.001218 1035.865 16.353598 1034.8494 17.293999 1035.1542C 52.628998 1035.1332 87.999 1035.1962 123.313995 1035.1232C 124.53919 1034.47 122.575195 1032.8092 122.3062 1031.8795C 104.6222 1001.3165 86.9282 970.6585 69.2512 940.15454C 69.07609 940.0368 68.82995 939.9776 68.6262 940.06085L68.6262 940.06085L68.625 940.06z" stroke="none" fill="#000000" fill-rule="nonzero" fill-opacity="0.02745098" />
            <path d="M68.594 939.66C 67.74485 939.9235 67.548004 941.0132 67.0369 941.6871C 49.243904 972.4701 31.449902 1003.2521 13.656902 1034.035C 13.274483 1034.754 13.831613 1035.6157 14.631903 1035.5663L14.631903 1035.5663L123.1519 1035.5663C 124.04448 1035.5443 124.4187 1034.4775 123.87666 1033.7754C 105.82266 1002.5704 87.76866 971.3654 69.71466 940.1604C 69.57622 939.7663 69.01552 939.52625 68.58966 939.6604L68.58966 939.6604L68.594 939.66z" stroke="none" fill="#000000" fill-rule="nonzero" fill-opacity="0.02745098" />
            <path d="M68.562 939.44C 66.971695 940.2911 66.6561 942.5698 65.528694 943.9297C 48.145695 974.05066 30.663692 1004.1487 13.343693 1034.2837C 13.076723 1035.8737 15.200693 1036.0137 16.331192 1035.7837C 52.00819 1035.7627 87.71919 1035.8257 123.37119 1035.7527C 124.868996 1035.3597 124.32396 1033.4999 123.43269 1032.6418C 105.486694 1001.66986 87.60869 970.6008 69.6207 939.6898C 69.32233 939.4935 68.92472 939.3226 68.5582 939.4398L68.5582 939.4398L68.562 939.44z" stroke="none" fill="#000000" fill-rule="nonzero" fill-opacity="0.02745098" />
            <path d="M68.438 939.19C 65.77251 941.0468 65.06171 945.1231 62.996502 947.6694C 46.3995 976.57837 29.425503 1005.3544 13.063503 1034.3464C 13.101173 1037.3508 17.525103 1035.6423 19.332302 1036.0652C 54.1393 1035.9603 89.0213 1036.2745 123.7823 1035.9089C 126.267105 1034.0643 122.31081 1031.1287 121.7655 1029.11C 104.402504 999.23596 87.235504 969.156 69.7515 939.409C 69.388306 939.16986 68.851685 939.0259 68.439 939.19025L68.439 939.19025L68.438 939.19z" stroke="none" fill="#000000" fill-rule="nonzero" fill-opacity="0.02745098" />
            <path d="M68.281 938.91C 64.0393 943.4167 61.862 950.162 58.241997 955.33795C 43.146996 981.759 27.442997 1008.01196 12.718998 1034.5349C 13.692488 1038.5233 19.810198 1035.3956 22.631498 1036.3787C 56.3985 1036.2078 90.3435 1036.7177 124.0015 1036.1287C 127.029305 1033.4391 121.244 1029.5608 120.664604 1026.6483C 103.622604 997.5063 87.0406 967.8853 69.720604 939.03534C 69.27387 938.8607 68.74439 938.6859 68.283104 938.91034L68.283104 938.91034L68.281 938.91z" stroke="none" fill="#000000" fill-rule="nonzero" fill-opacity="0.02745098" />
            <path d="M68.25 938.62C 64.0017 942.2407 62.4504 948.928 58.9929 953.441C 43.5759 980.498 27.3999 1007.33997 12.437901 1034.526C 13.421101 1039.0634 20.3886 1035.5529 23.5319 1036.651C 57.049904 1036.4583 90.7489 1037.0333 124.1519 1036.3698C 127.5436 1033.313 121.1681 1028.9886 120.4578 1025.7047C 103.547806 996.8147 87.116806 967.3947 69.9038 938.8147C 69.4288 938.5547 68.7648 938.4147 68.2478 938.6247L68.2478 938.6247L68.25 938.62z" stroke="none" fill="#000000" fill-rule="nonzero" fill-opacity="0.02745098" />
            <path d="M68.156 938.31C 63.709 941.9072 62.247997 948.727 58.7114 953.287C 43.250397 980.31 27.2704 1007.135 12.124397 1034.278C 12.629137 1039.4587 20.276299 1035.9679 23.530397 1036.9656C 57.1034 1036.7507 90.838394 1037.3909 124.310394 1036.653C 128.0394 1033.4446 121.5629 1028.9323 120.741 1025.5499C 103.770996 996.56995 87.40199 967.06995 70.062996 938.4799C 69.47799 938.183 68.782295 938.0401 68.1568 938.26117L68.1568 938.26117L68.156 938.31z" stroke="none" fill="#000000" fill-rule="nonzero" fill-opacity="0.02745098" />
		</g>
        <path d="M64.585 936.67C 64.27531 936.6868 63.99517 936.859 63.840538 937.1275L63.840538 937.1275L9.551537 1031.0325C 9.38845 1031.3147 9.387891 1031.6622 9.550071 1031.945C 9.712251 1032.2277 10.012708 1032.4028 10.338946 1032.405L10.338946 1032.405L118.92894 1032.405C 119.25517 1032.4028 119.55563 1032.2277 119.71782 1031.945C 119.88 1031.6622 119.87944 1031.3147 119.71636 1031.0325L119.71636 1031.0325L65.42536 937.15247C 65.25287 936.85297 64.926155 936.67596 64.58068 936.69495L64.58068 936.69495L64.585 936.67z" stroke="none" fill="#999999" fill-rule="nonzero" />
        <path d="M65.646 999.77L9.552002 1031.027C 9.233282 1031.5785 9.701822 1032.3951 10.339412 1032.3995L10.339412 1032.3995L118.929405 1032.3995C 119.56701 1032.3995 120.03551 1031.5785 119.71683 1031.027C 65.61482 1000.027 65.58183 999.75696 65.64282 999.797L65.64282 999.797L65.646 999.77z" stroke="none" fill="url(#1)" />
        <path d="M65.153 937.65C 64.83411 937.09863 63.8916 937.0955 63.569 937.645L63.569 937.645L9.272999 1031.561C 8.957768 1032.1145 9.431929 1032.9282 10.069549 1032.9283C 24.163548 1019.9943 56.21955 1004.09235 65.97455 997.69635L65.97455 997.69635L65.15306 937.6503L65.153 937.65z" stroke="none" fill="url(#255)" />
        <path d="M63.537 941.04C 63.85589 940.4886 64.7984 940.4855 65.121 941.035L65.121 941.035L119.41701 1034.9509C 119.73224 1035.5044 119.25808 1036.3181 118.62046 1036.3182C 118.86286 1036.2029 65.432465 1003.50525 65.40846 1003.50226L65.40846 1003.50226L63.53686 941.0403L63.537 941.04z" stroke="none" fill="url(#524)" />
        <path d="M16.653 1027.8L112.617 1027.8C 96.621994 1000.2001 80.631 972.5101 64.63899 944.86005C 48.64199 972.5101 32.645992 1000.2001 16.649994 1027.8L16.649994 1027.8L16.653 1027.8z" stroke="none" fill="url(#793)" />
        <path d="M57.484 974.02L60.3473 1006.61804L67.6774 1006.61804L71.571495 974.02L57.483494 974.02L57.484 974.02z" stroke="#333333" stroke-width="1" fill="#000000" fill-rule="nonzero" />
        <path d="M69.624 1016.3C 69.624 1019.4269 67.0857 1021.9617 63.9546 1021.9617C 60.8235 1021.9617 58.285202 1019.4269 58.285202 1016.3C 58.285202 1013.1731 60.8235 1010.6383 63.9546 1010.6383C 67.0857 1010.6383 69.624 1013.1731 69.624 1016.3z" stroke="#333333" stroke-width="1" fill="#000000" fill-rule="nonzero" />
        <path d="M64.5 936.67C 64.226364 936.7095 63.98521 936.87024 63.84375 937.1075L63.84375 937.1075L9.5617485 1030.9974C 9.39794 1031.2788 9.396116 1031.626 9.556959 1031.909C 9.717802 1032.1921 10.017103 1032.3685 10.3429985 1032.3724L10.3429985 1032.3724L11.0929985 1032.3724L63.843 941.09143C 64.003525 940.829 64.28528 940.6647 64.593 940.65393C 64.93394 940.6312 65.25918 940.79987 65.43675 941.09143L65.43675 941.09143L118.18675 1032.3724L118.93675 1032.3724C 119.26265 1032.3685 119.56195 1032.1921 119.72279 1031.909C 119.88364 1031.626 119.88181 1031.2788 119.718 1030.9974L119.718 1030.9974L65.436005 937.1074C 65.25843 936.81586 64.93319 936.6472 64.592255 936.6699C 64.56103 936.66833 64.52973 936.66833 64.498505 936.6699L64.498505 936.6699L64.5 936.67z" stroke="none" fill="#EEEEEE" fill-rule="nonzero" fill-opacity="0.49803922" />
        <path d="M9.9688 1030.3L9.56255 1030.9875C 9.398741 1031.2689 9.396917 1031.6161 9.55776 1031.8992C 9.718603 1032.1823 10.017904 1032.3586 10.3438 1032.3625L10.3438 1032.3625L118.93379 1032.3625C 119.25969 1032.3586 119.55899 1032.1823 119.71983 1031.8992C 119.88068 1031.6161 119.87885 1031.2689 119.71504 1030.9875L119.71504 1030.9875L119.30879 1030.3C 119.18951 1030.3467 119.06176 1030.3678 118.93379 1030.362L118.93379 1030.362L10.343796 1030.362C 10.21583 1030.3678 10.088082 1030.3467 9.968796 1030.3L9.968796 1030.3L9.9688 1030.3z" stroke="none" fill="#EEEEEE" fill-rule="nonzero" fill-opacity="0.4" />
        <path transform="matrix(1 0 0 1 0 924.36)"  d="M64.656 20.5L34.218998 73.094C 44.562996 67.654 58.177 64.375 73.093994 64.375C 79.325 64.375 85.33499 64.963 90.968994 66.031L90.968994 66.031L64.65599 20.5L64.656 20.5z" stroke="none" fill="url(#1046)" />
	</g>
</g>
</svg>