<?xml version="1.0" standalone="no"?>
<!DOCTYPE svg PUBLIC "-//W3C//DTD SVG 1.0//EN" "http://www.w3.org/TR/2001/REC-SVG-20010904/DTD/svg10.dtd">
<svg xmlns="http://www.w3.org/2000/svg" xmlns:xlink="http://www.w3.org/1999/xlink" id="body_1" width="61" height="61">

<g transform="matrix(0.119140625 0 0 0.119140625 0 0)">
    <path d="M256.417 50C 142.646 50 50.416992 142.229 50.416992 256C 50.416992 369.771 142.646 462 256.417 462C 370.188 462 462.417 369.771 462.417 256C 462.417 142.229 370.188 50 256.417 50zM317.38498 171.192L288.59598 171.192C 278.434 171.192 276.31598 175.355 276.31598 185.87L276.31598 185.87L276.31598 211.27399L317.38498 211.27399L313.434 255.87L276.31598 255.87L276.31598 389.097L223.11598 389.097L223.11598 256.435L195.45 256.435L195.45 211.275L223.116 211.275L223.116 175.71C 223.116 142.33101 240.965 124.90301 280.553 124.90301L280.553 124.90301L317.38602 124.90301L317.38602 171.19202z" stroke="none" fill="#3B5998" fill-rule="nonzero" />
</g>
</svg>