<?xml version="1.0" standalone="no"?>
<!DOCTYPE svg PUBLIC "-//W3C//DTD SVG 1.0//EN" "http://www.w3.org/TR/2001/REC-SVG-20010904/DTD/svg10.dtd">
<svg xmlns="http://www.w3.org/2000/svg" xmlns:xlink="http://www.w3.org/1999/xlink" id="body_1" width="13" height="8">

<defs>
    <linearGradient transform="matrix(2.7267 0 0 2.7267 -37.122 -269.29)"  id="1" x1="57.998" y1="188.25" x2="57.998" y2="123.15">
        <stop stop-color="#7694A2" offset="0%"/>
        <stop stop-color="#7694A2" offset="100%"/>
    </linearGradient>
    <linearGradient transform="matrix(2.7267 0 0 2.7267 -37.122 -269.29)"  id="254" x1="188" y1="186.46" x2="186.68" y2="120.08">
        <stop stop-color="#7694A2" offset="0%"/>
        <stop stop-color="#7694A2" offset="100%"/>
    </linearGradient>
</defs>

<g transform="matrix(0.021251632 0 0 0.021251632 0.06236895 -0)">
	<g>
        <path d="M211.67 45.821C 204.83 12.072998 90.85 8.834999 56.92 45.821C 41.907997 59.732 -8.881004 158.481 1.3499985 315.13098C 17.442999 373.16898 80.098 395.425 124.46 351.03897L124.46 351.03897L162.933 298.03198C 207.45999 342.339 258.91 317.774 280.063 278.36798L280.063 278.36798L325.375 278.36798C 341.924 306.09198 381.919 349.89798 440.79498 300.597L440.79498 300.597L476.70297 349.32898C 509.15796 382.27298 543.946 388.554 582.71295 349.32898C 615.032 310.68198 608.89496 220.56898 592.1174 148.41898C 574.2674 81.35998 570.29736 70.20498 550.9574 46.498978C 512.6374 7.501976 397.5574 18.114977 392.2174 45.48198C 385.1774 72.22998 360.00742 72.37398 330.22742 70.61398L330.22742 70.61398L270.95142 70.61398C 219.24142 74.58698 224.30142 56.817986 211.68141 45.819984L211.68141 45.819984L211.67 45.821z" stroke="none" fill="#698999" fill-rule="nonzero" />
        <path d="M351.1 275.99C 344.3541 254.44853 356.31927 231.51173 377.846 224.719C 399.37262 217.92622 422.3353 229.84128 429.17502 251.353C 436.0147 272.86475 424.14975 295.8534 402.653 302.74C 381.1561 309.62677 358.14142 297.8119 351.208 276.33" stroke="none" fill="#303432" fill-rule="nonzero" />
        <path d="M350.07 270.86C 343.14526 248.74617 355.42844 225.20023 377.527 218.22699C 399.6257 211.25383 423.19852 223.4856 430.22 245.56898C 437.241 267.65225 425.06076 291.25134 402.993 298.32098C 380.92484 305.39062 357.2987 293.26172 350.181 271.20898" stroke="none" fill="#404643" fill-rule="nonzero" />
        <path d="M176.59 275.99C 169.84406 254.44853 181.80927 231.51173 203.336 224.719C 224.8626 217.92622 247.82526 229.84128 254.665 251.353C 261.50473 272.86475 249.63977 295.8534 228.14299 302.74C 206.6461 309.62677 183.63144 297.81186 176.698 276.33" stroke="none" fill="#303432" fill-rule="nonzero" />
        <path d="M39.505 183.23C 24.655602 135.81647 50.99135 85.33081 98.373 70.38C 145.75412 55.425858 196.29819 81.65079 211.353 129C 226.41147 176.35103 200.29314 226.95473 152.97299 242.11C 105.65798 257.2674 55.00283 231.26205 39.74299 183.98" stroke="none" fill="url(#1)" />
        <path d="M76.884 170.36C 68.38109 143.2074 83.46302 114.29614 110.597 105.734C 137.73088 97.172134 166.6747 112.19095 175.29599 139.306C 183.91696 166.42117 168.96121 195.39767 141.86499 204.078C 114.7688 212.7583 85.759674 197.8661 77.01999 170.789" stroke="none" fill="#303432" fill-rule="nonzero" />
        <path d="M125.83 103.35C 120.66189 103.37978 115.52761 104.18584 110.599 105.741196C 110.05066 105.934326 109.505486 106.13677 108.964 106.34833L108.964 106.34833L109.496544 139.34534L76.95754 139.49449C 73.78262 149.53639 73.75665 160.30939 76.88314 170.36649L76.88314 170.36649L76.89404 170.39839L109.49704 170.54755L108.96449 203.53955C 119.578606 207.30669 131.1338 207.49747 141.86649 204.08276C 142.34142 203.91214 142.81335 203.73471 143.28308 203.55022L143.28308 203.55022L142.75584 170.54721L175.28485 170.39806C 178.463 160.34517 178.48526 149.55997 175.34865 139.49405L175.34865 139.49405L142.75565 139.3449L143.28288 106.3369C 137.68115 104.342896 131.7769 103.33215 125.83089 103.3493L125.83089 103.3493L125.83 103.35z" stroke="none" fill="#404643" fill-rule="nonzero" />
        <path d="M175.56 270.86C 168.63522 248.74617 180.91841 225.20023 203.017 218.22699C 225.11569 211.25383 248.6885 223.4856 255.70999 245.56898C 262.731 267.65225 250.55075 291.25134 228.48299 298.32098C 206.41483 305.3906 182.78868 293.2617 175.67099 271.20898" stroke="none" fill="#404643" fill-rule="nonzero" />
        <path d="M393.98 183.23C 379.13074 135.81587 405.46753 85.32996 452.85 70.38C 500.22806 55.432343 550.7651 81.65595 565.82 129C 580.8785 176.35103 554.76013 226.95473 507.44 242.11C 460.12808 257.2609 409.47992 231.25687 394.22 183.98" stroke="none" fill="url(#254)" />
        <path d="M459.77 118.64C 456.47086 108.10546 462.32248 96.88849 472.84998 93.567C 483.37708 90.24514 494.6064 96.0721 497.951 106.592C 501.29623 117.11196 495.4938 128.35442 484.981 131.722C 474.46848 135.09003 463.21356 129.31227 459.823 118.807" stroke="none" fill="#FFFF00" fill-rule="nonzero" />
        <path d="M416.12 164.2C 412.82083 153.66547 418.67245 142.44849 429.19998 139.127C 439.72708 135.80515 450.95645 141.6321 454.301 152.152C 457.6462 162.67195 451.8438 173.91441 441.331 177.282C 430.8185 180.65002 419.5636 174.87227 416.173 164.367" stroke="none" fill="#000080" fill-rule="nonzero" />
        <path d="M459.77 209.76C 456.47086 199.22546 462.32248 188.00848 472.84998 184.687C 483.37708 181.36514 494.60645 187.1921 497.951 197.71199C 501.29623 208.23195 495.49384 219.47441 484.981 222.842C 474.46848 226.21002 463.21356 220.43227 459.823 209.927" stroke="none" fill="#008000" fill-rule="nonzero" />
        <path d="M503.42 164.2C 500.12088 153.66547 505.9725 142.44849 516.5 139.127C 527.02716 135.80515 538.2565 141.6321 541.601 152.152C 544.9463 162.67195 539.14386 173.9144 528.63104 177.282C 518.1185 180.65002 506.86365 174.87227 503.47305 164.367" stroke="none" fill="#FF0000" fill-rule="nonzero" />
	</g>
	<g>
        <path d="M452.44 21.398L456.04932 6.0950003C 458.22772 -0.5086999 487.37833 -1.3407998 498.3503 9.2712L498.3503 9.2712L515.7643 27.318201C 496.80728 22.055702 475.4173 19.9526 452.44028 21.398901L452.44028 21.398901L452.44 21.398z" stroke="none" fill="#404643" fill-rule="nonzero" />
        <path d="M151.47 19.417L147.86 4.898C 145.6816 -1.7057004 116.531 -2.5378003 105.559006 8.0742L105.559006 8.0742L88.26201 27.2372C 108.352005 23.0516 124.91401 19.070599 151.46701 19.4173L151.46701 19.4173L151.47 19.417z" stroke="none" fill="#404643" fill-rule="nonzero" />
        <path d="M339.22 166.55739C 339.22 161.34526 343.44528 157.12 348.6574 157.12L348.6574 157.12L360.3966 157.12C 365.60873 157.12 369.834 161.34526 369.834 166.55739L369.834 166.55739L369.834 167.9386C 369.834 173.15073 365.60873 177.37599 360.3966 177.37599L360.3966 177.37599L348.6574 177.37599C 343.44528 177.37599 339.22 173.15073 339.22 167.9386L339.22 167.9386L339.22 166.55739z" stroke="none" fill="#404643" fill-rule="nonzero" />
        <path d="M236.85 166.55739C 236.85 161.34526 241.07527 157.12 246.2874 157.12L246.2874 157.12L258.0266 157.12C 263.23874 157.12 267.46402 161.34526 267.46402 166.55739L267.46402 166.55739L267.46402 167.9386C 267.46402 173.15073 263.23874 177.37599 258.0266 177.37599L258.0266 177.37599L246.2874 177.37599C 241.07527 177.37599 236.85 173.15073 236.85 167.9386L236.85 167.9386L236.85 166.55739z" stroke="none" fill="#404643" fill-rule="nonzero" />
        <path d="M351.42 112.0274C 351.42 106.81526 355.6453 102.59 360.85742 102.59L360.85742 102.59L372.59662 102.59C 377.80875 102.59 382.03403 106.81526 382.03403 112.0274L382.03403 112.0274L382.03403 113.4086C 382.03403 118.62073 377.80875 122.84599 372.59662 122.84599L372.59662 122.84599L360.85742 122.84599C 355.6453 122.84599 351.42 118.62073 351.42 113.4086L351.42 113.4086L351.42 112.0274z" stroke="none" fill="#404643" fill-rule="nonzero" />
        <path d="M224.42 112.0274C 224.42 106.81526 228.64526 102.59 233.85739 102.59L233.85739 102.59L245.5966 102.59C 250.80873 102.59 255.034 106.81526 255.034 112.0274L255.034 112.0274L255.034 113.4086C 255.034 118.62073 250.80873 122.84599 245.5966 122.84599L245.5966 122.84599L233.85739 122.84599C 228.64526 122.84599 224.42 118.62073 224.42 113.4086L224.42 113.4086L224.42 112.0274z" stroke="none" fill="#404643" fill-rule="nonzero" />
        <path d="M570.19 344.91C 564.6958 327.24402 563.0754 314.553 563.0925 289.321C 563.1143 256.295 566.5921 239.39102 578.5795 214.02802C 584.66266 201.15802 589.4025 187.74402 591.3845 177.79102L591.3845 177.79102L594.5313 161.98802L596.8582 174.34102C 608.6652 237.02103 607.04724 298.79102 592.7487 331.23102C 588.6659 340.49353 577.7067 354.885 574.7357 354.885C 573.94183 354.885 571.8958 350.3951 570.18915 344.9074L570.18915 344.9074L570.19 344.91z" stroke="none" fill="#404643" fill-rule="nonzero" />
        <path d="M17.027 345.59C 3.3590002 326.97 1.8740005 321.4 1.0650005 285.8C 0.6646905 268.181 1.3183105 242.525 2.5174005 228.78499C 4.9478006 200.93799 10.2426 164.22299 11.628201 165.60799C 12.122901 166.10266 13.676901 172.53879 15.081501 179.90999C 16.486101 187.28159 21.594902 202.40599 26.434502 213.521C 31.274002 224.635 36.4345 239.396 37.903503 246.323C 41.354202 262.603 41.381405 299.387 37.955902 317.19098C 35.135303 331.85098 28.213703 352.22498 25.479902 353.91498C 24.594711 354.4621 20.791002 350.7147 17.027302 345.58746L17.027302 345.58746L17.027 345.59z" stroke="none" fill="#404643" fill-rule="nonzero" />
	</g>
</g>
</svg>