<?xml version="1.0" standalone="no"?>
<!DOCTYPE svg PUBLIC "-//W3C//DTD SVG 1.0//EN" "http://www.w3.org/TR/2001/REC-SVG-20010904/DTD/svg10.dtd">
<svg xmlns="http://www.w3.org/2000/svg" xmlns:xlink="http://www.w3.org/1999/xlink" id="body_1" width="20" height="15">

<defs>
    <linearGradient transform="matrix(1 0 0 1 -0 -164.65)"  id="1" x1="300.76" y1="560.9" x2="328.98" y2="560.9">
        <stop stop-color="#F4F4F4" offset="0%"/>
        <stop stop-color="#CFCFCF" offset="100%"/>
    </linearGradient>
    <linearGradient transform="matrix(1.0745 0 0 1.2634 -24.445 -314.46)"  id="237" x1="306.86" y1="566.93" x2="313" y2="559.84">
        <stop stop-color="#B3B3B3" offset="0%"/>
        <stop stop-color="#9C9C9C" offset="100%"/>
    </linearGradient>
    <linearGradient transform="matrix(-1 -0 0 1 657.19 -164.65)"  id="489" x1="300.76" y1="560.9" x2="328.98" y2="560.9">
        <stop stop-color="#F4F4F4" offset="0%"/>
        <stop stop-color="#CFCFCF" offset="100%"/>
    </linearGradient>
    <linearGradient transform="matrix(1.0951 0 0 1.306 -31.229 -338.7)"  id="733" x1="346.75" y1="568.7" x2="343.68" y2="559.84">
        <stop stop-color="#B3B3B3" offset="0%"/>
        <stop stop-color="#9C9C9C" offset="100%"/>
    </linearGradient>
    <linearGradient transform="matrix(1 0 0 1 -0 -164.65)"  id="985" x1="325.27" y1="563.39" x2="331.41" y2="563.39">
        <stop stop-color="#B1B1B1" offset="0%"/>
        <stop stop-color="#B1B1B1" offset="100%"/>
    </linearGradient>
</defs>

<g transform="matrix(0.10000001 0 0 0.10000001 2.5 -0)">
	<g transform="matrix(1 0 0 1 -280.38 -341.12)">
		<g transform="matrix(1.3148 0 0 1.3148 -76.306 -145.45)">
            <path d="M285.53 404.25L325.19598 427.078L325.19598 480.344L285.52997 457.516L285.53 404.25z" stroke="none" fill="#DA2153" fill-rule="nonzero" />
            <path d="M371.48 400.44L325.203 427.073L325.203 480.339L371.48 453.68298L371.48 400.44z" stroke="none" fill="#FA2C64" fill-rule="nonzero" />
            <path d="M282.27 402.52L332.055 373.86798L374.36398 398.73297L325.266 427.07898L282.27 402.52z" stroke="none" fill="#F44676" fill-rule="nonzero" />
            <path d="M343.68 469.6L343.68 427.08002L355.89798 420.0967L355.89798 462.6167L343.68 469.6z" stroke="none" fill="#ECECEC" fill-rule="nonzero" />
            <path d="M371.3 400.54L325.188 427.065C 325.168 431.7972 325.15848 436.5273 325.28168 441.258L325.28168 441.258L371.3007 414.677L371.3 400.54z" stroke="none" fill="#9D2646" fill-rule="nonzero" fill-opacity="0.3882353" />
            <path d="M300.72 466.05L300.72 423.53L309.9258 428.845L309.9258 471.365L300.72 466.05z" stroke="none" fill="#ECECEC" fill-rule="nonzero" />
            <path d="M285.38 404.14L285.44272 414.756L285.38 418.21472L288.4231 419.9731L325.2721 441.24612L325.1886 427.0591L285.38 404.14z" stroke="none" fill="#66192D" fill-rule="nonzero" fill-opacity="0.3882353" />
            <path d="M374.37 398.77L325.189 427.067L325.189 437.66098L325.28268 437.72348L374.3697 409.36447L374.37 398.77z" stroke="none" fill="#FA376C" fill-rule="nonzero" />
            <path d="M282.31 402.37L282.31 412.901L325.187 437.654L325.187 427.06L282.31 402.37z" stroke="none" fill="#DF2A5A" fill-rule="nonzero" />
            <path d="M343.68 427.08L343.68 416.44998L359.02298 407.59167L359.02298 418.22168L343.68 427.08z" stroke="none" fill="#ECECEC" fill-rule="nonzero" />
            <path d="M309.93 428.85L309.93 418.22L297.656 411.1334L297.656 421.7634L309.93 428.85z" stroke="none" fill="#F2F2F2" fill-rule="nonzero" />
            <path d="M297.65 411.13L346.748 382.784L359.02197 389.8706L309.92398 418.2166L297.65 411.13z" stroke="none" fill="#ECECEC" fill-rule="nonzero" />
            <path d="M343.68 416.45L300.72 391.647L316.063 382.7887L359.02298 407.5917L343.68 416.45z" stroke="none" fill="#F2F2F2" fill-rule="nonzero" />
            <path d="M306.02 381.54C 293.905 381.54 293.288 392.599 297.6519 396.963C 300.2837 399.59482 303.78268 401.93402 307.50458 401.93402L307.50458 401.93402L307.50458 402.30902L328.3376 404.04962L328.3376 396.963L309.9256 382.79C 308.5723 382.06265 307.44 381.43982 306.0194 381.54L306.0194 381.54L306.02 381.54z" stroke="none" fill="url(#1)" />
            <path d="M319.13 402.27L309.9242 414.672L316.0614 411.1287L316.0614 418.2153L328.3354 404.0423L319.12958 402.2706L319.13 402.27z" stroke="none" fill="#CCCCCC" fill-rule="nonzero" />
            <path d="M304.22 388.2C 301.1773 388.2 298.7019 391.1849 298.7019 394.8536C 299.26974 398.68442 302.8962 401.24182 305.9377 401.82642C 311.7225 403.64902 315.93622 404.0451 328.3387 404.0451L328.3387 404.0451L307.41373 389.4321C 306.31772 388.61377 305.36234 388.2507 304.22034 388.2L304.22034 388.2L304.22 388.2z" stroke="none" fill="url(#237)" />
            <path d="M351.17 381.54C 363.285 381.54 363.902 392.599 359.53812 396.963C 356.9063 399.59482 353.40732 401.93402 349.68542 401.93402L349.68542 401.93402L349.68542 402.30902L328.33942 404.04962L328.21634 396.96533L347.26334 382.78934C 348.61664 382.06198 349.74893 381.43915 351.16953 381.53934L351.16953 381.53934L351.17 381.54z" stroke="none" fill="url(#489)" />
            <path d="M337.53 402.27L346.7358 414.672L340.5986 411.1287L340.5986 418.2153L328.32462 404.0423L337.53043 402.2706L337.53 402.27z" stroke="none" fill="#CCCCCC" fill-rule="nonzero" />
            <path d="M353.56 387.67C 356.6612 387.67 359.1842 390.7556 359.1842 394.54813C 358.60544 398.50812 354.9093 401.15192 351.8093 401.75623C 343.9493 404.2679 340.9953 404.0497 328.3433 404.0497L328.3433 404.0497L350.30328 388.93973C 351.42038 388.09378 352.3942 387.71854 353.55807 387.66602L353.55807 387.66602L353.56 387.67z" stroke="none" fill="url(#733)" />
            <path d="M306.03 381.53C 293.915 381.53 293.291 392.603 297.655 396.968C 300.2868 399.5998 303.7768 401.9368 307.4988 401.9368L307.4988 401.9368L307.4988 402.3118L328.3428 404.0306L349.6868 402.3118L349.6868 401.9368C 353.4087 401.9368 356.8988 399.5998 359.5306 396.968C 363.89462 392.60397 363.27042 381.53 351.1556 381.53C 349.73502 381.42978 348.6026 382.05264 347.24942 382.78L347.24942 382.78L328.28043 396.905L309.93643 382.78C 308.58313 382.05264 307.45084 381.4298 306.03024 381.53L306.03024 381.53L306.03 381.53z" stroke="none" fill="url(#985)" />
		</g>
	</g>
</g>
</svg>