<?xml version="1.0" standalone="no"?>
<!DOCTYPE svg PUBLIC "-//W3C//DTD SVG 1.0//EN" "http://www.w3.org/TR/2001/REC-SVG-20010904/DTD/svg10.dtd">
<svg xmlns="http://www.w3.org/2000/svg" xmlns:xlink="http://www.w3.org/1999/xlink" id="body_1" width="12" height="12">

<g transform="matrix(0.25 0 0 0.25 0 0)">
    <path d="M43.611 20.083L42 20.083L42 20L24 20L24 28L35.303 28C 33.654003 32.657 29.223001 36 24 36C 17.373001 36 12 30.626999 12 24C 12 17.373001 17.373001 12 24 12C 27.059 12 29.842 13.154 31.961 15.039L31.961 15.039L37.618 9.382C 34.046 6.053 29.268 4 24 4C 12.955 4 4 12.955 4 24C 4 35.045 12.955 44 24 44C 35.045 44 44 35.045 44 24C 44 22.659 43.862 21.35 43.611 20.083z" stroke="none" fill="#FFC107" fill-rule="nonzero" />
    <path d="M6.306 14.691L12.877001 19.51C 14.655 15.108 18.961 12 24 12C 27.059 12 29.842 13.154 31.961 15.039L31.961 15.039L37.618 9.382C 34.046 6.053 29.268 4 24 4C 16.318 4 9.656 8.337 6.306 14.691z" stroke="none" fill="#FF3D00" fill-rule="nonzero" />
    <path d="M24 44C 29.166 44 33.86 42.023 37.409 38.808L37.409 38.808L31.219 33.57C 29.211 35.091 26.715 36 24 36C 18.798 36 14.381 32.683 12.717 28.054L12.717 28.054L6.195 33.079002C 9.505 39.556 16.227 44 24 44z" stroke="none" fill="#4CAF50" fill-rule="nonzero" />
    <path d="M43.611 20.083L42 20.083L42 20L24 20L24 28L35.303 28C 34.511 30.237 33.072002 32.166 31.216002 33.571C 31.217001 33.57 31.218002 33.57 31.219002 33.569L31.219002 33.569L37.409 38.807C 36.971 39.205 44 34 44 24C 44 22.659 43.862 21.35 43.611 20.083z" stroke="none" fill="#1976D2" fill-rule="nonzero" />
</g>
</svg>