<?xml version="1.0" standalone="no"?>
<!DOCTYPE svg PUBLIC "-//W3C//DTD SVG 1.0//EN" "http://www.w3.org/TR/2001/REC-SVG-20010904/DTD/svg10.dtd">
<svg xmlns="http://www.w3.org/2000/svg" xmlns:xlink="http://www.w3.org/1999/xlink" id="body_1" width="20" height="15">

<g transform="matrix(0.009046848 0 0 0.009046848 4.0768337 -0)">
	<g>
        <path d="M1124.664 644.322L184.779 644.322C 104.42601 644.322 39.28601 709.461 39.28601 789.815L39.28601 789.815L39.28601 1483.526C 39.28601 1563.88 104.42501 1629.019 184.779 1629.019L184.779 1629.019L1124.6641 1629.019C 1205.0171 1629.019 1270.1571 1563.88 1270.1571 1483.526L1270.1571 1483.526L1270.1571 789.814C 1270.157 709.461 1205.017 644.322 1124.664 644.322zM717.651 1149.325C 718.817 1154.182 719.452 1159.24 719.452 1164.4419L719.452 1164.4419L719.452 1288.893C 719.452 1324.725 690.135 1354.0409 654.304 1354.0409C 618.47205 1354.0409 589.155 1324.7239 589.155 1288.893L589.155 1288.893L589.155 1164.4419C 589.155 1159.0859 589.82306 1153.8799 591.057 1148.8909C 555.136 1127.2649 531.106 1087.8978 531.106 1042.9149C 531.106 974.6439 586.45105 919.2999 654.721 919.2999C 722.992 919.2999 778.336 974.6439 778.336 1042.9149C 778.337 1088.203 753.978 1127.795 717.651 1149.325z" stroke="none" fill="#000000" fill-rule="nonzero" />
        <path d="M800.192 53.478C 753.711 36.569 706.171 28.944 657.99304 29.019001C 609.81506 28.944 555.731 36.569 509.25006 53.478C 292.67908 132.265 214.01306 326.688 224.85107 584.06305L224.85107 584.06305L404.63608 584.06305C 394.54108 406.70505 440.36407 287.19604 552.3641 236.14804C 617.2511 206.57404 692.19006 206.57404 757.0771 236.14804C 869.0771 287.19504 914.9001 406.70404 904.80505 584.06305L904.80505 584.06305L1084.5901 584.06305C 1095.429 326.688 1016.764 132.265 800.192 53.478z" stroke="none" fill="#000000" fill-rule="nonzero" />
	</g>
</g>
</svg>