<?xml version="1.0" standalone="no"?>
<!DOCTYPE svg PUBLIC "-//W3C//DTD SVG 1.0//EN" "http://www.w3.org/TR/2001/REC-SVG-20010904/DTD/svg10.dtd">
<svg xmlns="http://www.w3.org/2000/svg" xmlns:xlink="http://www.w3.org/1999/xlink" id="body_1" width="20" height="15">

<g transform="matrix(0.03 0 0 0.03 2.5000005 -0)">
	<g transform="matrix(1 0 0 1 -0.478195 0.478205)">
		<g>
            <path d="M480.105 25.392C 480.105 22.358 477.642 19.895 474.608 19.895L474.608 19.895L26.348 19.895C 23.314 19.895 20.851 22.358 20.851 25.392L20.851 25.392L20.851 473.652C 20.851 476.686 23.314 479.149 26.348 479.149L26.348 479.149L474.608 479.149C 477.642 479.149 480.105 476.686 480.105 473.652L480.105 473.652L480.105 25.392z" stroke="#000000" stroke-width="40.75" fill="#D69E19" fill-rule="nonzero" />
		</g>
	</g>
	<g transform="matrix(8.59027 0 0 8.43589 -1897.57 -1858.97)">
		<g transform="matrix(1 0 0 1.46154 224.983 203.642)">
            <path d="M41.744 44.299C 41.744 44.299 41.744 44.3 41.744 44.3C 41.744 45.355 34.193 46.224 25.017 46.224C 15.84 46.224 8.29 45.355 8.29 44.3L8.29 44.3L8.29 44.299C 8.29 43.243 15.84 42.375 25.017 42.375C 34.193 42.375 41.744 43.243 41.744 44.299C 41.744 44.299 41.744 44.299 41.744 44.299z" stroke="none" fill="none" />
		</g>
		<g transform="matrix(1 0 0 1 226 224.799)">
            <path d="M44 24C 44 24 44 24.001 44 24.001C 44 34.972 34.972 43.999 24 43.999C 13.028 43.999 4 34.972 4 24.001L4 24.001L4 23.999C 4 13.028 13.028 4.001 24 4.001C 34.972 4.001 44 13.028 44 23.999C 44 23.999 44 24 44 24z" stroke="none" fill="#445800" fill-rule="nonzero" />
		</g>
		<g transform="matrix(1 0 0 1 226 224.799)">
            <path d="M22.75 5.375C 8.615 5.627 0.002 23.953 8.938 35.063L8.938 35.063L8.906 35.094C 17.018 47.079 37.345 44.114 41.563 30.25L41.563 30.25L41.594 30.25C 41.601 30.23 41.586 30.207 41.594 30.188C 46.258 17.977 35.859 4.234 22.813 5.375C 22.791 5.377 22.772 5.373 22.75 5.375z" stroke="none" fill="#8BB300" fill-rule="nonzero" />
		</g>
		<g transform="matrix(1 0 0 1 226 224.799)">
            <path d="M23.938 9.063C 20.118 9.063 16.301 10.53 13.406 13.438C 7.616 19.252 7.616 28.748 13.406 34.563C 19.197 40.378 28.678 40.378 34.469 34.563C 35.831 33.191 35.836 30.964 34.469 29.594C 33.1 28.223 30.867 28.217 29.5 29.594C 26.394 32.713 21.481 32.713 18.375 29.594C 15.27 26.475 15.27 21.525 18.375 18.406C 21.481 15.287 26.394 15.287 29.5 18.406C 30.515 19.437 32.081 19.749 33.406 19.188C 34.743 18.621 35.537 17.273 35.5 15.844C 35.478 14.941 35.127 14.086 34.469 13.438C 31.574 10.53 27.757 9.063 23.938 9.063zM33.719 19.375C 33.723 19.374 33.558 19.407 33.563 19.406C 33.567 19.405 33.433 19.439 33.438 19.438C 33.442 19.436 33.309 19.502 33.313 19.5C 33.317 19.498 33.184 19.565 33.188 19.563C 33.191 19.56 33.059 19.628 33.063 19.625C 33.066 19.623 32.934 19.722 32.938 19.719C 32.941 19.716 32.841 19.816 32.844 19.813C 32.847 19.809 32.747 19.941 32.75 19.938C 32.753 19.934 32.654 20.035 32.656 20.031C 32.659 20.028 32.592 20.16 32.594 20.156C 32.596 20.152 32.529 20.285 32.531 20.281C 32.533 20.277 32.467 20.41 32.469 20.406C 32.47 20.402 32.436 20.536 32.438 20.531C 32.438 20.527 32.406 20.692 32.406 20.688C 32.406 20.686 32.408 20.706 32.406 20.719L32.406 20.719L23.719 20.719C 22.53 20.702 21.435 21.326 20.844 22.344C 20.252 23.361 20.252 24.639 20.844 25.656C 21.435 26.674 22.53 27.298 23.719 27.281L23.719 27.281L32.406 27.281C 32.406 27.278 32.407 27.41 32.406 27.406C 32.406 27.403 32.438 27.503 32.438 27.5C 32.437 27.497 32.438 27.597 32.438 27.594C 32.437 27.591 32.47 27.691 32.469 27.688C 32.468 27.684 32.533 27.816 32.531 27.813C 32.53 27.81 32.564 27.909 32.563 27.906C 32.561 27.903 32.627 28.003 32.625 28C 32.623 27.997 32.658 28.065 32.656 28.063C 32.654 28.06 32.721 28.159 32.719 28.156C 32.717 28.154 32.815 28.252 32.813 28.25C 32.81 28.248 32.877 28.315 32.875 28.313C 32.873 28.31 32.94 28.377 32.938 28.375C 32.935 28.373 33.034 28.439 33.031 28.438C 33.029 28.436 33.128 28.502 33.125 28.5C 33.122 28.498 33.222 28.564 33.219 28.563C 33.216 28.561 33.315 28.595 33.313 28.594C 33.31 28.592 33.409 28.657 33.406 28.656C 33.403 28.655 33.503 28.688 33.5 28.688C 33.497 28.687 33.597 28.719 33.594 28.719C 33.591 28.718 33.722 28.719 33.719 28.719C 33.716 28.718 33.816 28.75 33.813 28.75C 33.809 28.75 33.91 28.75 33.906 28.75C 33.903 28.75 34.035 28.75 34.031 28.75C 34.028 28.75 34.128 28.75 34.125 28.75C 34.122 28.75 34.222 28.718 34.219 28.719C 34.216 28.719 34.347 28.718 34.344 28.719C 34.341 28.72 34.441 28.686 34.438 28.688C 34.434 28.689 34.534 28.624 34.531 28.625C 34.528 28.626 34.628 28.592 34.625 28.594C 34.622 28.595 34.722 28.561 34.719 28.563C 34.717 28.563 34.754 28.548 34.781 28.531C 34.798 28.521 34.814 28.499 34.813 28.5L34.813 28.5L37.438 26.969L40.125 25.406C 40.124 25.407 40.149 25.411 40.156 25.406C 40.181 25.391 40.221 25.342 40.219 25.344C 40.216 25.346 40.315 25.279 40.313 25.281C 40.31 25.283 40.409 25.217 40.406 25.219C 40.404 25.221 40.471 25.154 40.469 25.156C 40.466 25.159 40.533 25.06 40.531 25.063C 40.529 25.065 40.627 24.997 40.625 25C 40.623 25.003 40.689 24.903 40.688 24.906C 40.686 24.909 40.72 24.81 40.719 24.813C 40.717 24.815 40.783 24.716 40.781 24.719C 40.78 24.722 40.814 24.622 40.813 24.625C 40.811 24.628 40.845 24.528 40.844 24.531C 40.843 24.534 40.876 24.403 40.875 24.406C 40.874 24.409 40.907 24.309 40.906 24.313C 40.906 24.316 40.938 24.215 40.938 24.219C 40.937 24.222 40.938 24.09 40.938 24.094C 40.937 24.097 40.937 23.997 40.938 24C 40.938 24.003 40.937 23.903 40.938 23.906C 40.938 23.91 40.906 23.778 40.906 23.781C 40.907 23.785 40.905 23.684 40.906 23.688C 40.907 23.691 40.874 23.591 40.875 23.594C 40.876 23.597 40.843 23.466 40.844 23.469C 40.845 23.472 40.78 23.372 40.781 23.375C 40.783 23.378 40.748 23.278 40.75 23.281C 40.752 23.284 40.686 23.185 40.688 23.188C 40.689 23.19 40.623 23.122 40.625 23.125C 40.627 23.128 40.56 23.029 40.563 23.031C 40.565 23.034 40.498 22.935 40.5 22.938C 40.502 22.94 40.404 22.873 40.406 22.875C 40.409 22.877 40.341 22.81 40.344 22.813C 40.346 22.815 40.247 22.748 40.25 22.75C 40.253 22.752 40.153 22.686 40.156 22.688C 40.158 22.689 40.122 22.671 40.094 22.656L40.094 22.656L40.063 22.656L37.406 21.125L37.375 21.125L34.719 19.594L34.719 19.625C 34.721 19.626 34.654 19.593 34.656 19.594C 34.658 19.595 34.592 19.53 34.594 19.531C 34.596 19.532 34.529 19.499 34.531 19.5C 34.533 19.501 34.467 19.499 34.469 19.5C 34.469 19.5 34.446 19.503 34.438 19.5C 34.44 19.501 34.373 19.468 34.375 19.469C 34.377 19.47 34.31 19.437 34.313 19.438C 34.292 19.437 34.271 19.437 34.25 19.438C 34.251 19.438 34.24 19.41 34.219 19.406C 34.208 19.406 34.198 19.406 34.188 19.406C 34.137 19.391 34.084 19.381 34.031 19.375C 34.036 19.375 33.902 19.375 33.906 19.375C 33.911 19.375 33.777 19.375 33.781 19.375C 33.76 19.374 33.74 19.374 33.719 19.375z" stroke="none" fill="#445800" fill-rule="nonzero" />
		</g>
		<g transform="matrix(1 0 0 1 226 224.799)">
            <path d="M23.938 9.906C 20.336 9.906 16.731 11.288 14 14.031C 8.538 19.517 8.538 28.483 14 33.969C 19.462 39.454 28.413 39.454 33.875 33.969C 34.914 32.923 34.917 31.231 33.875 30.188C 32.833 29.144 31.133 29.141 30.094 30.188C 26.668 33.628 21.207 33.628 17.781 30.188C 14.356 26.747 14.356 21.253 17.781 17.813C 21.207 14.372 26.668 14.372 30.094 17.813C 30.858 18.601 32.053 18.834 33.063 18.406C 34.072 17.979 34.685 16.975 34.656 15.875C 34.639 15.18 34.369 14.518 33.875 14.031C 31.144 11.288 27.539 9.906 23.938 9.906zM33.969 20.219C 33.964 20.219 33.96 20.219 33.956 20.219C 33.569 20.219 33.25 20.537 33.25 20.925C 33.25 20.929 33.25 20.933 33.25 20.938L33.25 20.938L33.25 21.563L23.719 21.563C 22.846 21.55 22.034 22.024 21.594 22.781C 21.154 23.538 21.154 24.462 21.594 25.219C 22.034 25.976 22.846 26.45 23.719 26.438L23.719 26.438L33.25 26.438L33.25 27.188C 33.25 27.189 33.25 27.19 33.25 27.191C 33.25 27.579 33.569 27.897 33.956 27.897C 34.094 27.897 34.229 27.857 34.344 27.781L34.344 27.781L37 26.219L39.719 24.656C 39.942 24.532 40.081 24.295 40.081 24.039C 40.081 23.771 39.928 23.525 39.688 23.406L39.688 23.406L36.969 21.875L34.281 20.344C 34.205 20.297 34.12 20.265 34.031 20.25C 34.011 20.239 33.99 20.228 33.969 20.219z" stroke="none" fill="#EEEEEC" fill-rule="nonzero" />
		</g>
	</g>
</g>
</svg>