<?xml version="1.0" standalone="no"?>
<!DOCTYPE svg PUBLIC "-//W3C//DTD SVG 1.0//EN" "http://www.w3.org/TR/2001/REC-SVG-20010904/DTD/svg10.dtd">
<svg xmlns="http://www.w3.org/2000/svg" xmlns:xlink="http://www.w3.org/1999/xlink" id="body_1" width="20" height="15">

<g transform="matrix(0.03634205 0 0 0.03634205 5.297921 -0)">
    <path d="M138.42 300.4C 128.734 306.109 134.505 315.033 138.123 323.14798C 139.362 322.15698 140.601 321.166 141.84 320.17398C 144.66 337.146 150.142 356.40298 171.57599 355.412C 185.273 354.77798 184.10098 348.61798 175.91599 339.71298C 163.65599 326.373 150.86598 313.54297 138.41599 300.39297" stroke="none" fill="#000000" fill-rule="nonzero" />
    <path d="M138.42 300.4C 128.734 306.109 134.505 315.033 138.123 323.14798C 139.362 322.15698 140.601 321.166 141.84 320.17398C 144.66 337.146 150.142 356.40298 171.57599 355.412C 185.273 354.77798 184.10098 348.61798 175.91599 339.71298C 163.65599 326.373 150.86598 313.54297 138.41599 300.39297" stroke="#000000" stroke-width="0.7" stroke-linecap="round" fill="none" />
    <path d="M145.11 294.01C 130.3 300.355 141.136 309.67502 144.366 319.435C 148.803 332.842 147.137 347.852 164.438 351.7C 179.542 355.058 190.167 348.30103 182.577 333.263C 179.68199 327.529 176.38899 324.755 170.45999 322.78C 159.49998 319.13 148.9 304.38 145.10999 294.01" stroke="none" fill="#BF0000" fill-rule="nonzero" />
    <path d="M145.11 294.01C 130.3 300.355 141.136 309.67502 144.366 319.435C 148.803 332.842 147.137 347.852 164.438 351.7C 176.77701 354.444 192.78601 348.566 183.02301 333.932C 172.39801 318.005 153.059 314.547 145.11002 294.159" stroke="#000000" stroke-width="0.7" stroke-linecap="round" fill="none" />
    <path d="M155.52 288.81C 135.309 281.168 141.88701 322.234 161.02101 323.825C 167.88202 324.39502 178.65001 323.491 177.59901 314.01202C 176.389 303.092 163.22902 295.27203 155.51901 288.812" stroke="none" fill="#FF7F00" fill-rule="nonzero" />
    <path d="M155.52 288.81C 135.309 281.168 141.88701 322.234 161.02101 323.825C 167.88202 324.39502 178.65001 323.491 177.59901 314.01202C 176.389 303.092 163.22902 295.27203 155.51901 288.812" stroke="#000000" stroke-width="0.7" stroke-linecap="round" fill="none" />
    <path d="M183.77 85.11C 203.123 87.076004 222.561 90.817 241.464 95.353C 247.99301 96.92 253.862 96.924995 256.921 102.804C 259.844 108.423004 257.75998 120.371 256.77298 126.296005C 255.16298 135.961 250.87698 145.06801 249.04198 154.694C 246.05197 170.378 239.59398 176.11 228.44897 188.743C 223.64998 194.18199 211.73997 203.44899 210.23598 210.45C 209.00398 216.187 213.88698 227.65399 214.96498 233.662C 217.73299 249.073 218.98598 265.29 215.88498 280.777C 212.10498 299.652 168.12198 327.404 153.58498 304.716C 143.40997 288.837 161.76797 282.14 169.64497 271.409C 179.43198 258.076 164.50897 247.588 157.00697 233.793C 146.50798 245.871 137.23697 258.812 129.64798 272.897C 125.07698 281.38 119.25498 290.057 115.52298 298.917C 113.38698 303.987 113.73998 308.521 112.10398 313.638C 109.77398 320.925 103.91198 326.763 100.65498 333.858C 94.47498 347.321 88.43898 360.905 82.664986 374.598L82.664986 374.598L44.151985 337.229C 38.410984 331.659 36.842987 332.237 41.060986 325.489C 45.128986 318.979 49.268986 312.514 53.298985 305.98102C 64.67398 287.53903 76.109985 268.028 83.85298 247.69702C 93.17598 223.21802 109.13098 202.19702 123.18598 180.14801C 143.38599 148.47801 163.57599 116.79801 183.77599 85.11801" stroke="none" fill="#FFBF00" fill-rule="nonzero" />
    <path d="M183.77 85.11C 203.123 87.076004 222.561 90.817 241.464 95.353C 247.99301 96.92 253.862 96.924995 256.921 102.804C 259.844 108.423004 257.75998 120.371 256.77298 126.296005C 255.16298 135.961 250.87698 145.06801 249.04198 154.694C 246.05197 170.378 239.59398 176.11 228.44897 188.743C 223.64998 194.18199 211.73997 203.44899 210.23598 210.45C 209.00398 216.187 213.88698 227.65399 214.96498 233.662C 217.73299 249.073 218.98598 265.29 215.88498 280.777C 212.10498 299.652 168.12198 327.404 153.58498 304.716C 143.40997 288.837 161.76797 282.14 169.64497 271.409C 179.43198 258.076 164.50897 247.588 157.00697 233.793C 146.50798 245.871 137.23697 258.812 129.64798 272.897C 125.07698 281.38 119.25498 290.057 115.52298 298.917C 113.38698 303.987 113.73998 308.521 112.10398 313.638C 109.77398 320.925 103.91198 326.763 100.65498 333.858C 94.47498 347.321 88.43898 360.905 82.664986 374.598L82.664986 374.598L44.151985 337.229C 38.410984 331.659 36.842987 332.237 41.060986 325.489C 45.128986 318.979 49.268986 312.514 53.298985 305.98102C 64.67398 287.53903 76.109985 268.028 83.85298 247.69702C 93.17598 223.21802 109.13098 202.19702 123.18598 180.14801C 143.38599 148.47801 163.57599 116.79801 183.77599 85.11801" stroke="#000000" stroke-width="0.7" stroke-linecap="round" fill="none" />
    <path d="M193.73 71.729C 192.739 85.952995 191.748 100.176994 190.756 114.401C 199.27899 105.563 209.833 98.847 219.824 91.801C 237.104 79.612 203.87401 74.695 193.724 71.73" stroke="none" fill="#F2C9C9" fill-rule="nonzero" />
    <path d="M193.73 71.729C 192.739 85.952995 191.748 100.176994 190.756 114.401C 199.27899 105.563 209.833 98.847 219.824 91.801C 237.104 79.612 203.87401 74.695 193.724 71.73" stroke="#000000" stroke-width="0.7" stroke-linecap="round" fill="none" />
    <path d="M190.76 114.25C 198.857 104.992 207.708 97 217.99199 90.235C 227.03899 84.284 230.68 89.458 229.26898 99.382C 228.58098 104.215004 222.24799 111.30801 219.15898 111.128006C 216.31097 110.962006 214.48198 105.161 211.50198 105.84901C 204.24199 107.52901 196.81198 110.59901 190.76198 114.24901" stroke="none" fill="#000000" fill-rule="nonzero" />
    <path d="M190.76 114.25C 196.89 107.24 233.29399 70.64 229.41699 98.342C 228.90298 102.01 222.749 111.91 219.902 111.871C 217.431 111.837006 214.855 106.154 212.467 105.626C 206.877 104.39 195.11499 111.526 190.759 114.399" stroke="#000000" stroke-width="0.7" stroke-linecap="round" fill="none" />
    <path d="M190.76 114.25C 200.35199 103.282 211.053 93.895004 223.86299 86.848C 227.553 84.818 228.97299 91.455 229.26999 94.326996C 230.049 101.871994 224.87599 106.381 220.646 112.31699C 218.165 108.312996 215.87999 102.15399 211.72499 101.760994C 206.15498 101.241 194.95499 111.65099 190.75499 114.25099" stroke="none" fill="#FF7F00" fill-rule="nonzero" />
    <path d="M190.76 114.25C 200.35199 103.282 211.053 93.895004 223.86299 86.848C 227.553 84.818 228.97299 91.455 229.26999 94.326996C 230.049 101.871994 224.87599 106.381 220.646 112.31699C 218.165 108.312996 215.87999 102.15399 211.72499 101.760994C 206.213 101.23999 195.10098 111.437 190.76 114.398994" stroke="#000000" stroke-width="0.7" stroke-linecap="round" fill="none" />
    <path d="M217.82 36.64C 183.781 38.166 183.615 89.97 217.96901 89.869C 252.309 89.768005 251.86902 37.941 217.81902 36.640003" stroke="none" fill="#F2C9C9" fill-rule="nonzero" />
    <path d="M217.82 36.64C 183.781 38.166 183.615 89.97 217.96901 89.869C 252.24 89.768005 251.91 38.160004 217.96901 36.640003" stroke="#000000" stroke-width="0.7" stroke-linecap="round" fill="none" />
    <path d="M198.34 45.561C 197.299 46.850002 196.258 48.138 195.217 49.427002C 197.31299 42.562004 199.347 29.431002 204.435 24.300001C 210.90399 17.777 225.577 18.562 233.726 18.947C 222.056 27.772 210.006 37.447 198.336 45.561" stroke="none" fill="#000000" fill-rule="nonzero" />
    <path d="M198.34 45.561C 197.299 46.850002 196.258 48.138 195.217 49.427002C 197.31299 42.562004 199.347 29.431002 204.435 24.300001C 210.90399 17.777 225.577 18.562 233.726 18.947C 221.931 27.868 210.135 36.789 198.34 45.71" stroke="#000000" stroke-width="0.7" stroke-linecap="round" fill="#8F0000" fill-rule="nonzero" />
    <path d="M198.34 45.561C 203.18399 35.599 205.278 28.101002 215.43799 23.407001C 231.29099 16.083002 239.35199 19.702002 249.93199 32.923C 254.26599 38.337 254.18799 56.565002 245.918 60.132C 241.978 61.832 226.50299 54.487 222.179 53.237C 214.259 50.948997 205.779 48.725 198.339 45.561" stroke="none" fill="#BF0000" fill-rule="nonzero" />
    <path d="M198.34 45.561C 202.431 37.147003 204.862 27.637001 213.95099 24.002C 229.71098 17.698002 237.65799 17.559002 248.74199 31.436C 253.577 37.489002 255.72899 55.131 246.066 59.835C 238.737 63.403 206.68599 48.815998 198.33899 45.71" stroke="#000000" stroke-width="0.7" stroke-linecap="round" fill="none" />
    <path d="M198.34 45.561C 204.049 57.792 207.094 56.073 219.601 57.457C 226.57199 58.228 232.01599 60.133 237.592 64.519C 239.191 65.776 247.038 74.708 248.594 73.96C 253.38199 71.658 245.566 53.997 243.094 51.731C 229.984 39.717 213.944 41.549 198.344 45.560997" stroke="none" fill="#BF0000" fill-rule="nonzero" />
    <path d="M198.34 45.561C 204.049 57.792 207.094 56.073 219.601 57.457C 226.158 58.182 231.127 59.867 236.552 63.701C 237.774 64.564 247.265 74.624 248.149 74.258C 252.979 72.257 246.108 55.069004 243.98601 52.550003C 232.757 39.219 213.065 41.177002 198.34001 45.711002" stroke="#000000" stroke-width="0.7" stroke-linecap="round" fill="none" />
    <path d="M233.87 106.67C 221.469 113.896996 210.66899 140.03 214.392 152.614C 219.54199 134.794 219.402 119.784 233.872 106.673996" stroke="none" fill="#000000" fill-rule="nonzero" />
    <path d="M213.95 149.94C 208.116 153.95401 205.646 163.392 209.787 169.56601C 214.938 177.246 235.682 185.908 244.133 178.63701C 264.013 161.51701 228.603 144.52701 213.943 149.93701" stroke="none" fill="#FF7F00" fill-rule="nonzero" />
    <path d="M213.95 149.94C 208.116 153.95401 205.646 163.392 209.787 169.56601C 214.285 176.272 235.07901 185.67001 243.39 179.67601C 264.506 164.447 230.179 142.96501 214.099 150.089" stroke="#000000" stroke-width="0.7" stroke-linecap="round" fill="none" />
    <path d="M211.57 163.62C 208.01201 170.142 205.988 176.899 203.988 183.98999C 202.98201 187.55699 198.70201 195.91199 199.52701 199.454C 200.82701 205.03099 211.80101 209.57799 217.22101 213.131C 222.43102 204.915 238.81201 189.57599 239.076 179.232C 239.376 167.52199 221.126 159.13199 211.56601 163.622" stroke="none" fill="#F2C9C9" fill-rule="nonzero" />
    <path d="M211.57 163.62C 208.01201 170.142 205.988 176.899 203.988 183.98999C 202.98201 187.55699 198.70201 195.91199 199.52701 199.454C 200.82701 205.03099 211.80101 209.57799 217.22101 213.131C 222.43102 204.915 238.81201 189.57599 239.076 179.232C 239.371 167.679 221.224 159.038 211.71901 163.62" stroke="#000000" stroke-width="0.7" stroke-linecap="round" fill="none" />
    <path d="M209.34 226.06C 216.12999 228.024 221.97 223.467 221.979 216.396C 221.99 207.439 210.02701 199.72699 202.205 198.108C 177.41501 192.978 204.395 221.108 209.335 226.058" stroke="none" fill="#FFFF00" fill-rule="nonzero" />
    <path d="M209.34 226.06C 216.12999 228.024 221.97 223.467 221.979 216.396C 221.99 207.247 210.893 201.174 203.468 198.554C 195.95801 195.905 190.897 197.185 191.87 205.914C 192.679 213.156 204.439 221.364 209.489 226.06" stroke="#000000" stroke-width="0.7" stroke-linecap="round" fill="none" />
    <path d="M54.414 250.15C 39.793 233.69499 25.173002 217.241 10.553001 200.786C 73.248 199.101 135.943 197.416 198.633 195.732C 194.42 211.743 190.206 227.75299 185.993 243.76399C 184.299 250.202 163.703 247.168 157.954 247.32599C 123.444 248.26599 88.93199 249.206 54.413994 250.146" stroke="none" fill="#5A3D1C" fill-rule="nonzero" />
    <path d="M54.414 250.15C 39.793 233.69499 25.173002 217.241 10.553001 200.786C 73.248 199.101 135.943 197.416 198.633 195.732C 194.42 211.743 190.206 227.75299 185.993 243.76399C 184.299 250.202 163.703 247.168 157.954 247.32599C 123.444 248.26599 88.93199 249.206 54.413994 250.146" stroke="#000000" stroke-width="0.7" stroke-linecap="round" fill="none" />
    <path d="M198.64 195.58L194.923 0.3600006C 176.66301 0.92300063 21.173004 1.8430007 20.88301 7.3190007C 17.44201 71.808 14.00201 136.299 10.561011 200.789C 72.83601 199.10901 136.86101 201.219 198.641 195.579" stroke="none" fill="#9E6C31" fill-rule="nonzero" />
    <path d="M198.64 195.58L194.923 0.3600006C 176.66301 0.92300063 21.173004 1.8430007 20.88301 7.3190007C 17.44201 71.808 14.00201 136.299 10.561011 200.789C 73.25601 199.104 135.951 197.419 198.641 195.735" stroke="#000000" stroke-width="0.7" stroke-linecap="round" fill="none" />
    <path d="M129.2 248.07C 126.063995 233.977 122.92799 219.88501 119.791 205.793C 118.361 199.365 119.709 197.918 113.135 198.1C 105.802 198.30301 98.469 198.505 91.136 198.70801C 96.302 212.059 101.467 225.41 106.633 238.76102C 111.553 251.46101 115.323006 249.33102 129.203 248.07101" stroke="none" fill="#B3B3B3" fill-rule="nonzero" />
    <path d="M91.138 186.22L91.138 198.71C 98.471 198.507 105.804 198.30501 113.137 198.102C 121.027 197.884 118.179 192.46901 118.348 185.179C 109.278 185.519 100.208 185.869 91.136 186.219" stroke="none" fill="#FFFFFF" fill-rule="nonzero" />
    <path d="M118.05 197.81C 118.149 193.597 118.248 189.385 118.347 185.172C 113.649 185.35199 94.005005 183.133 91.137 186.213C 87.141 190.50299 93.28 204.242 94.969 208.607C 99.522 220.37599 104.075005 232.14499 108.629 243.913C 111.829994 252.185 120.991 248.40999 129.2 248.215C 125.479996 231.42499 121.579994 214.64499 118.049995 197.815" stroke="none" fill="#D59758" fill-rule="nonzero" />
    <path d="M118.05 197.81C 118.149 193.597 118.248 189.385 118.347 185.172C 113.649 185.35199 94.005005 183.133 91.137 186.213C 87.141 190.50299 93.28 204.242 94.969 208.607C 99.522 220.37599 104.075005 232.14499 108.629 243.913C 111.829994 252.185 120.991 248.40999 129.2 248.215L129.2 248.215L118.048996 197.95999" stroke="#000000" stroke-width="0.7" stroke-linecap="round" fill="none" />
    <path d="M105.86 204.36C 109.648 216.744 112.431 231.445 117.902 242.72C 117.867 242.871 118.798004 242.139 118.646 242.12401C 116.62601 236.11401 109.326004 203.77402 105.866005 204.36401" stroke="none" fill="#000000" fill-rule="nonzero" />
    <path d="M95.598 199C 141.48 198.31 95.701996 196.68 95.598 199" stroke="none" fill="#000000" fill-rule="nonzero" />
    <path d="M123.55 14.784L123.55 2.4430008C 116.055 2.6860008 108.560005 2.9290009 101.066 3.172001C 93.101 3.431001 96.105 8.455001 96.192 15.824001C 105.236 15.529001 114.776 15.522001 123.546005 14.784001" stroke="none" fill="#D59758" fill-rule="nonzero" />
    <path d="M123.55 14.784L123.55 2.4430008C 116.055 2.6860008 108.560005 2.9290009 101.066 3.172001C 93.101 3.431001 96.105 8.455001 96.192 15.824001C 105.312004 15.527001 114.431 15.229001 123.55 14.932001" stroke="#000000" stroke-width="0.7" stroke-linecap="round" fill="none" />
    <path d="M166.22 202.27C 162.856 209.588 173.909 213.366 179.751 213.86801C 170.99701 214.641 158.09702 214.10901 150.905 219.96501C 150.137 220.59001 145.553 227.98201 145.553 227.992C 145.69499 231.27701 145.851 230.96901 148.527 233.643C 154.461 239.574 177.594 239.138 185.846 238.623C 200.392 237.716 221.805 223.362 205.62 210.299C 195.06 201.759 179.09 203.579 166.23 202.259" stroke="none" fill="#FFFF00" fill-rule="nonzero" />
    <path d="M166.22 202.27C 162.856 209.588 173.909 213.366 179.751 213.86801C 170.99701 214.641 158.09702 214.10901 150.905 219.96501C 150.137 220.59001 145.553 227.98201 145.553 227.992C 145.69499 231.27701 145.851 230.96901 148.527 233.643C 154.461 239.574 177.594 239.138 185.846 238.623C 200.392 237.716 221.805 223.362 205.62 210.299C 195.01599 201.73999 179.235 203.69499 166.36899 202.26999" stroke="#000000" stroke-width="0.7" stroke-linecap="round" fill="none" />
    <path d="M188.08 223.98C 193.863 220.862 199.72 217.677 205.476 214.612L205.476 214.612L205.476 214.315C 205.342 214.251 205.293 214.15201 205.328 214.018C 200.698 216.028 189.67801 220.988 188.078 223.988" stroke="none" fill="#000000" fill-rule="nonzero" />
    <path d="M190.61 230.22C 196.579 225.94301 202.56 221.526 208.6 217.434C 208.615 217.43501 208.57901 217.009 208.6 216.989C 204.56001 218.619 190.72 227.979 190.61 230.229" stroke="none" fill="#000000" fill-rule="nonzero" />
    <path d="M197.45 231.42C 201.18399 228.333 204.959 225.123 208.75099 222.202C 208.77599 222.19899 208.72499 221.782 208.75099 221.756C 208.60199 221.806 208.55199 221.756 208.60199 221.607C 205.402 223.747 197.66199 230.137 197.452 231.427" stroke="none" fill="#000000" fill-rule="nonzero" />
    <path d="M182.58 225.32C 171.852 223.09901 160.171 225.29901 149.275 224.875C 155.355 229.005 173.515 225.765 182.575 225.315" stroke="none" fill="#000000" fill-rule="nonzero" />
    <path d="M176.19 232.75C 169.216 232.069 153.531 230.935 148.682 234.387C 157.802 233.907 167.48201 233.327 176.192 232.747" stroke="none" fill="#000000" fill-rule="nonzero" />
    <path d="M180.8 236.17C 176.814 235.719 171.85501 235.65399 169.649 237.509C 173.329 237.32901 177.409 236.879 180.799 236.169" stroke="none" fill="#000000" fill-rule="nonzero" />
    <path d="M16.795 207.78C 6.844 217.805 19.143 230.051 26.164001 235.286C 36.225002 242.787 38.709 244.43199 50.697002 240.788C 59.071003 238.243 65.905 235.32999 59.914 226.961C 57.318 223.33499 50.205 220.187 45.789 219.452C 31.727001 217.112 26.750002 218.802 16.795002 207.782" stroke="none" fill="#FFFF00" fill-rule="nonzero" />
    <path d="M16.795 207.78C 6.844 217.805 19.143 230.051 26.164001 235.286C 36.225002 242.787 38.709 244.43199 50.697002 240.788C 59.071003 238.243 65.905 235.32999 59.914 226.961C 57.318 223.33499 50.205 220.187 45.789 219.452C 31.727001 217.112 26.750002 218.802 16.795002 207.782" stroke="#000000" stroke-width="0.7" stroke-linecap="round" fill="none" />
    <path d="M18.58 215.51C 20.683 216.53299 22.657 217.42 25.122 217.59099C 23.913 216.221 21.361 215.84099 18.58 215.51099" stroke="none" fill="#000000" fill-rule="nonzero" />
    <path d="M21.406 226.81C 27.617 228.7 57.824997 231.437 56.346 224.877C 55.143 229.257 27.704 228.137 21.406002 226.80699" stroke="none" fill="#000000" fill-rule="nonzero" />
    <path d="M28.988 233.35C 38.461 236.40701 51.999 236.96301 61.401 233.35C 52.021 231.94 39.578003 235.71 28.988003 233.35" stroke="none" fill="#000000" fill-rule="nonzero" />
    <path d="M31.516 238.7C 36.529 241.161 47.597 242.34 51.143 239.741C 44.622 239.881 37.822002 239.691 31.516 238.701" stroke="none" fill="#000000" fill-rule="nonzero" />
    <path d="M73.295 391.84C 78.407 386.549 87.698 379.888 85.264 371.768C 81.298 358.535 69.929 346.909 59.617 338.313C 57.416 336.47897 32.296 325.258 37.313 333.40598C 49.307 352.886 61.301003 372.36597 73.295 391.83597" stroke="none" fill="#FF7F00" fill-rule="nonzero" />
    <path d="M73.295 391.84C 78.407 386.549 87.698 379.888 85.264 371.768C 81.298 358.535 69.929 346.909 59.617 338.313C 57.416 336.47897 32.296 325.258 37.313 333.40598C 49.307 352.886 61.301003 372.36597 73.295 391.83597" stroke="#000000" stroke-width="0.7" stroke-linecap="round" fill="none" />
    <path d="M40.585 329.84C 53.981 345.831 84.216995 376.947 73.965 399.499C 69.14 410.111 54.864 379.91998 52.479996 374.893C 46.024994 361.293 39.368996 345.183 40.584995 329.84302" stroke="none" fill="#BF0000" fill-rule="nonzero" />
    <path d="M40.585 329.84C 50.96 342.224 87.41 380.799 74.336 398.682C 66.832 408.948 56.819 383.571 53.107 376.148C 46.26 362.458 39.341 345.56302 40.585 329.99002" stroke="#000000" stroke-width="0.7" stroke-linecap="round" fill="none" />
    <path d="M70.025 408.2C 73.347 398.17 66.047005 391.325 60.806 383.668C 56.927 392.458 65.759 401.128 70.025 408.198" stroke="none" fill="#000000" fill-rule="nonzero" />
    <path d="M70.025 408.2C 73.347 398.17 66.047005 391.325 60.806 383.668C 56.927 392.458 65.759 401.128 70.025 408.198" stroke="#000000" stroke-width="0.7" stroke-linecap="round" fill="none" />
    <path d="M59.618 390.8C 50.598 392.386 41.577 393.972 32.557 395.55798C 37.607 406.06198 48.983 414.13998 60.807 412.063C 76.628 409.293 66.697 399.08298 59.618 390.80298" stroke="none" fill="#BBBB78" fill-rule="nonzero" />
    <path d="M59.618 390.8C 50.598 392.386 41.577 393.972 32.557 395.55798C 37.607 406.06198 48.983 414.13998 60.807 412.063C 76.402 409.32397 67.043 399.10098 59.618 390.94998" stroke="#000000" stroke-width="0.7" stroke-linecap="round" fill="none" />
    <path d="M32.407 395.56C 35.638 384.664 51.584 385.589 60.806 383.665C 62.561 395.80502 40.781998 394.215 32.406998 395.565" stroke="none" fill="#BBBB78" fill-rule="nonzero" />
    <path d="M32.407 395.56C 35.638 384.664 51.584 385.589 60.806 383.665C 62.561 395.802 40.915 394.13602 32.556 395.56" stroke="#000000" stroke-width="0.7" stroke-linecap="round" fill="none" />
    <path d="M55.9 369.99C 50.972 353.483 45.724003 332.758 34.341003 319.438C 28.386003 312.47 13.422003 302.22998 5.422003 312.525C -4.395997 325.158 1.9130027 351.324 8.618003 363.747C 13.583003 372.946 15.515003 378.168 26.609001 378.168C 36.146 378.168 49.095 377.488 55.9 369.988" stroke="none" fill="#BBBB78" fill-rule="nonzero" />
    <path d="M55.9 369.99C 50.972 353.483 45.724003 332.758 34.341003 319.438C 28.386003 312.47 13.422003 302.22998 5.422003 312.525C -4.395997 325.158 1.9130027 351.324 8.618003 363.747C 13.178003 372.194 14.805002 376.883 24.379002 378.168C 34.026 379.463 48.829002 377.303 55.9 370.14" stroke="#000000" stroke-width="0.7" stroke-linecap="round" fill="none" />
    <path d="M60.657 383.67C 59.072002 379.16 57.486 374.64902 55.9 370.14C 43.942 374.759 29.838001 376.644 17.093002 377.277C 22.249002 379.95102 27.600002 384.08002 33.003002 386.05002C 41.809002 389.26 51.25 385.73 60.657 383.67" stroke="none" fill="#BBBB78" fill-rule="nonzero" />
    <path d="M60.657 383.67C 59.072002 379.16 57.486 374.64902 55.9 370.14C 43.942 374.759 29.838001 376.644 17.093002 377.277C 22.023003 379.833 27.090002 382.353 31.813004 385.307C 40.677002 390.849 50.587006 385.802 60.806004 383.67" stroke="#000000" stroke-width="0.7" stroke-linecap="round" fill="none" />
    <path d="M55.9 369.99C 50.739002 352.70398 45.257004 330.23898 32.111 317.20798C 25.754 310.90598 7.903 301.727 3.8600006 315.86996C -1.5149994 334.67395 1.4020007 357.09897 13.821001 372.66797C 18.261002 378.23398 22.899002 380.27396 29.285 383.81897C 40.502 390.04596 47.638 386.41696 60.806 383.66998C 59.171 379.15997 57.535 374.649 55.9 370.13998" stroke="#000000" stroke-width="0.7" stroke-linecap="round" fill="none" />
    <path d="M106.9 291.19C 104.188 300.055 99.524 319.579 103.033005 327.023C 104.063 315.06302 105.323006 302.883 106.90301 291.193" stroke="none" fill="#000000" fill-rule="nonzero" />
    <path d="M114.93 262.94C 111.695 272.544 109.209 295.451 113.443 303.234C 113.443 289.954 112.663 276.044 114.933 262.944" stroke="none" fill="#000000" fill-rule="nonzero" />
    <path d="M187.78 280.78C 180.836 278.624 177.309 271.445 175.44 264.872C 173.66 270.66202 181 279.91202 187.78 280.782" stroke="none" fill="#000000" fill-rule="nonzero" />
    <path d="M171.58 284.2C 170.847 281.24002 169.366 277.04202 168.457 275.428C 168.377 278.68802 169.477 281.84802 171.577 284.198" stroke="none" fill="#000000" fill-rule="nonzero" />
</g>
</svg>