<?xml version="1.0" standalone="no"?>
<!DOCTYPE svg PUBLIC "-//W3C//DTD SVG 1.0//EN" "http://www.w3.org/TR/2001/REC-SVG-20010904/DTD/svg10.dtd">
<svg xmlns="http://www.w3.org/2000/svg" xmlns:xlink="http://www.w3.org/1999/xlink" id="body_1" width="8" height="16">

<defs>
    <linearGradient transform="matrix(1 0 0 1 0.18898809 0.1889881)"  id="1" x1="82.05174" y1="45.766644" x2="148.06732" y2="210.67194">
        <stop stop-color="#FF8080" offset="0%"/>
        <stop stop-color="#00FFFF" offset="100%"/>
    </linearGradient>
    <linearGradient transform="matrix(1 0 0 1 0 0)"  id="260" x1="430.32498" y1="449.7581" x2="925.29974" y2="370.9662">
        <stop stop-color="#4D4D4D" offset="0%"/>
        <stop stop-color="#1A1A1A" offset="100%"/>
    </linearGradient>
</defs>

<g transform="matrix(0.077907875 0 0 0.077907875 0.019552756 -0)">
	<g transform="matrix(1 0 0 1 -59.96843 -21.325651)">
        <path d="M59.96851 39.392868C 59.96851 29.41462 66.97075 21.325651 75.60846 21.325651L75.60846 21.325651L146.51186 21.325651C 155.14955 21.325651 162.1518 29.41462 162.1518 39.392868L162.1518 39.392868L162.1518 208.6292C 162.1518 218.60744 155.14955 226.69641 146.51186 226.69641L146.51186 226.69641L75.60846 226.69641C 66.97075 226.69641 59.96851 218.60744 59.96851 208.6292L59.96851 208.6292L59.96851 39.392868z" stroke="none" fill="#FF00FF" fill-rule="nonzero" />
        <path d="M66.17107 35.903824C 66.17107 30.267315 72.363174 25.698019 80.00153 25.698019L80.00153 25.698019L141.82858 25.698019C 149.46693 25.698019 155.65906 30.267315 155.65906 35.903824L155.65906 35.903824L155.65906 210.49167C 155.65906 216.12817 149.46693 220.69746 141.82858 220.69746L141.82858 220.69746L80.00153 220.69746C 72.363174 220.69746 66.17107 216.12817 66.17107 210.49167L66.17107 210.49167L66.17107 35.903824z" stroke="none" fill="url(#1)" />
        <path d="M65.29539 37.14137C 65.29539 37.14137 65.67336 31.56622 69.9256 29.014881C 74.17783 26.463541 84.00521 27.125002 85.139145 27.59747C 86.27307 28.06994 85.0739 30.766447 87.59599 32.889137C 89.54933 34.533134 90.90328 34.59003 92.41519 34.495537C 94.87204 34.49553 131.44124 34.495537 131.44124 34.495537C 131.44124 34.495537 133.6146 34.306545 134.93752 31.755207C 136.18384 29.35157 135.221 28.542412 136.63841 27.691963C 138.05582 26.841516 154.59229 25.613094 155.25374 34.59003C 155.91519 43.566963 156.48216 42.433037 156.48216 42.433037L156.48216 42.433037L155.47008 25.509043L139.00076 23.534227L70.39809 24.857143L64.255974 32.70015L65.29539 37.14137z" stroke="none" fill="#000000" fill-rule="nonzero" />
        <path d="M76.52626 22.661743C 68.08608 22.661743 61.29135 30.622204 61.29135 40.510437L61.29135 40.510437L61.29135 207.70062C 61.29135 217.58884 68.08608 225.54929 76.52626 225.54929L76.52626 225.54929L145.59404 225.54929C 154.03423 225.54929 160.82893 217.58884 160.82893 207.70062L160.82893 207.70062L160.82893 40.510433C 160.82893 30.622202 154.03421 22.661741 145.59404 22.661741L145.59404 22.661741L76.52626 22.661743zM80.62179 26.794376L140.84763 26.794376C 148.31131 26.794376 154.32019 31.29091 154.32019 36.876575L154.32019 36.876575L154.32019 209.35419C 154.32019 214.93983 148.31133 219.43639 140.84763 219.43639L140.84763 219.43639L80.62179 219.43639C 73.158104 219.43639 67.14922 214.93983 67.14922 209.35419L67.14922 209.35419L67.14922 36.876575C 67.14922 31.290913 73.158104 26.794376 80.62179 26.794376z" stroke="none" fill="#000000" fill-rule="nonzero" />
        <path transform="matrix(0.26458332 0 0 0.26458332 0 0)"  d="M285.76367 80.60156C 253.01584 80.60156 226.65234 111.05653 226.65234 148.88672L226.65234 148.88672L226.65234 788.51953C 226.65234 826.34973 253.01584 856.8047 285.76367 856.8047L285.76367 856.8047L553.7461 856.8047C 586.4939 856.8047 612.8574 826.34973 612.8574 788.51953L612.8574 788.51953L612.8574 148.88672C 612.8574 111.05653 586.4939 80.60156 553.7461 80.60156L553.7461 80.60156L285.76367 80.60156zM301.6543 96.41211L535.3301 96.41211C 564.2891 96.41211 587.6035 113.61486 587.6035 134.98438L587.6035 134.98438L587.6035 794.8457C 587.6035 816.2152 564.2891 833.41797 535.3301 833.41797L535.3301 833.41797L301.6543 833.41797C 272.69525 833.41797 249.38086 816.2152 249.38086 794.8457L249.38086 794.8457L249.38086 134.98438C 249.38086 113.61485 272.69525 96.41211 301.6543 96.41211z" stroke="none" fill="url(#260)" />
        <path d="M120.40491 29.630243C 120.40491 28.947552 120.9733 28.394121 121.67444 28.394121C 122.37558 28.394121 122.94397 28.947552 122.94397 29.630243C 122.94397 30.312935 122.37558 30.866365 121.67444 30.866365C 120.9733 30.866365 120.40491 30.312935 120.40491 29.630243" stroke="#4E4E4E" stroke-width="0.6" stroke-linecap="square" fill="#000000" fill-rule="nonzero" />
        <path d="M105.57114 29.530018C 105.81512 29.663654 116.06224 29.530018 116.06224 29.530018" stroke="#3A3A3A" stroke-width="1.665" stroke-linecap="square" fill="none" />
	</g>
</g>
</svg>