<?xml version="1.0" standalone="no"?>
<!DOCTYPE svg PUBLIC "-//W3C//DTD SVG 1.0//EN" "http://www.w3.org/TR/2001/REC-SVG-20010904/DTD/svg10.dtd">
<svg xmlns="http://www.w3.org/2000/svg" xmlns:xlink="http://www.w3.org/1999/xlink" id="body_1" width="2" height="3">

<defs>
            <clipPath  id="1">

                <path clip-rule="evenodd" d="M-1.78992 2.68488L263.118 2.68488L263.118 443.9L-1.789917 443.9L-1.78992 2.68488z" />            </clipPath>
            <clipPath  id="2">

                <path clip-rule="evenodd" d="M-1.78992 2.68488L263.118 2.68488L263.118 443.9L-1.789917 443.9L-1.78992 2.68488z" />            </clipPath>
            <clipPath  id="3">

                <path clip-rule="evenodd" d="M-1.78992 2.68488L263.118 2.68488L263.118 443.9L-1.789917 443.9L-1.78992 2.68488z" />            </clipPath>
</defs>

<g transform="matrix(0.02433165 0 0 0.02433165 0.10785596 -0)">
	<g transform="matrix(1 0 0 1 -300.47687 -367.85696)">
        <path transform="matrix(0.2822222 0 0 0.2822222 300.15326 366.2931)"  clip-path="url(#1)"  d="M2.34927 145.99C 2.34927 64.7727 47.6566 2.29333 149.178 6.99187C 250.7 11.6345 264.74 81.9447 258.531 125.686C 252.267 169.427 187.438 232.41 174.181 261.608C 160.869 290.75 177.258 292.819 178.824 300.65L178.824 300.65L69.52711 302.216C 64.828606 210.03601 158.52 174.125 163.21802 144.424C 167.91702 114.778 150.74503 106.948 127.308014 102.24899C 103.87102 97.55049 82.00061 122.55299 92.90791 145.98999L92.90791 145.98999L2.3492813 145.98999L2.34927 145.99z" stroke="none" fill="#5B9BD5" fill-rule="nonzero" />
        <path transform="matrix(0.2822222 0 0 0.2822222 300.15326 366.2931)"  clip-path="url(#2)"  d="M2.34927 145.99C 2.34927 64.7727 47.6566 2.29333 149.178 6.99187C 250.7 11.6345 264.74 81.9447 258.531 125.686C 252.267 169.427 187.438 232.41 174.181 261.608C 160.869 290.75 177.258 292.819 178.824 300.65L178.824 300.65L69.52711 302.216C 64.828606 210.03601 158.52 174.125 163.21802 144.424C 167.91702 114.778 150.74503 106.948 127.308014 102.24899C 103.87102 97.55049 82.00061 122.55299 92.90791 145.98999L92.90791 145.98999L2.3492813 145.98999L2.34927 145.99z" stroke="#000000" stroke-width="2.4052024" fill="none" />
        <path d="M336.27176 459.0838C 326.91064 459.0838 319.3333 466.18735 319.3333 474.94864C 319.3333 483.70993 326.91064 490.81375 336.27176 490.81375C 345.63306 490.81375 353.22598 483.70993 353.22598 474.94864C 353.22598 466.18732 345.6331 459.0838 336.27176 459.0838z" stroke="none" fill="#5B9BD5" fill-rule="nonzero" />
        <path transform="matrix(0.2822222 0 0 0.2822222 300.15326 366.2931)"  clip-path="url(#3)"  d="M127.979 328.786C 94.80969 328.786 67.96089 353.95602 67.96089 385C 67.96089 416.044 94.80969 441.215 127.97899 441.215C 161.14899 441.215 188.053 416.044 188.053 385C 188.053 353.956 161.14899 328.786 127.97899 328.786" stroke="#000000" stroke-width="2.4052024" fill="none" />
	</g>
</g>
</svg>