<?xml version="1.0" standalone="no"?>
<!DOCTYPE svg PUBLIC "-//W3C//DTD SVG 1.0//EN" "http://www.w3.org/TR/2001/REC-SVG-20010904/DTD/svg10.dtd">
<svg xmlns="http://www.w3.org/2000/svg" xmlns:xlink="http://www.w3.org/1999/xlink" id="body_1" width="20" height="15">

<g transform="matrix(0.3125 0 0 0.3125 2.5 -0)">
	<g>
        <path transform="matrix(1 0 0 1 -0.37703133 -2.8001077)"  d="M47.453957 45.941494C 47.453957 47.14141 43.05552 48.25018 35.915493 48.85014C 28.775469 49.450096 19.978594 49.450096 12.838569 48.85014C 5.6985435 48.25018 1.3001099 47.14141 1.3001099 45.941494C 1.3001099 44.741577 5.6985455 43.63281 12.8385725 43.03285C 19.978598 42.43289 28.775473 42.43289 35.915497 43.03285C 43.055523 43.63281 47.453957 44.741577 47.453957 45.941494z" stroke="none" fill="none" />
		<g transform="matrix(1 0 0 1 -0.7063923 -0)">
            <path d="M3.706 7.5C 3.706 4.1862917 6.3922915 1.5 9.706 1.5L9.706 1.5L39.706 1.5C 43.019707 1.5 45.706 4.1862917 45.706 7.5L45.706 7.5L45.706 37.5C 45.706 40.81371 43.019707 43.5 39.706 43.5L39.706 43.5L9.706 43.5C 6.3922915 43.5 3.706 40.81371 3.706 37.5L3.706 37.5L3.706 7.5z" stroke="none" fill="#7C0000" fill-rule="nonzero" />
            <path transform="matrix(1 0 0 1 0.7063923 -1.4999995)"  d="M9 4.09375C 6.260877 4.09375 4.09375 6.260877 4.09375 9L4.09375 9L4.09375 39C 4.09375 41.739124 6.260877 43.90625 9 43.90625L9 43.90625L39 43.90625C 41.739124 43.90625 43.90625 41.739124 43.90625 39L43.90625 39L43.90625 9C 43.90625 6.260877 41.739124 4.09375 39 4.09375L39 4.09375L9 4.09375z" stroke="none" fill="#CC0000" fill-rule="nonzero" />
			<g transform="matrix(0.8900995 0 0 0.8900995 2.715245 2.4727614)">
                <path d="M10.4375 16.8125C 10.132636 16.841516 9.9013195 17.100048 9.90625 17.40625L9.90625 17.40625L9.90625 27.59375C 9.904406 27.75178 9.966369 27.903877 10.078121 28.015629C 10.189873 28.12738 10.3419695 28.189344 10.5 28.1875L10.5 28.1875L38.9375 28.1875C 39.09553 28.189344 39.247627 28.12738 39.359383 28.015629C 39.471134 27.903877 39.533096 27.75178 39.53125 27.59375L39.53125 27.59375L39.53125 17.40625C 39.533096 17.24822 39.471134 17.096123 39.359383 16.984371C 39.247627 16.87262 39.09553 16.810656 38.9375 16.8125L38.9375 16.8125L10.5 16.8125C 10.479181 16.81139 10.458319 16.81139 10.4375 16.8125z" stroke="none" fill="#A40000" fill-rule="nonzero" />
                <path d="M11.161649 18.09796L11.161649 26.902042L38.251133 26.902042L38.251133 18.09796L11.161648 18.09796L11.161649 18.09796z" stroke="none" fill="#EEEEEC" fill-rule="nonzero" />
			</g>
            <path transform="matrix(1 0 0 1 0.7063923 -1.4999995)"  d="M9 4.71875C 6.594385 4.71875 4.71875 6.594385 4.71875 9L4.71875 9L4.71875 39C 4.71875 41.405617 6.594385 43.28125 9 43.28125L9 43.28125L39 43.28125C 41.405617 43.28125 43.28125 41.405617 43.28125 39L43.28125 39L43.28125 9C 43.28125 6.594385 41.405617 4.71875 39 4.71875L39 4.71875L9 4.71875z" stroke="#000000" stroke-width="1" stroke-linecap="square" fill="none" stroke-opacity="0" />
            <path d="M9.706392 2.5937505C 6.9672694 2.5937505 4.8001423 4.7608776 4.8001423 7.5000005L4.8001423 7.5000005L4.8001423 24.65625C 16.88535 19.523108 30.480988 15.086728 44.61264 12.125001L44.61264 12.125001L44.61264 7.5000005C 44.61264 4.7608776 42.445515 2.5937505 39.70639 2.5937505L39.70639 2.5937505L9.70639 2.5937505L9.706392 2.5937505z" stroke="none" fill="none" />
		</g>
	</g>
</g>
</svg>