<?xml version="1.0" standalone="no"?>
<!DOCTYPE svg PUBLIC "-//W3C//DTD SVG 1.0//EN" "http://www.w3.org/TR/2001/REC-SVG-20010904/DTD/svg10.dtd">
<svg xmlns="http://www.w3.org/2000/svg" xmlns:xlink="http://www.w3.org/1999/xlink" id="body_1" width="20" height="15">

<g transform="matrix(0.05859375 0 0 0.05859375 2.5000005 -0)">
	<g transform="matrix(1 0 0 1 -290.27 -334.66)">
        <path d="M393.36 334.66C 366.938 334.66 340.511 344.687 320.425 364.773C 280.253 404.944 280.207 470.513 320.379 510.683C 355.596 545.899 410.29 550.241 450.319 523.713L450.319 523.713L511.237 584.629C 519.2756 592.6674 532.207 592.6674 540.245 584.629C 548.2837 576.59064 548.2837 563.66003 540.245 555.62103L540.245 555.62103L479.373 494.70502C 505.87 454.682 501.5 399.97302 466.296 364.765C 446.21 344.68002 419.78198 334.652 393.361 334.652L393.361 334.652L393.36 334.66zM393.314 361.826C 412.685 361.835 432.052 369.25348 446.91 384.111C 476.626 413.826 476.672 461.632 446.956 491.35098C 417.24 521.066 369.43298 521.066 339.716 491.35098C 310 461.636 310 413.831 339.716 384.111C 354.574 369.253 373.941 361.81598 393.312 361.826zM338.658 461.05C 337.6634 461.08942 336.7559 461.6282 336.24512 462.4825C 335.73438 463.33682 335.68936 464.39124 336.1255 465.28598C 346.3905 486.77597 368.3515 501.61398 393.72748 501.61398C 399.2339 501.61398 404.5695 500.89752 409.6595 499.58807C 410.95816 499.2333 411.85135 498.04364 411.82962 496.6976C 411.80792 495.3516 410.87683 494.19135 409.56738 493.87866C 384.07138 488.18387 360.66037 476.99667 340.59238 461.64767C 340.03864 461.22607 339.35355 461.01404 338.65848 461.0491z" stroke="none" fill="#000000" fill-rule="nonzero" />
	</g>
</g>
</svg>