<?xml version="1.0" standalone="no"?>
<!DOCTYPE svg PUBLIC "-//W3C//DTD SVG 1.0//EN" "http://www.w3.org/TR/2001/REC-SVG-20010904/DTD/svg10.dtd">
<svg xmlns="http://www.w3.org/2000/svg" xmlns:xlink="http://www.w3.org/1999/xlink" id="body_1" width="20" height="15">

<g transform="matrix(0.3125 0 0 0.3125 2.5 -0)">
	<g>
        <path transform="matrix(1 0 0 1 -0.3770313 -2.8001077)"  d="M47.453957 45.941494C 47.453957 47.14141 43.05552 48.25018 35.915493 48.85014C 28.775469 49.450096 19.978594 49.450096 12.838569 48.85014C 5.6985435 48.25018 1.3001099 47.14141 1.3001099 45.941494C 1.3001099 44.741577 5.6985455 43.63281 12.8385725 43.03285C 19.978598 42.43289 28.775473 42.43289 35.915497 43.03285C 43.055523 43.63281 47.453957 44.741577 47.453957 45.941494z" stroke="none" fill="none" />
        <path d="M3 7.5C 3 4.1862917 5.6862917 1.5 9 1.5L9 1.5L39 1.5C 42.31371 1.5 45 4.1862917 45 7.5L45 7.5L45 37.5C 45 40.81371 42.31371 43.5 39 43.5L39 43.5L9 43.5C 5.6862917 43.5 3 40.81371 3 37.5L3 37.5L3 7.5z" stroke="none" fill="#44274C" fill-rule="nonzero" />
        <path transform="matrix(1 0 0 1 -0 -1.4999995)"  d="M9 4.09375C 6.260877 4.09375 4.09375 6.260877 4.09375 9L4.09375 9L4.09375 39C 4.09375 41.739124 6.260877 43.90625 9 43.90625L9 43.90625L39 43.90625C 41.739124 43.90625 43.90625 41.739124 43.90625 39L43.90625 39L43.90625 9C 43.90625 6.260877 41.739124 4.09375 39 4.09375L39 4.09375L9 4.09375z" stroke="none" fill="#75507B" fill-rule="nonzero" />
		<g>
            <path d="M19.71875 6.25L15.75 7.84375C 14.524324 8.340724 13.985351 9.745298 14.46875 10.9375L14.46875 10.9375L14.96875 12.1875C 14.550965 12.560128 14.143181 12.932317 13.78125 13.34375L13.78125 13.34375L12.53125 12.8125C 12.023621 12.597767 11.350288 12.556119 10.78125 12.78125C 10.228104 13.000092 9.740002 13.390017 9.46875 14.03125L9.46875 14.03125L7.8125 17.96875C 7.320423 19.132015 7.925351 20.55022 9.0625 21.03125L9.0625 21.03125L10.34375 21.59375C 10.30698 22.13075 10.28521 22.674742 10.3125 23.21875L10.3125 23.21875L9.0625 23.71875C 7.876338 24.199703 7.2626686 25.57935 7.75 26.78125L7.75 26.78125L9.34375 30.75C 9.840724 31.975677 11.2453 32.51465 12.4375 32.03125L12.4375 32.03125L13.6875 31.53125C 14.060128 31.949036 14.432317 32.35682 14.84375 32.71875L14.84375 32.71875L14.3125 33.96875C 13.823957 35.12366 14.35523 36.533775 15.53125 37.03125L15.53125 37.03125L19.46875 38.6875C 20.63202 39.179585 22.050219 38.574642 22.53125 37.4375L22.53125 37.4375L23.09375 36.15625C 23.63075 36.19302 24.174742 36.21479 24.71875 36.1875L24.71875 36.1875L25.21875 37.4375C 25.699701 38.62367 27.07935 39.23733 28.28125 38.75L28.28125 38.75L32.25 37.15625C 33.475677 36.65928 34.01465 35.2547 33.53125 34.0625L33.53125 34.0625L33.03125 32.8125C 33.449036 32.439873 33.85682 32.067684 34.21875 31.65625L34.21875 31.65625L35.46875 32.1875C 36.623657 32.67604 38.03378 32.14478 38.53125 30.96875L38.53125 30.96875L40.1875 27.03125C 40.679585 25.867981 40.074646 24.449781 38.9375 23.96875L38.9375 23.96875L37.65625 23.40625C 37.69302 22.86925 37.71479 22.325258 37.6875 21.78125L37.6875 21.78125L38.9375 21.28125C 40.123672 20.800299 40.73733 19.42065 40.25 18.21875L40.25 18.21875L38.65625 14.25C 38.15928 13.024322 36.754704 12.485349 35.5625 12.96875L35.5625 12.96875L34.3125 13.46875C 33.939873 13.050964 33.567684 12.643181 33.15625 12.28125L33.15625 12.28125L33.6875 11.03125C 34.176044 9.876339 33.644775 8.466224 32.46875 7.96875L32.46875 7.96875L28.53125 6.3125C 27.367983 5.8204207 25.94978 6.4253488 25.46875 7.5625L25.46875 7.5625L24.90625 8.84375C 24.36925 8.806983 23.825258 8.785206 23.28125 8.8125L23.28125 8.8125L22.78125 7.5625C 22.300297 6.3763347 20.92065 5.762667 19.71875 6.25zM24.03125 19.09375C 25.359665 19.11385 26.62141 19.899685 27.15625 21.21875C 27.87019 22.979528 27.04124 24.942629 25.28125 25.65625C 23.520472 26.37019 21.55737 25.54124 20.84375 23.78125C 20.12981 22.02047 20.95876 20.05737 22.71875 19.34375C 23.163134 19.163567 23.591408 19.087093 24.03125 19.09375z" stroke="none" fill="#5C3566" fill-rule="nonzero" />
            <path d="M16.231203 9.007504C 15.668716 9.235576 15.40246 9.886858 15.634429 10.4589615L15.634429 10.4589615L16.45149 12.474067C 15.554377 13.14985 14.757483 13.944281 14.085542 14.812195L14.085542 14.812195L12.070908 13.959978C 11.786625 13.839723 11.500886 13.830841 11.238232 13.934758C 10.975578 14.038672 10.7472925 14.24091 10.629058 14.520414L10.629058 14.520414L8.961676 18.46209C 8.725207 19.0211 8.995093 19.646582 9.563659 19.887093L9.563659 19.887093L11.578294 20.73931C 11.423429 21.825954 11.40832 22.951092 11.548154 24.065516L11.548154 24.065516L9.533046 24.882574C 8.960943 25.114546 8.679004 25.759192 8.907074 26.32168L8.907074 26.32168L10.5075035 30.268795C 10.735575 30.831284 11.386858 31.097538 11.95896 30.86557L11.95896 30.86557L13.974067 30.048508C 14.64985 30.945621 15.444281 31.742516 16.312195 32.414455L16.312195 32.414455L15.459978 34.429092C 15.219467 34.997658 15.461378 35.63447 16.020412 35.87094L16.020412 35.87094L19.962088 37.538322C 20.521095 37.77479 21.146578 37.5049 21.38709 36.93634L21.38709 36.93634L22.239307 34.921707C 23.32595 35.07657 24.45109 35.09168 25.565514 34.951847L25.565514 34.951847L26.382576 36.966953C 26.614546 37.539055 27.259193 37.821 27.821682 37.592926L27.821682 37.592926L31.768799 35.992496C 32.331287 35.764427 32.59754 35.11314 32.365574 34.54104L32.365574 34.54104L31.54851 32.525932C 32.44562 31.85015 33.24252 31.055717 33.91446 30.187803L33.91446 30.187803L35.929096 31.040022C 36.49766 31.280533 37.134476 31.038622 37.370945 30.479588L37.370945 30.479588L39.038326 26.537912C 39.274796 25.978903 39.004906 25.35342 38.436344 25.112907L38.436344 25.112907L36.421707 24.26069C 36.576572 23.174047 36.59168 22.04891 36.451847 20.934484L36.451847 20.934484L38.466953 20.117422C 39.039055 19.885454 39.320995 19.240805 39.092926 18.678318L39.092926 18.678318L37.492496 14.731204C 37.264427 14.168717 36.613144 13.90246 36.04104 14.13443L36.04104 14.13443L34.025932 14.95149C 33.35015 14.054377 32.55572 13.257482 31.687805 12.585542L31.687805 12.585542L32.540024 10.570908C 32.780537 10.002343 32.538624 9.365527 31.97959 9.129059L31.97959 9.129059L28.037912 7.461677C 27.478903 7.2252083 26.85342 7.4950953 26.61291 8.06366L26.61291 8.06366L25.760693 10.078294C 24.674047 9.92343 23.548912 9.908321 22.434486 10.048153L22.434486 10.048153L21.617426 8.033048C 21.385456 7.4609447 20.740808 7.1790037 20.17832 7.4070754L20.17832 7.4070754L16.231205 9.007504L16.231203 9.007504zM22.247952 18.178947C 24.633173 17.211817 27.353922 18.36273 28.321053 20.747952C 29.288183 23.133171 28.13727 25.85392 25.752048 26.821053C 23.366829 27.788183 20.646078 26.637268 19.678947 24.252048C 18.711817 21.866829 19.86273 19.146078 22.247952 18.178947z" stroke="none" fill="none" />
		</g>
        <path transform="matrix(1 0 0 1 -0 -1.4999995)"  d="M9 4.71875C 6.594385 4.71875 4.71875 6.594385 4.71875 9L4.71875 9L4.71875 39C 4.71875 41.405617 6.594385 43.28125 9 43.28125L9 43.28125L39 43.28125C 41.405617 43.28125 43.28125 41.405617 43.28125 39L43.28125 39L43.28125 9C 43.28125 6.594385 41.405617 4.71875 39 4.71875L39 4.71875L9 4.71875z" stroke="#000000" stroke-width="1" stroke-linecap="square" fill="none" stroke-opacity="0" />
        <path d="M9 2.5937505C 6.260877 2.5937505 4.09375 4.7608776 4.09375 7.5000005L4.09375 7.5000005L4.09375 24.65625C 16.178959 19.523108 29.774595 15.086727 43.90625 12.125L43.90625 12.125L43.90625 7.4999995C 43.90625 4.7608767 41.739124 2.5937495 39 2.5937495L39 2.5937495L9 2.5937495L9 2.5937505z" stroke="none" fill="none" />
        <path d="M97.2549 133.01L112.7451 133.01C 117.005005 133.01 120.490204 136.4952 120.490204 140.7551L120.490204 140.7551L120.490204 156.2453C 120.490204 160.5052 117.005005 163.9904 112.7451 163.9904L112.7451 163.9904L97.2549 163.9904C 92.994995 163.9904 89.509796 160.5052 89.509796 156.2453L89.509796 156.2453L89.509796 140.7551C 89.509796 136.4952 92.994995 133.01 97.2549 133.01z" stroke="#1F1A17" stroke-width="0.076" fill="none" />
        <path d="M97.2549 133.01L112.7451 133.01C 117.005005 133.01 120.490204 136.4952 120.490204 140.7551L120.490204 140.7551L120.490204 156.2453C 120.490204 160.5052 117.005005 163.9904 112.7451 163.9904L112.7451 163.9904L97.2549 163.9904C 92.994995 163.9904 89.509796 160.5052 89.509796 156.2453L89.509796 156.2453L89.509796 140.7551C 89.509796 136.4952 92.994995 133.01 97.2549 133.01z" stroke="#1F1A17" stroke-width="0.076" fill="none" />
	</g>
</g>
</svg>