<?xml version="1.0" standalone="no"?>
<!DOCTYPE svg PUBLIC "-//W3C//DTD SVG 1.0//EN" "http://www.w3.org/TR/2001/REC-SVG-20010904/DTD/svg10.dtd">
<svg xmlns="http://www.w3.org/2000/svg" xmlns:xlink="http://www.w3.org/1999/xlink" id="body_1" width="5" height="5">

<defs>
            <clipPath  id="1">

                <path clip-rule="evenodd" d="M3390.07 1339.7589C 3390.0703 1467.3367 3344.9648 1576.2312 3254.7534 1666.4423C 3164.5425 1756.6533 3055.648 1801.7589 2928.07 1801.7589C 2800.4924 1801.7589 2691.598 1756.6533 2601.3867 1666.4423C 2511.1758 1576.2312 2466.07 1467.3367 2466.07 1339.7589C 2466.07 1212.1812 2511.1758 1103.2867 2601.3867 1013.07556C 2691.598 922.8645 2800.4924 877.7589 2928.07 877.7589C 3055.648 877.7589 3164.5425 922.8645 3254.7534 1013.07556C 3344.9648 1103.2867 3390.0703 1212.1812 3390.07 1339.7589C 3390.0703 1345.135 3389.9766 1350.5095 3389.7886 1355.8824" />            </clipPath>
</defs>

<g transform="matrix(0.020821488 0 0 0.020821488 -0 -1.5885534E-07)">
	<g transform="matrix(1 0 0 1 -234.14919 -259.22787)">
        <path d="M473.25507 379.29614C 473.25507 412.16748 461.6333 440.2249 438.38974 463.46844C 415.1462 486.71204 387.08878 498.3338 354.21744 498.33377C 321.3461 498.3338 293.28867 486.71204 270.04514 463.46844C 246.80159 440.2249 235.17981 412.16748 235.17981 379.29614C 235.17981 346.4248 246.80159 318.36737 270.04514 295.12384C 293.28867 271.8803 321.3461 260.2585 354.21744 260.2585C 387.08878 260.2585 415.1462 271.8803 438.38974 295.12384C 461.6333 318.36737 473.25507 346.4248 473.25507 379.29614C 473.25507 380.68137 473.2309 382.06616 473.18256 383.4505" stroke="#000000" stroke-width="2.0612576" fill="#FFFFFF" fill-rule="nonzero" />
		<g transform="matrix(0.2576572 0 0 0.2576572 -400.22092 34.097588)" clip-path="url(#1)" >
            <path d="M2726.1033 1164.2368C 2724.4705 1147.9247 2717.6462 1108.5282 2741.2002 1097.3783C 2838.0994 1051.5087 2932.834 1038.3961 3038.8286 1045.6168C 3068.3289 1047.6265 3071.1794 1058.5573 3073.3362 1097.3783C 3076.2297 1149.4622 3101.753 1353.3477 3088.4333 1576.1716C 3087.395 1593.5436 3084.1199 1614.9927 3056.0825 1617.1494C 3028.045 1619.3063 2920.8164 1629.0774 2842.5664 1621.4629C 2820.6638 1619.3315 2799.1968 1608.5833 2790.805 1576.1716C 2766.8118 1483.5016 2742.9185 1332.2322 2726.103 1164.2367L2726.103 1164.2367L2726.1033 1164.2368z" stroke="#000000" stroke-width="8" fill="#CCCCCC" fill-rule="nonzero" />
            <path d="M2756.2974 1179.3339C 2754.9019 1160.9034 2737.7954 1138.6158 2769.2378 1125.4156C 2857.1892 1088.4917 2912.4004 1088.7439 3008.6345 1088.7512C 3060.812 1088.7512 3058.2393 1106.0051 3060.396 1146.9829C 3062.708 1190.9109 3070.4407 1418.1305 3073.3362 1563.2312C 3073.603 1576.601 3069.8245 1593.9958 3040.9854 1595.5822C 3023.81 1596.527 2907.6226 1601.8477 2844.7231 1591.2687C 2825.0251 1587.9557 2820.9802 1572.3125 2814.529 1539.5072C 2792.137 1425.6381 2761.8428 1252.5793 2756.2974 1179.3337L2756.2974 1179.3337L2756.2974 1179.3339z" stroke="#000000" stroke-width="8" fill="#FFFFFF" fill-rule="nonzero" />
            <path d="M2890.0144 1438.1412C 2890.0144 1438.1412 2820.2546 1388.1665 2844.7231 1347.5587C 2866.295 1311.7583 2908.5732 1336.8379 2935.0107 1356.5803C 2984.83 1393.7836 3017.9548 1479.4321 3073.336 1438.1412C 3073.336 1438.1412 3079.9446 1373.2742 3081.963 1347.5586L3081.963 1347.5586L3079.8062 1175.0205C 3079.8062 1175.0205 3172.5454 1203.0579 3185.4858 1319.5211C 3198.4263 1435.9844 3200.583 1621.463 3217.8367 1671.0677C 3235.0906 1720.6725 3263.128 1817.7252 3263.128 1817.7252L3263.128 1817.7252L3019.4177 1852.2328C 3041.9941 1755.1628 3050.6853 1681.7535 3060.3955 1582.6418C 3060.3955 1582.6418 3040.9849 1591.2688 2995.6936 1552.4476C 2950.4023 1513.6266 2928.8352 1468.3352 2890.014 1438.1411L2890.014 1438.1411L2890.0144 1438.1412z" stroke="#000000" stroke-width="8" fill="#E6E6E6" fill-rule="nonzero" />
            <path d="M2736.8867 1187.9608C 2762.7673 1209.5281 2764.8884 1240.3024 2749.827 1259.1328C 2739.0403 1272.6184 2711.0059 1295.7971 2698.0654 1261.2896C 2678.3257 1219.4578 2714.0261 1170.1521 2736.8865 1187.9608L2736.8865 1187.9608L2736.8867 1187.9608z" stroke="#000000" stroke-width="8" fill="#E6E6E6" fill-rule="nonzero" />
            <path d="M2706.6926 1369.1259C 2726.103 1390.6931 2743.357 1390.6931 2758.454 1384.2229C 2788.672 1354.1057 2764.535 1280.7118 2728.26 1282.8568C 2691.6357 1295.1494 2696.3225 1357.1044 2706.6929 1369.1259L2706.6929 1369.1259L2706.6926 1369.1259z" stroke="#000000" stroke-width="8" fill="#E6E6E6" fill-rule="nonzero" />
            <path d="M2734.73 1468.3353C 2757.87 1480.3206 2776.2434 1454.1487 2780.0212 1435.9844C 2783.4355 1419.568 2764.5447 1395.6852 2754.1406 1392.8497C 2709.9773 1380.8141 2719.9705 1460.6907 2734.73 1468.3352L2734.73 1468.3352L2734.73 1468.3353z" stroke="#000000" stroke-width="8" fill="#E6E6E6" fill-rule="nonzero" />
            <path d="M2827.4692 1259.1329L2853.35 1215.9983L2911.5818 1259.1329L2969.8135 1123.259L3017.2615 1159.9235L2939.6194 1330.3049L2827.4692 1259.1329z" stroke="none" fill="#CD87DE" fill-rule="nonzero" />
		</g>
	</g>
</g>
</svg>