<?xml version="1.0" standalone="no"?>
<!DOCTYPE svg PUBLIC "-//W3C//DTD SVG 1.0//EN" "http://www.w3.org/TR/2001/REC-SVG-20010904/DTD/svg10.dtd">
<svg xmlns="http://www.w3.org/2000/svg" xmlns:xlink="http://www.w3.org/1999/xlink" id="body_1" width="7" height="9">

<g transform="matrix(0.020172913 0 0 0.02013423 0 0)">
    <path d="M159.07 414.39C 152.43001 413.09003 128.75 412 119.75001 412.58002C 107.950005 413.33002 73.27301 413.30002 68.95501 412.52002C 62.85401 411.43002 63.16301 411.7 62.76301 407.06003C 62.565006 404.76004 61.94901 400.45004 61.396008 397.48004C 60.843006 394.51004 60.56701 391.80005 60.785007 391.44003C 61.153008 390.85004 73.76301 390.95004 82.05101 391.61005C 89.24101 392.18005 105.71001 392.05005 113.54001 391.36005C 124.380005 390.40005 151.99 390.98004 153.97 392.21005C 154.68001 392.65005 188.26001 392.66006 196.18 392.22006C 204.87 391.74005 206.84 391.77005 215.2 392.50006C 227.13 393.54007 228.23999 394.13007 226.16 398.30005C 225.58 399.45004 225.17 401.86005 225.17 404.09006C 225.17 407.44006 223.61 413.69006 222.5 414.80005C 222.29 415.01004 221.19 414.86005 220.06 414.46005C 218.93 414.06006 212.95 413.59006 206.78 413.40005C 197.9 413.13007 194.95999 413.25006 192.75 413.97006C 189.52 415.02005 163.93 415.33005 159.07 414.39008L159.07 414.39008L159.07 414.39zM213.95001 387.87003C 212.75002 387.43002 210.15001 387.05002 208.18001 387.02002L208.18001 387.02002L204.59001 386.98L204.6 383.7C 204.6 381.90002 205.02 379.63 205.53 378.64C 206.05 377.66 206.47 375.75 206.47 374.40002C 206.47 373.05005 206.84 371.19003 207.3 370.26C 207.75 369.34 208.2 367.18002 208.29001 365.47C 208.38002 363.75998 208.77 361.8 209.17001 361.11002C 209.81001 359.98 210.34001 357.25003 211.97002 346.75003C 212.23001 345.04004 212.79002 343.02002 213.20001 342.27002C 213.61 341.52002 213.96 339.98 213.97002 338.84003C 213.98001 337.71002 214.39001 336.07004 214.88002 335.22003C 215.38002 334.35004 215.79002 331.96002 215.80002 329.84003C 215.81001 327.22003 216.12003 325.77002 216.76003 325.24002C 217.33003 324.76 217.69002 323.39 217.69002 321.69003C 217.69002 320.17004 217.97002 318.39005 218.32002 317.75003C 218.66002 317.11002 219.35002 313.97003 219.84003 310.77002C 220.33003 307.58002 221.19003 303.01 221.74002 300.6C 222.29002 298.2 222.95003 294.35 223.20003 292.04C 223.45003 289.73 224.00003 287.5 224.42003 287.08002C 224.83003 286.66 225.17003 284.82 225.17003 282.99002C 225.17003 281.15002 225.56003 278.89 226.02003 277.97003C 226.49004 277.04004 227.05003 274.07004 227.27003 271.36005C 227.49004 268.65005 227.91003 266.12006 228.21004 265.75006C 228.51004 265.37006 228.90004 263.27005 229.09004 261.09006C 229.28004 258.90005 229.74004 256.81006 230.11005 256.44006C 230.48006 256.07007 230.80005 254.21007 230.81004 252.30006C 230.82004 250.40007 231.23004 248.14006 231.72005 247.28006C 232.21005 246.43005 232.62004 244.28006 232.64005 242.52007C 232.65004 240.76007 233.06004 237.95006 233.54004 236.29007C 234.55003 232.86008 235.57004 226.47006 236.41003 218.44006C 236.73004 215.43007 237.27003 212.44006 237.63004 211.77007C 237.98004 211.11006 238.28003 209.36006 238.29004 207.88007C 238.29004 206.40007 238.59004 204.07007 238.95004 202.69006C 239.31004 201.32007 239.79004 198.52007 240.03004 196.46007L240.03004 196.46007L240.45004 192.72006L245.13004 192.55006C 249.35004 192.40007 249.99004 192.54007 251.68004 193.95006C 253.42004 195.41006 253.47003 195.58006 252.46004 196.37006C 251.73004 196.94006 251.37004 198.08006 251.37004 199.84006C 251.37004 201.28006 250.96004 203.78006 250.47005 205.38005C 249.08005 209.95006 248.83005 214.25005 249.94005 214.68005C 250.45004 214.88005 251.05005 214.77005 251.27005 214.45006C 251.88005 213.59006 260.61005 207.89006 263.84006 206.27005C 265.38007 205.49005 267.49005 204.32005 268.52005 203.66005C 269.55005 203.01006 271.51004 201.86005 272.88004 201.11005C 274.25003 200.37004 275.60004 199.37004 275.88004 198.89005C 276.15002 198.41005 276.67004 198.02005 277.03003 198.02005C 277.39 198.02005 278.75003 197.18005 280.05002 196.15005C 281.35 195.12006 282.83002 194.28006 283.34003 194.28006C 283.85004 194.28006 284.62003 193.85007 285.04004 193.34006C 285.47003 192.83006 286.30005 192.40005 286.88004 192.40005C 288.01004 192.40005 290.66003 194.87006 290.66003 195.91005C 290.66003 196.26006 291.50003 197.34004 292.53003 198.33005C 293.58002 199.34004 294.40002 200.77005 294.40002 201.61005C 294.40002 202.43005 294.82004 203.52005 295.33002 204.03004C 295.85 204.55005 296.27002 205.20004 296.27002 205.48004C 296.27002 206.14005 283.09003 215.81004 280.68002 216.93004C 280.16003 217.17004 278.90002 217.92004 277.87003 218.59004C 276.84003 219.27003 275.44003 220.11005 274.75003 220.47005C 274.07004 220.82005 272.66003 221.65004 271.63004 222.31004C 270.61005 222.98004 268.50003 224.16005 266.96002 224.94005C 265.41003 225.72005 263.03003 227.07005 261.66003 227.93005C 257.65002 230.43005 256.74002 230.98006 255.42003 231.68005C 254.73003 232.04005 253.33003 232.89006 252.30003 233.56006C 251.27003 234.24005 249.87004 235.05006 249.18004 235.35005C 247.09004 236.30005 245.93004 238.11005 245.54004 241.05005C 244.90004 245.78004 243.51004 251.89005 242.74004 253.32005C 242.34004 254.07005 242.01004 256.12006 242.01004 257.88007C 242.01004 259.63007 241.58005 261.90005 241.05003 262.92007C 240.52003 263.95007 240.22003 264.99008 240.38004 265.25006C 240.54004 265.50006 240.25003 267.67007 239.74004 270.06006C 239.23004 272.45004 238.59004 276.24005 238.31004 278.47006C 238.04004 280.70007 237.51004 283.22006 237.14005 284.08005C 236.77005 284.94003 236.29004 287.81006 236.07004 290.47006C 235.85004 293.12006 235.41003 295.45007 235.10004 295.65005C 234.79004 295.84006 234.53003 296.90005 234.53003 298.00006C 234.53003 299.09006 234.23003 300.97006 233.85004 302.17007C 233.48004 303.3701 232.95004 306.03006 232.66003 308.0901C 231.62004 315.6001 230.69003 320.6301 229.81003 323.45007C 229.32002 325.04007 228.91003 327.71008 228.91003 329.38007C 228.91003 331.04007 228.49004 333.21005 227.98004 334.20007C 227.46004 335.18008 227.04004 337.56006 227.04004 339.50006C 227.04004 341.43005 226.62004 343.82007 226.11005 344.80005C 225.59004 345.78006 225.17004 348.18005 225.17004 350.14005C 225.17004 352.29004 224.81004 354.16003 224.26004 354.90005C 223.75005 355.56006 223.33005 357.44006 223.32004 359.08005C 223.31004 360.71005 222.90004 363.66003 222.42004 365.63004C 221.23004 370.43002 220.30005 375.05005 219.32004 381.05005C 218.07004 388.70004 217.65004 389.22006 213.95004 387.87006zM182.92001 386.91003C 181.89001 385.85004 181.93001 380.60004 183.00002 376.35004C 183.47002 374.48004 184.03001 370.76004 184.24002 368.08005C 184.45003 365.41003 184.91002 362.69003 185.26003 362.04004C 185.60002 361.40002 185.90002 358.95004 185.92003 356.62003C 185.94003 354.28003 186.22003 350.96002 186.54002 349.25003C 188.14003 340.69003 189.17003 333.75003 189.59003 328.66003C 189.84003 325.56003 190.38002 322.43002 190.77002 321.68002C 191.17001 320.94003 191.50002 318.55002 191.50002 316.37003C 191.50002 314.19003 191.92001 310.79004 192.43001 308.81003C 192.95001 306.84003 193.37001 303.98004 193.37001 302.47003C 193.37001 300.95004 193.76001 298.51004 194.24 297.04004C 194.72 295.57004 195.25 291.91003 195.42 288.90002C 195.59 285.90002 196 283.09003 196.34 282.67C 196.68 282.24002 197.09 279.73 197.25 277.09003C 197.41 274.44003 197.83 271.91003 198.18 271.47003C 198.52998 271.03003 198.98999 268.19003 199.21999 265.16003C 199.43999 262.13004 199.89998 259.13004 200.23999 258.49002C 200.57999 257.86002 200.84999 255.55002 200.84999 253.35002C 200.84999 251.15002 201.26999 247.98003 201.77998 246.29002C 202.28998 244.61003 202.70998 241.82002 202.71999 240.09003C 202.71999 238.36003 203.13998 235.33003 203.65999 233.35002C 204.16998 231.38002 204.58998 228.30002 204.58998 226.51003C 204.58998 224.73003 204.88998 222.29002 205.23997 221.09003C 205.59998 219.89003 206.03998 216.10002 206.21997 212.67003C 206.39996 209.24004 206.94997 204.85002 207.43997 202.92003C 207.92998 200.98003 208.33997 197.90002 208.33997 196.06003C 208.33997 191.61003 210.04997 187.42003 211.88997 187.42003C 212.63997 187.42003 213.43997 187.73003 213.67996 188.11003C 213.91997 188.50003 214.95996 188.66003 216.07996 188.48003C 217.16995 188.30003 219.30995 188.43002 220.83995 188.76003C 222.35995 189.09003 225.28995 189.63002 227.33995 189.96002C 231.61995 190.64001 232.38995 191.17003 231.48994 192.80002C 231.13994 193.44002 230.67995 195.29002 230.46994 196.91002C 230.25993 198.53001 229.82994 200.02002 229.49994 200.22002C 229.17993 200.42001 228.91994 203.04002 228.91994 206.03001C 228.91994 209.03001 228.48994 213.09001 227.97993 215.07C 227.46994 217.04001 227.03993 219.98001 227.01993 221.59001C 227.00993 223.20001 226.59993 225.22002 226.10992 226.08002C 225.61992 226.94002 225.20993 229.13002 225.19992 230.95001C 225.17992 232.78001 224.88992 234.79001 224.54993 235.44002C 224.20993 236.08002 223.64993 239.27002 223.30992 242.52002C 222.96992 245.78001 222.41992 249.66002 222.07993 251.14001C 220.70993 257.09003 220.04993 260.92 219.57993 265.68002C 219.29993 268.43002 218.78993 271.51 218.42993 272.54C 218.06993 273.57 217.44994 276.66 217.06993 279.4C 216.67993 282.15 216.08994 286.32 215.75993 288.68C 215.42993 291.03998 214.87993 293.47 214.54993 294.09C 214.21992 294.71 213.94992 296.78 213.94992 298.68C 213.94992 300.58 213.54993 303.19998 213.05992 304.49C 212.57993 305.78 212.03992 308.61 211.86992 310.75998C 211.70992 312.91998 211.29991 315.02 210.96992 315.43997C 210.64992 315.84998 210.19992 317.95996 209.98993 320.11996C 209.76993 322.27997 209.30994 324.57996 208.96992 325.22995C 208.61992 325.86996 208.33992 327.64996 208.33992 329.16995C 208.33992 330.69995 207.95992 332.88995 207.49992 334.04996C 207.02992 335.20996 206.58992 337.68997 206.51993 339.57996C 206.43993 341.46997 205.97993 343.62994 205.48993 344.38995C 204.99992 345.14996 204.58994 346.97995 204.58994 348.44995C 204.58994 349.91995 204.16994 351.91995 203.65994 352.89996C 203.13994 353.88995 202.71994 356.03998 202.71994 357.69995C 202.71994 359.34995 202.42995 361.47995 202.06995 362.42996C 201.70995 363.37997 201.15994 365.99997 200.85994 368.23996C 200.54994 370.48996 200.10994 373.01996 199.88994 373.87997C 199.65994 374.73996 199.21994 377.66998 198.91994 380.39996C 198.60994 383.16995 197.96994 385.75995 197.47993 386.24997C 196.23993 387.48996 184.02994 388.03998 182.91994 386.90997zM70.210014 385.74002C 69.69102 385.17 69.266014 383.82 69.266014 382.76C 69.266014 381.69 69.00901 380.15002 68.695015 379.32C 68.38101 378.5 68.03702 375.04 67.929016 371.64C 67.822014 368.24002 67.403015 364.76 66.99802 363.90002C 66.59302 363.05002 66.12102 359.12003 65.95002 355.17C 65.77802 351.23 65.33102 347.02002 64.95702 345.82C 64.58303 344.62 64.27702 341.24002 64.27702 338.31C 64.27702 335.37997 63.89802 331.45 63.436024 329.58C 62.973022 327.71 62.529022 322.81 62.448025 318.71C 62.367023 314.6 62.083023 310.81 61.816025 310.28998C 61.550026 309.75998 61.288025 308.34998 61.233025 307.14996C 60.940025 300.68997 59.921024 289.60995 59.370026 286.87997C 59.023026 285.16998 58.722027 282.02997 58.701027 279.90997C 58.681026 277.78998 58.360027 275.25998 57.989025 274.3C 57.617023 273.33 57.053024 269.31 56.736027 265.37C 56.418026 261.41998 56.010025 257.36 55.829025 256.33C 55.648026 255.29999 55.238026 251.79 54.918026 248.52998C 54.598026 245.26997 54.208027 241.76999 54.051025 240.73999C 53.894024 239.70999 53.535027 237.31999 53.253025 235.43999C 52.743027 232.02998 52.704025 231.97998 47.618027 228.26C 40.569027 223.11 35.377026 219.28 32.280025 216.92C 30.842026 215.83 29.409025 214.92 29.097025 214.9C 28.784025 214.87 26.399025 213.23999 23.796024 211.26C 21.193024 209.29 17.520023 206.62999 15.633024 205.37C 13.747025 204.09999 11.094025 201.93 9.738324 200.54C 8.3825245 199.15 6.760024 198.01999 6.132924 198.01999C 3.943324 198.01999 3.9423242 196.26 6.130024 192.93999C 12.458024 183.35999 12.726025 183.04999 13.779024 183.99998C 14.338024 184.50998 15.093024 184.91998 15.455024 184.91998C 15.817023 184.91998 17.648024 186.17998 19.523024 187.72998C 21.397024 189.26997 23.219025 190.52998 23.571024 190.52998C 23.924025 190.52998 24.561024 190.94998 24.988024 191.46999C 25.415024 191.97998 26.242023 192.39998 26.826023 192.39998C 27.411022 192.39998 28.569023 193.13998 29.401024 194.02998C 30.232023 194.91998 31.474024 195.90999 32.160023 196.21999C 35.068024 197.52998 40.498024 200.80998 43.564022 203.10999C 46.10202 205.00998 47.32302 205.52998 48.86502 205.37999C 50.83102 205.18999 50.86402 205.13998 50.64602 202.4C 50.523018 200.87 50.17202 198.95999 49.86602 198.15C 49.23502 196.48999 49.11502 189.9 49.68802 188.4C 49.99202 187.61 51.10402 187.42 55.31402 187.42C 61.690018 187.42 61.46502 187.08 62.38202 197.81999C 62.739017 201.99998 63.31102 206.15999 63.65402 207.06C 63.996017 207.95999 64.277016 210.52 64.277016 212.75C 64.277016 214.98 64.60602 217.42 65.00902 218.17C 65.41202 218.92 65.81002 220.8 65.89402 222.34C 65.97802 223.87999 66.37902 227.95 66.78602 231.37999C 67.193016 234.80998 67.74102 240.69998 68.00302 244.48C 68.26502 248.25 68.79002 252.45999 69.16902 253.83C 69.54902 255.2 69.86702 258.57 69.87702 261.32C 69.886024 264.06 70.30902 268.83002 70.816025 271.92C 71.32303 275 71.745026 279.35 71.75302 281.58002C 71.76102 283.81003 72.18702 288.42 72.69902 291.82C 73.21202 295.22 73.63102 299.80002 73.63102 301.99002C 73.63102 304.19003 73.94102 306.57 74.31902 307.27002C 74.69702 307.98 75.25102 311.54 75.550026 315.18002C 75.84903 318.83002 76.36102 323.35004 76.68803 325.24002C 77.01402 327.12003 77.302025 331.6 77.32703 335.19003C 77.35203 338.78006 77.77903 344.39005 78.275024 347.66003C 80.25102 360.70004 80.80502 365.84003 81.30402 375.75003C 81.398026 377.64005 81.83202 379.83002 82.26702 380.61002C 82.70202 381.40002 82.97102 383.08002 82.86602 384.35L82.86602 384.35L82.67402 386.67L76.91402 386.72C 72.27002 386.77 70.972015 386.58 70.210014 385.74zM152.419 385.99002C 151.929 384.72003 152.76901 356.41003 153.319 355.53003C 153.549 355.16003 153.929 348.97003 154.149 341.76004C 154.379 334.56003 154.879 327.88004 155.259 326.91003C 155.659 325.88004 155.959 320.86005 155.96901 314.75003C 155.98901 307.88004 156.29901 303.08002 156.899 300.60004C 157.489 298.17004 157.829 293.16003 157.869 286.26004C 157.909 280.43005 158.179 272.99005 158.479 269.73004C 158.769 266.48004 159.289 255.81004 159.639 246.04004C 159.979 236.26004 160.419 226.72003 160.619 224.83005C 160.82901 222.95004 161.139 215.09004 161.32901 207.37006C 161.509 199.65005 161.869 192.36006 162.10901 191.16006L162.10901 191.16006L162.559 188.97006L172.199 188.97006C 177.49901 188.97006 185.039 189.12006 188.959 189.29007C 196.069 189.60007 196.089 189.60007 196.539 191.28008C 196.829 192.36008 196.679 193.36008 196.129 194.09007C 195.519 194.90007 195.269 197.43007 195.259 203.20007C 195.24901 208.17007 194.959 211.71007 194.49901 212.56007C 194.089 213.31007 193.649 216.59007 193.529 219.84007C 193.40901 223.10007 193.029 227.17007 192.68901 228.89008C 192.339 230.60008 191.79901 235.09007 191.479 238.87007C 191.169 242.64008 190.729 246.71007 190.519 247.91006C 190.30899 249.11006 189.879 252.62007 189.569 255.70006C 189.269 258.79007 188.729 261.96005 188.389 262.75006C 188.039 263.54007 187.759 266.21005 187.759 268.70007C 187.759 271.18008 187.339 274.83008 186.819 276.81006C 186.309 278.78006 185.889 282.29007 185.889 284.60007C 185.889 286.91006 185.49901 290.34006 185.029 292.21005C 184.54901 294.08005 184.009 298.06006 183.809 301.05005C 183.60901 304.05005 183.169 307.03006 182.819 307.69006C 182.459 308.34006 182.139 311.23007 182.089 314.10007C 182.039 317.06006 181.60901 320.26007 181.099 321.50006C 180.569 322.75006 180.189 325.70007 180.179 328.46005C 180.179 331.57004 179.869 333.64005 179.309 334.38007C 178.739 335.14008 178.429 337.33008 178.389 340.83008C 178.369 343.74008 178.04901 347.39008 177.699 348.94006C 177.339 350.48007 176.809 354.87006 176.529 358.70007C 176.24901 362.5301 175.709 366.23007 175.339 366.92007C 174.959 367.6201 174.65901 369.82007 174.649 371.8101C 174.639 373.8101 174.229 377.1201 173.739 379.18008C 173.239 381.24008 172.819 383.8401 172.809 384.95007L172.809 384.95007L172.789 386.98007L162.789 386.98007C 154.24901 386.98007 152.739 386.83008 152.419 385.99008zM91.21701 385.61002C 90.74001 385.13 90.46901 382.7 90.46901 378.90002C 90.46901 375.62003 90.170006 371.96002 89.80401 370.76C 89.43801 369.56 88.89601 365.07 88.601006 360.78C 88.30501 356.5 87.784004 351.35 87.44201 349.35C 87.101006 347.35 86.74201 342.16 86.64501 337.82C 86.54801 333.47 86.11901 328.93 85.69001 327.73C 85.26201 326.53 84.89901 323.11002 84.88401 320.12003C 84.86901 317.14 84.48101 313.21002 84.02301 311.39C 83.56401 309.58002 83.12401 304.6 83.04501 300.34003C 82.947014 295.08002 82.613014 292.03003 82.00701 290.86002C 81.377014 289.64 81.11501 286.91 81.11501 281.57C 81.11501 277.37 80.81702 273.46002 80.443016 272.76C 80.07401 272.07 79.61601 267.81 79.42502 263.29C 79.23402 258.78 78.81302 254.74 78.48902 254.33C 78.16602 253.93001 77.65502 250.42 77.35302 246.54001C 77.05202 242.66 76.53502 237.8 76.20602 235.75002C 75.877014 233.69002 75.583015 229.71002 75.555016 226.90001C 75.52602 224.09001 75.20202 221.01001 74.835014 220.04001C 74.46802 219.08 73.92602 214.92001 73.63201 210.8C 73.33701 206.69 72.81201 201.92 72.46501 200.2C 72.11801 198.48999 71.81801 195.08 71.79701 192.62999C 71.76701 189.01999 71.958015 188.09999 72.80001 187.76999C 73.37201 187.54999 74.12901 187.65999 74.48401 188.01999C 74.86601 188.4 78.73201 188.65999 84.00901 188.65999C 88.94901 188.65999 93.05301 188.93 93.25601 189.26C 93.458015 189.58 93.79001 193.72 93.99401 198.45C 94.197014 203.19 94.64401 207.59999 94.98701 208.25C 95.32901 208.91 95.823006 213.82 96.08501 219.17C 96.34701 224.51 96.854004 229.62 97.212006 230.53C 97.57001 231.43 97.923004 236.9 97.996 242.69C 98.068 248.47 98.372 253.69 98.669 254.27C 98.966995 254.85 99.504 261.31 99.863 268.61002C 100.219 275.92 100.629 282.88 100.769 284.08002C 100.898994 285.28003 101.169 290.33002 101.35899 295.30002C 101.548996 300.28003 101.968994 306.17 102.288994 308.40002C 102.60899 310.63004 102.84899 313.72003 102.828995 315.26C 102.70899 321.97 103.739 339.01 104.508995 343.01C 104.968994 345.41 105.379 351.44 105.419 356.40002C 105.469 363.13004 105.709 365.67 106.359 366.38004C 106.909004 366.99002 107.029 367.68002 106.679 368.30005C 106.369 368.85004 106.379 370.33005 106.709 371.73004C 107.579 375.49005 107.459 384.83005 106.529 385.59003C 106.009 386.01004 104.439 386.02002 101.819 385.61002C 99.116 385.2 97.276 385.22 95.953 385.68002C 93.455 386.55002 92.143005 386.53003 91.217 385.61002zM115.11901 384.34003C 114.96901 383.90002 114.69901 378.64 114.49901 372.63004C 114.309006 366.63004 114.019005 360.60004 113.85901 359.23004C 113.70901 357.85004 113.39901 350.14005 113.17901 342.08005C 112.88901 331.22006 112.559006 326.98004 111.89901 325.70004C 111.18901 324.32004 111.14901 323.45004 111.69901 321.38004C 112.18901 319.58005 112.209015 318.41003 111.749016 317.50003C 111.36902 316.73004 110.98901 308.70004 110.82902 297.80002C 110.679016 287.68002 110.249016 275.61002 109.86902 270.98C 109.48902 266.35 109.09902 258.21002 108.999016 252.90001C 108.89902 247.58 108.599014 242.87001 108.32902 242.43001C 108.04902 241.99 108.01902 240.50002 108.249016 239.13C 108.499016 237.65001 108.39902 236.32 108.00902 235.84001C 107.60902 235.36002 107.29902 231.01001 107.23902 224.93001C 107.17902 219.37001 106.88902 214.67001 106.57902 214.48001C 106.26901 214.29001 106.01902 212.54001 106.01902 210.6C 106.01902 208.65001 105.87902 202.92001 105.69902 197.85L105.69902 197.85L105.36902 188.64L121.77902 188.81L138.17902 188.97L138.04901 193.03C 137.979 195.26 137.87901 198.63 137.82901 200.51C 137.779 202.4 137.979 206.89 138.28902 210.48999C 138.58902 214.09 138.82901 254.78 138.81902 300.91998L138.81902 300.91998L138.79901 384.78998L127.08901 384.96C 118.04901 385.1 115.32901 384.94998 115.11901 384.34zM246.99902 187.65002C 245.10902 187.21002 242.00902 186.75003 240.09903 186.62003C 238.18904 186.49002 236.24902 186.15002 235.78903 185.86003C 234.59903 185.13004 212.84903 184.07004 202.40903 184.24004C 182.51903 184.56004 172.69904 184.49004 165.61902 184.00003C 157.99902 183.46004 139.08902 183.22003 130.06902 183.54002C 118.919014 183.94002 50.234016 182.98003 49.67402 182.42003C 49.34902 182.09003 48.88002 180.21002 48.63202 178.23003C 48.384018 176.25003 48.00402 173.51003 47.788017 172.14003C 47.117016 167.88004 46.84902 167.95003 63.10402 168.07002C 107.54902 168.41002 119.79902 168.65002 122.89902 169.21002C 124.78902 169.55002 129.27902 169.70003 132.87901 169.55002C 136.47902 169.39001 139.98901 169.29002 140.669 169.33002C 142.29901 169.43002 158.449 169.73001 171.849 169.91002C 177.679 169.99002 191.439 170.04002 202.409 170.01003C 213.609 169.99002 224.009 170.25003 226.109 170.61003C 228.16899 170.97003 232.659 171.47003 236.08899 171.73003C 239.51898 171.99002 242.939 172.54002 243.689 172.95003C 244.439 173.36003 245.83899 173.71002 246.799 173.72003C 249.829 173.77003 254.789 175.34003 254.979 176.32004C 255.07901 176.82004 254.729 177.60004 254.199 178.04004C 253.529 178.60004 253.229 179.98004 253.229 182.66003C 253.209 188.31003 252.46901 188.91003 246.99901 187.65004zM225.11902 166.38002C 221.83902 166.17001 221.57903 166.03001 220.59901 163.98003C 220.029 162.78003 219.55902 160.54002 219.55902 159.00003C 219.55902 157.46004 219.13902 155.19003 218.62903 153.96004C 218.10902 152.72003 217.68903 150.94003 217.68903 150.00003C 217.68903 149.05003 217.29903 147.95003 216.81903 147.55003C 216.32903 147.15004 215.80904 145.65004 215.65903 144.20003C 215.34903 141.35002 212.72903 134.28003 210.87903 131.29002C 210.55902 130.77002 210.13902 129.93002 209.93903 129.42003C 209.49902 128.24004 208.29903 126.41003 207.08902 125.050026C 206.56902 124.470024 205.07903 122.690025 203.77902 121.09003C 200.78902 117.43002 197.12903 115.470024 194.05902 115.900024C 191.13902 116.300026 186.44902 117.56003 185.25902 118.27003C 184.74902 118.57003 183.90901 118.99003 183.38902 119.190025C 181.80902 119.81003 178.13902 121.470024 177.14902 122.00002C 176.63902 122.28002 174.10902 123.56002 171.53902 124.85002C 168.96901 126.14002 165.83902 127.98002 164.58902 128.93002C 163.33902 129.89003 161.92902 130.67003 161.43903 130.67003C 160.95903 130.67003 160.24902 130.98003 159.86902 131.36003C 159.06902 132.16003 157.85902 132.87003 153.66902 135.00003C 152.00902 135.85004 150.08902 137.02003 149.39902 137.61003C 147.40901 139.34003 143.96902 141.74004 141.60902 143.06003C 140.40903 143.73003 138.31903 145.43002 136.95903 146.83003C 135.59903 148.23004 134.16904 149.37003 133.76903 149.37003C 132.62903 149.37003 127.009026 143.64003 124.45903 139.88002C 124.10903 139.37003 122.99903 137.72002 121.97903 136.21002C 120.94903 134.71002 118.49902 131.62003 116.51903 129.36002C 114.539024 127.110016 112.91903 124.98002 112.91903 124.65002C 112.91903 124.320015 112.13903 123.22002 111.17903 122.210014C 108.81903 119.73001 101.699036 110.250015 101.699036 109.60001C 101.699036 109.31001 100.84904 108.27001 99.82304 107.280014C 98.79504 106.290016 97.95303 105.180016 97.95303 104.80001C 97.95303 104.420006 97.12203 103.14001 96.10703 101.95001C 95.09203 100.77001 94.25003 99.335014 94.23603 98.77101C 94.22203 98.20801 93.79003 97.585014 93.27503 97.38701C 92.76103 97.19001 92.340034 96.56901 92.340034 96.00701C 92.340034 95.446014 91.49803 93.92301 90.46903 92.62401C 89.44003 91.325005 88.59803 89.84501 88.59803 89.337006C 88.59803 88.828 88.17703 88.062004 87.66303 87.635C 86.45603 86.634 86.45603 84.562004 87.66303 84.185005C 89.82203 83.511 91.53003 82.518005 94.91403 79.97401C 101.42903 75.073006 105.00903 72.66801 105.77903 72.66801C 106.27903 72.66801 106.67903 72.434006 106.67903 72.14801C 106.67903 71.862015 108.299034 70.53301 110.26903 69.19401C 113.55903 66.961006 122.63903 60.44901 128.87903 55.84401C 130.28903 54.80701 131.62903 53.95901 131.86903 53.95901C 132.10904 53.95901 132.63904 53.67301 133.05904 53.325012C 134.57904 52.046013 141.99904 46.767014 143.18904 46.11801C 152.24904 41.17701 158.50903 39.67601 161.28905 41.77801C 161.94905 42.282013 162.88905 42.70301 163.36905 42.714012C 163.84904 42.725014 165.70905 43.996014 167.51904 45.540012C 169.32904 47.08301 171.03905 48.346012 171.32904 48.346012C 171.61903 48.346012 174.05904 50.45101 176.73904 53.02301C 179.41904 55.59601 181.83905 57.70101 182.10904 57.70101C 182.37903 57.70101 185.12904 60.297012 188.21904 63.469013C 191.29904 66.64201 194.85904 70.22002 196.12904 71.42101C 199.65904 74.777016 204.22905 80.76901 205.70905 84.000015C 206.44905 85.60201 207.33905 87.09202 207.68904 87.31101C 208.04904 87.530014 208.33904 88.35901 208.33904 89.154015C 208.33904 89.95001 208.75903 90.95001 209.26903 91.377014C 209.78903 91.804016 210.20903 92.55102 210.20903 93.03702C 210.20903 94.349014 212.79903 97.61302 213.83904 97.61302C 214.33904 97.61302 215.32904 96.96502 216.05904 96.17402C 220.74904 91.05102 225.17903 85.82902 225.21904 85.36902C 225.23904 85.07202 226.21904 83.56602 227.38904 82.02202C 228.55904 80.47902 230.51904 77.72402 231.72903 75.90002C 234.21904 72.17602 239.22903 67.055016 240.39903 67.055016C 240.81903 67.055016 242.96904 65.04802 245.16904 62.596016C 251.86903 55.148018 253.16904 53.723015 255.04904 51.776016C 256.04904 50.747017 258.63904 47.573017 260.81903 44.723015C 267.87903 35.471016 270.32904 32.512016 274.34903 28.390015C 276.51904 26.161015 278.75903 23.635014 279.31903 22.777016C 279.86902 21.920015 281.38904 19.937016 282.68903 18.372015C 283.97903 16.806015 285.03903 15.322015 285.03903 15.073015C 285.03903 14.480015 287.70905 10.677015 288.31903 10.409016C 288.56903 10.294016 288.77902 9.274316 288.77902 8.141915C 288.77902 5.212415 291.18903 3.6389155 293.989 4.742915C 296.93903 5.911815 298.21902 7.2437153 298.009 8.943015C 297.869 10.124015 297.139 10.708015 294.669 11.624015C 291.959 12.633015 291.009 13.489015 287.849 17.787014C 285.829 20.532013 283.949 22.777014 283.679 22.777014C 283.399 22.777014 283.16898 23.130014 283.16898 23.561014C 283.16898 23.992014 281.90897 25.746014 280.37897 27.459015C 278.83896 29.171015 277.56897 30.889015 277.56897 31.276014C 277.55896 31.663013 277.16898 32.300014 276.69897 32.693016C 276.22897 33.086018 275.679 34.186016 275.48898 35.138016C 275.29898 36.090015 274.48898 37.557014 273.679 38.398014C 272.879 39.239014 271.48898 41.050014 270.589 42.422012C 269.69897 43.794014 266.19897 47.87601 262.819 51.49301C 256.939 57.77301 250.059 65.38201 245.839 70.25601C 244.769 71.501015 243.879 72.791016 243.879 73.12101C 243.879 73.45201 243.289 74.25601 242.569 74.91001C 241.179 76.16301 233.549 85.39301 229.059 91.26401C 227.599 93.17701 224.79901 96.41 222.839 98.449005C 219.789 101.62 219.279 102.490005 219.279 104.51C 219.279 107.420006 221.09901 109.72 222.96901 109.16C 223.669 108.950005 225.639 108.53001 227.35901 108.23C 232.09901 107.4 235.87901 106.4 238.04901 105.39001C 239.12901 104.880005 240.61902 104.47001 241.35901 104.47001C 242.089 104.47001 243.49901 104.060005 244.46901 103.560005C 245.70901 102.920006 248.139 102.65 252.45901 102.68001C 256.99902 102.71001 259.18903 102.46001 260.59903 101.73001C 261.65903 101.18001 263.62903 100.73001 264.97903 100.73001C 266.31903 100.73001 268.61905 100.31001 270.07904 99.79601C 271.52905 99.28101 274.07904 98.860016 275.72903 98.860016C 277.37903 98.860016 278.88904 98.60602 279.07904 98.29501C 279.26904 97.98401 280.89905 97.544014 282.69904 97.318016C 284.50903 97.09102 287.37903 96.528015 289.09903 96.06502C 290.80902 95.60302 294.18903 95.21702 296.59903 95.207016C 299.30902 95.196014 301.67902 94.821014 302.82904 94.222015C 303.99905 93.613014 306.33905 93.25401 309.13904 93.251015C 313.22903 93.24802 313.75903 93.09302 315.59903 91.377014C 318.24902 88.904015 320.67902 88.88201 322.41904 91.31702C 323.12903 92.31302 323.70905 93.443016 323.70905 93.82702C 323.70905 94.806015 320.59906 95.88002 318.95905 95.46902C 318.20905 95.28101 316.79904 95.544014 315.81903 96.054016C 314.83902 96.56402 312.91904 96.986015 311.54904 96.99202C 310.16904 96.99802 307.66904 97.42102 305.98904 97.93202C 304.30905 98.442024 301.58905 98.86002 299.94904 98.86002C 298.30902 98.86002 296.80902 99.11302 296.61905 99.42303C 296.02905 100.370026 287.81906 102.60003 284.90906 102.60003C 283.40906 102.60003 281.83905 102.940025 281.42905 103.35003C 281.01904 103.76003 279.20905 104.29003 277.39905 104.54003C 275.59906 104.78003 273.00903 105.28003 271.62906 105.65003C 270.25906 106.01003 267.41907 106.32003 265.30905 106.33003C 263.15906 106.340034 260.70905 106.75003 259.69907 107.28003C 258.71906 107.79003 257.02905 108.21003 255.95906 108.21003C 254.87906 108.21003 253.19907 108.63003 252.21906 109.15003C 251.22905 109.660034 249.16905 110.090034 247.61905 110.10003C 246.07906 110.11003 244.26904 110.54003 243.60905 111.04003C 242.93906 111.54003 241.37906 111.96003 240.14905 111.96003C 238.90904 111.96003 237.58905 112.27003 237.20905 112.65003C 236.82904 113.03004 234.58905 113.480034 232.24904 113.660034C 229.89903 113.840034 227.55904 114.340034 227.03903 114.78004C 226.52904 115.21004 225.54903 115.67004 224.85904 115.80003C 223.76904 116.00003 223.58904 116.590034 223.42905 120.60004C 223.32904 123.15004 222.85904 125.78004 222.37904 126.520035C 221.63904 127.67004 221.63904 128.03003 222.40904 129.07004C 222.93904 129.79004 223.29904 131.72003 223.29904 133.83003C 223.29904 136.22003 223.60904 137.63004 224.23904 138.15004C 224.74904 138.58003 225.17905 139.80003 225.18904 140.88004C 225.19904 141.95004 225.62904 143.37004 226.12904 144.04004C 226.62904 144.70004 227.03905 146.00005 227.03905 146.93004C 227.03905 147.85004 227.45905 149.41003 227.97905 150.39005C 228.48904 151.38005 228.90904 153.18004 228.90904 154.39005C 228.90904 155.61005 229.16904 156.87004 229.46904 157.20004C 229.77904 157.53004 230.35904 159.20004 230.75903 160.91005C 231.15903 162.63005 231.63904 164.66005 231.82904 165.43005C 232.13904 166.66005 231.94904 166.82005 230.38904 166.72005C 229.40904 166.65004 227.03903 166.50005 225.11903 166.38005zM95.88902 165.82002C 95.82302 165.76003 91.84103 165.53003 87.039024 165.31003C 63.958023 164.24002 61.748024 164.05003 61.144024 163.09003C 60.819023 162.58003 60.550022 161.69003 60.544025 161.12003C 60.539024 160.55002 60.065025 159.14003 59.491024 158.00003C 58.917023 156.86003 58.075024 155.18002 57.620026 154.27003C 57.165028 153.36005 56.793026 152.08003 56.793026 151.42003C 56.793026 150.77003 56.381027 149.69003 55.877026 149.03003C 55.374027 148.36003 54.953026 147.08003 54.942024 146.18002C 54.931023 145.28001 54.501022 144.19002 53.987022 143.76003C 53.472023 143.33003 53.05102 142.35002 53.05102 141.58003C 53.05102 140.81004 52.666023 139.85004 52.195023 139.46004C 51.724022 139.07004 51.147022 137.31004 50.914024 135.56004C 50.541023 132.74004 50.666023 132.17004 51.962025 130.73004C 56.812023 125.37004 57.920025 121.80004 55.858025 118.19004C 54.037025 115.01004 54.622025 113.14004 58.497025 109.77004C 60.463024 108.06004 63.760025 105.08004 65.82403 103.16004C 67.88903 101.23004 71.261024 98.16604 73.31903 96.34404C 75.37703 94.52304 77.285034 92.66004 77.56003 92.20404C 77.83403 91.74904 78.43103 91.37704 78.88703 91.37704C 79.34203 91.37704 80.06403 90.95604 80.49103 90.44104C 80.91803 89.92704 81.75403 89.50604 82.34803 89.50604C 83.48403 89.50604 88.59803 96.238045 88.59803 97.73404C 88.59803 98.20604 87.15503 99.84504 85.39003 101.380035C 83.62603 102.910034 81.73903 104.65003 81.19803 105.25004C 80.65703 105.850044 79.88803 106.340034 79.49103 106.340034C 78.29403 106.340034 75.50203 110.51003 75.50203 112.29003C 75.50203 113.21003 76.34403 115.020035 77.37303 116.32003C 78.40203 117.620026 79.24403 119.10003 79.24403 119.61003C 79.24403 120.12003 79.66503 120.88003 80.17903 121.31003C 80.69403 121.74003 81.11503 122.38003 81.11503 122.73003C 81.11503 123.09003 81.816025 124.300026 82.67303 125.42003C 83.53003 126.54003 84.523026 128.11003 84.88003 128.91003C 85.87403 131.12004 88.788025 136.39003 90.053024 138.27003C 90.675026 139.19003 92.00703 140.12004 93.01302 140.34004C 94.53302 140.68004 95.192024 140.39005 96.928024 138.67004C 98.07603 137.52005 100.08903 135.75005 101.399025 134.72005C 102.719025 133.69005 104.29903 132.36005 104.91902 131.76004C 105.54902 131.16003 106.29902 130.67004 106.58902 130.67004C 106.87902 130.67004 107.61902 130.10004 108.23902 129.42004C 108.859024 128.73004 109.79902 128.17004 110.32902 128.17004C 111.39902 128.17004 114.78902 131.18004 114.78902 132.12004C 114.78902 132.70004 116.98901 135.49004 121.00902 140.02003C 122.07902 141.22003 123.569016 143.01004 124.32902 143.99004C 125.08902 144.98004 126.89902 147.06004 128.35902 148.63004C 129.80902 150.19003 131.00902 151.73004 131.00902 152.04004C 131.00902 152.55003 119.749016 164.61005 118.21902 165.74004C 117.71902 166.11003 96.29802 166.19003 95.889015 165.82004zM93.43102 134.74002C 92.831024 133.91002 92.34002 132.96002 92.34002 132.61002C 92.34002 132.27002 91.49802 131.07002 90.46902 129.94002C 89.44002 128.81001 88.598015 127.52002 88.598015 127.06002C 88.598015 126.61002 87.38302 124.35002 85.89802 122.06002C 84.41202 119.76002 83.01802 117.39002 82.79902 116.79002C 82.58002 116.190025 82.11202 115.70003 81.75802 115.70003C 81.404015 115.70003 81.11502 115.31003 81.11502 114.84003C 81.11502 114.370026 80.69402 113.63003 80.17902 113.20003C 79.66502 112.78003 79.244026 111.940025 79.244026 111.35003C 79.244026 109.91003 81.38003 108.050026 82.731026 108.32003C 83.734024 108.51003 87.41802 112.910034 88.397026 115.07003C 88.62903 115.59003 89.53503 117.13003 90.411026 118.50003C 92.83703 122.31003 93.50002 123.410034 93.969025 124.43003C 94.206024 124.94003 94.74203 125.79003 95.16003 126.30003C 95.578026 126.810036 96.67303 128.60004 97.593025 130.28003L97.593025 130.28003L99.26502 133.32002L97.87702 134.80002C 96.12402 136.67001 94.81902 136.65002 93.43102 134.74002zM99.85202 125.09002C 97.77802 122.37002 96.08202 119.95002 96.08202 119.72002C 96.08202 119.31001 95.23502 118.02002 89.648026 109.890015C 88.04202 107.55002 86.72703 105.15002 86.72703 104.540016C 86.72703 103.94002 87.454025 102.76002 88.342026 101.930016L88.342026 101.930016L89.956024 100.42001L91.49902 102.290016C 94.137024 105.49001 98.55802 112.30002 100.009026 115.41002C 100.49902 116.45002 101.289024 117.72002 101.77902 118.22002C 104.79902 121.35001 107.30902 125.08002 107.30902 126.45001C 107.30902 127.79001 105.18902 130.04001 103.92902 130.04001C 103.759026 130.04001 101.92902 127.810005 99.85202 125.09001z" stroke="none" fill="#000000" fill-rule="nonzero" />
</g>
</svg>