<?xml version="1.0" standalone="no"?>
<!DOCTYPE svg PUBLIC "-//W3C//DTD SVG 1.0//EN" "http://www.w3.org/TR/2001/REC-SVG-20010904/DTD/svg10.dtd">
<svg xmlns="http://www.w3.org/2000/svg" xmlns:xlink="http://www.w3.org/1999/xlink" id="body_1" width="123" height="92">

<g transform="matrix(5.75 0 0 5.75 15.499999 -0)">
    <path d="M16 3.539C 15.398134 3.8015015 14.7616005 3.975959 14.11 4.057C 14.796667 3.6496277 15.310084 3.0045645 15.5529995 2.2440002C 14.910015 2.6253362 14.206535 2.893876 13.473 3.038C 12.552653 2.055317 11.125259 1.7348609 9.873176 2.2298248C 8.621092 2.7247884 7.798644 3.9346337 7.799 5.281C 7.799 5.5410004 7.8209996 5.7910004 7.875 6.0290003C 5.2357626 5.8996034 2.7767081 4.651709 1.1139998 2.5980003C 0.2398107 4.0962663 0.68121123 6.01601 2.1219997 6.9820004C 1.6027579 6.9680758 1.0944735 6.829515 0.64 6.578L0.64 6.578L0.64 6.614C 0.64179325 8.175269 1.7390528 9.520956 3.2680001 9.837C 2.9873853 9.910955 2.6981878 9.947273 2.408 9.945C 2.1995895 9.948706 1.9913853 9.929931 1.787 9.889C 2.2213287 11.223139 3.449388 12.138674 4.852 12.174C 3.6909382 13.08204 2.258974 13.574619 0.7850003 13.573C 0.51600033 13.573 0.2580003 13.561 2.9802322E-07 13.528C 1.4998815 14.494539 3.2476773 15.005819 5.032 15C 11.068 15 14.368 10 14.368 5.6660004C 14.368 5.5210004 14.363 5.3810005 14.356 5.2420006C 15.002964 4.7789865 15.560076 4.2018805 16 3.539z" stroke="none" fill="#03A9F4" fill-rule="nonzero" />
</g>
</svg>