<?xml version="1.0" standalone="no"?>
<!DOCTYPE svg PUBLIC "-//W3C//DTD SVG 1.0//EN" "http://www.w3.org/TR/2001/REC-SVG-20010904/DTD/svg10.dtd">
<svg xmlns="http://www.w3.org/2000/svg" xmlns:xlink="http://www.w3.org/1999/xlink" id="body_1" width="5" height="5">

<g transform="matrix(0.02015873 0 0 0.02015873 0 0)">
	<g transform="matrix(1 0 0 1 -0 -804.3307)">
        <path d="M76.42344 1042.717C 74.20104 1042.4904 71.70094 1042.0349 70.86754 1041.7051C 70.03414 1041.3751 61.529137 1038.8481 51.967438 1036.0894C 42.40574 1033.3306 34.515137 1031.006 34.43274 1030.9237C 34.193638 1030.6844 36.71154 988.4121 37.29664 982.84235C 39.56424 961.2583 43.34494 950.68134 52.161537 941.256C 59.752438 933.1411 67.08394 929.4842 79.70634 927.51685C 85.21704 926.65796 119.149635 926.2857 127.326935 926.99445C 140.32704 928.12115 148.63254 930.09845 156.45004 933.9277C 160.39574 935.8604 161.97604 937.016 165.59224 940.6129C 175.01193 949.98224 179.35794 962.9709 181.44664 987.9957C 182.61224 1001.96124 183.93504 1030.5929 183.43694 1031.0751C 182.51933 1031.9635 165.70024 1036.6721 160.07153 1037.6165C 139.63094 1041.0457 89.81403 1044.0835 76.42343 1042.717L76.42343 1042.717L76.42344 1042.717z" stroke="#000000" stroke-width="0.5050763" fill="#030904" fill-rule="nonzero" />
        <path d="M66.303345 883.1035C 66.303345 861.9358 84.50684 844.77594 106.96199 844.77594C 129.41714 844.77594 147.62064 861.9358 147.62064 883.1035C 147.62064 904.27124 129.41714 921.4311 106.96199 921.4311C 84.50684 921.4311 66.303345 904.27124 66.303345 883.1035" stroke="#000000" stroke-width="1" fill="#000700" fill-rule="nonzero" />
	</g>
</g>
</svg>